<?xml version="1.0" encoding="utf-8"?>
<!-- Generator: Adobe Illustrator 19.0.0, SVG Export Plug-In . SVG Version: 6.00 Build 0)  -->
<svg version="1.1" id="Layer_1" xmlns:inkscape="http://www.inkscape.org/namespaces/inkscape"
	 xmlns="http://www.w3.org/2000/svg" xmlns:xlink="http://www.w3.org/1999/xlink" x="0px" y="0px" viewBox="115 99.8 841.7 595.2"
	 style="enable-background:new 115 99.8 841.7 595.2;" xml:space="preserve">
<style type="text/css">
	.st0{fill:none;stroke:#000000;stroke-width:0.1;stroke-linecap:square;stroke-linejoin:bevel;}
	.st1{fill:#FF0004;fill-opacity:0;stroke:#FFFFFF;stroke-width:2.8346;stroke-linecap:square;stroke-linejoin:bevel;}
	.st2{fill:none;stroke:#FFFFFF;stroke-width:8.503937e-002;stroke-linecap:square;stroke-linejoin:bevel;}
	.st3{font-family:'Karla';}
	.st4{font-size:5.9982px;}
</style>
<g id="Map_1:_line_x5F_D17137_x5F__x5F_771_x5F__x5F_27settembre2023" inkscape:label="Map 1: line_D17137__771__27settembre2023" inkscape:groupmode="layer">
	<g transform="matrix(1,0,0,1,0,0)">
	</g>
	<g transform="matrix(1,0,0,1,0,0)">
	</g>
	<g transform="matrix(11.8081,0,0,11.8081,0,0)">
	</g>
	<g transform="matrix(11.8081,0,0,11.8081,0,0)">
	</g>
	<g transform="matrix(0.999751,0,0,0.999751,0,0)">
	</g>
	<g transform="matrix(0.999751,0,0,0.999751,0,0)">
		<path vector-effect="none" class="st0" d="M213.1,416.6h-0.2H213.1H213l0,0l0.1-0.1l0,0H213h-0.1l-0.1,0.1v0.1h0.1h0.3l0.2,2.6
			l0.4-0.7h-0.1h-0.1v0.1v-0.1v-0.1v-0.1l0,0h-0.1l0,0h-0.1h0.1h0.1l0.3,1.1l0.7-1.3l0.1-0.2l0.1-0.1v-0.1l0,0v0.1l0,0l0,0l-0.1,0.1
			h-0.1l0,0l0,0v0.1h-0.1l0,0l0,0v0.1v0.4l-0.2-0.6l0.1-2l0,0l0,0l0,0l0,0l0,0l0,0l0,0l0,0l0,0l0,0l0,0l0,0l0,0l0,0l0,0l0,0l0,0l0,0
			l0,0l0,0l0,0l0,0l0,0l0,0l0,0l0,0l0,0l0,0l0,0l0,0l0,0l0,0l0,0l0,0l0,0l0,0l0,0l0,0l0,0l0,0l0,0l0,0l0,0l0,0l0,0l0,0l0,0v-0.2
			v-0.1v-0.1l0,0l0,0v0.1l0,0l0,0l0,0l0,0l0,0l0,0l-0.1-1.4l0.1-0.3l1.5-0.7l6-1.8l6-1l6.4,0.3l5-0.9l0.7-4.2l0.7-5.5l1.2-4.5
			l2.6-0.3l1.4,0.8l1.8,0.7l6.6-0.2l5-0.8l4.8-0.6l6.9-0.9l8.6-1.6l5.8-0.4l7.7-1l6.2-0.8l7.9-1.2l8.4-1.1l8.5-1.2l6.1-1l3-0.3
			l0.3-0.1l0.2,0.1l0,0l0.1-0.1l0,0v0.1l0.1,0.1l0,0l0,0v0.1v0.1v0.1l0,0l0,0l0,0l0.4-0.3l-0.1-0.2l0,0l0,0l0,0v0.1l0,0v-0.1l0,0
			l0,0l0,0l0,0l0,0l0,0l0,0l0,0l0,0l0,0l0,0l0.3,0.1l0,0l0,0l0,0l0,0l0,0v-0.1v-0.1v-0.1v0.1v0.1v0.1v0.1v-0.1v-0.1l0,0l0,0l0,0v0.1
			l0,0l0,0l0,0l0,0l0.2-0.2l3.5-0.4l2.3-2.9l-0.5-4.1l-5-3.2l-2.7-7.6l-0.5-3.4l-0.4-4l-0.4-7.4l1.6-2.9l2.3-2.6l5.1-2.3l8.2-0.5
			l4,0.5l3.9-2.2l2.9-3.7l1.1-2.1l5.4-3.7l6.3-1.4l2.7,1.7l4.7-0.6l3.3-1.1l5.1-1.7l1.3-0.6l5.8-0.2l3.7,0.9l4.7-1.5l1.8-0.5
			l6.3-1.7l2.3-1.1l3.1-1.5l5.9-1.5l4.7,0.3l4.9-1.1l6.1,1.8l1.8,0.2l3-3.9l4.8-0.5l2.7-2l1.3-2.9l0.2-3.9l-1.5-2.7l-0.3-0.8
			l1.2-4.4l2.7-5.2l2.1-4.3l0.7-1.9l5.6-2l7.7-2.4l9.5-2.6l4-1.1l5.3-1.3l2.7-0.2l2.6-0.6l6-1.3h5.1l5.8,0.6l5.7,1.4l2.5,0.7
			l4.1,1.1l8.3,2.6l6.6,2.3l1,0.2l7.3,2l9.2,1.8l9.6,2.7l6.3,1.7l3.2,0.8l7.2,2.1l2.1,0.5l3.9,1l4.2,1.2l6.1,1.9l3.1,1.4l1.5,0.4
			l1.3,0.4l1.8,0.5l2,0.4h0.8h1.5l1.6,0.5l1.4,0.4l2.9,0.8l2.1,0.6l3.4,0.9l4,1.1l3.1,0.9l1.9,0.4l6.8,1.9l7.3,2.5l0.9,0.2l2.8,0.1
			l8.5-1l10.5-2.3l11.8-3.9l12-5.4l12.7-5.8l11.1-5.3l7.2-3.3l4.4-0.9l7.5-0.9l5.4-1.4l4-2.4l2.1-1.8l3.1-2.4l4.5-2.7l3.4-1.7
			l3.5-1.9l3.9-2.3l2.4-1.4l4.8-2.7l2.7-1.6l2.8-1.6l5-2.9l7.7-4.3l7.7-4.5l1.6-1l8-3.9l3.6-1.2l6.9-2.1l5.2-1.7l2.5-0.9l5.5-1.9
			l2.1-0.8l4.9-1.5l0.6,0.6l0.4,2.4l1.2,2.2l0.8,0.3l2,1.2l0,0l0,0l0,0l3.9,3.8l2.6,8l3.3,9l0.6,1.4l-0.6-1.9l-3-8l-1.9-7.2
			l-2.4-4.5l0,0l0,0v-0.1l0,0l0,0l0,0l0,0l0,0l0,0l0,0v-0.1l0,0l0,0l0,0l0,0l0,0l0,0l0,0l0,0l0,0l0,0l0,0v0.1l-0.1-0.2l0,0l0,0
			l-0.9-0.9l-1.5-0.8l-2.8-2.3V241l-1.3-0.1l-4.6,1.7l-2.2-3.7l-3.1,0.6l-5.3,1.6l-5,1.7l-8.8,3l-10,4.4l-5.1,2.8l-2.3,1.5l-7.9,4.3
			l-3.5,2l-3.2,1.9l-1.4,0.9l-6.4,3.6l-4.5,2.6l-5.4,3.1l-3.1,1.8l-7.6,4.7l-7,5.7l-10.6,3l-8.9,1.5l-1.6,0.7l-6.4,3l-9.4,4.4
			l-11.3,5.2l-11.9,5.5l-12.9,4.7l-12.3,2.7l-10,0.2l-0.2-0.1l-3.9-1.2l-7.5-1.6l-5.8-1.6l-6.3-1.7l-10.7-2.9l-3.3-0.9l-5.9-1.7
			l-0.9-0.2l-7.9-2.1l-11-3.1l-10-2.9l-3.8-0.9l-9.1-2.5l-10.3-3.4l-4.7-1.4l-3.6-1.1l-2.4-0.7l-6.4-1.4l-8.9-2l-7.2-2l-0.9-0.2
			l-7-1.3l-9-1.1l-5.4,0.6l-2.2,0.3l-4,1.1l-8.6,3l-10.7,2.9l-11.3,2.4l-1.4,3.4l-2.9,5.5l-1.5,3.1l-2.5,5.2l1.8,3.8v5l-4.2,4.4
			l-6,1.3l-3.3,2.8l-2.5-0.6l-2.5-0.9l-4.8,1l-8.1-0.1l-6.1,2.3l-2.4,1.1v0.1l-3.1,1.3l-6.3,1.4l-4.4,0.9l-2-0.5l-6.2-0.2l-3.5,0.7
			l-4.1,1.9l-4,1.2l-5.8-1.2l-4.9,0.7l-6.5,3.1l-0.6,0.7l-2.1,3.4l-3.1,3.8l-2.9,1.1l-2.2-0.3l-4.8-0.7l-4.3,0.6l-4.3,1.4l-1.3,0.7
			l-1.1,0.6l-3.3,4.8l-0.2,4.2l0.5,4.4l0.2,2.8l-0.4,1l-2.3,3l-6.1,4.2l-3.8,1.7l-5.3,5.5l-0.6,0.9l-0.7,4.4l0.2,3.8l0.3,1.2l6.7-1
			l4.8-0.6l1.3-0.3l1.3-0.2l2-0.2l3.2-0.6h1.7h0.1h0.1l0,0l0,0l0,0l0.3,0.1v0.1l0,0l0,0l0,0l0,0l0,0l0,0l0,0l0,0l0,0v-0.1l0,0h0.1
			l0,0l0,0l0,0l0,0l0,0l0,0l0,0l0,0l0,0l0,0l0,0l0,0l0,0l0,0l0,0l0,0l0,0l0,0l0,0l0,0l0,0l1.5-0.4l1.6-0.3l2.6-3.5l0.2-2.3v-0.5
			l-4-3.2l-3.9-4.6l-0.1-2l-0.6-4.4l-0.8-6.6l-0.1-1.5l-0.2-1.5l0.8-4l3-4.2l2.9-1.7l1.6-0.5l2.6-0.8h4.1l4.3,0.6l5.1-1.3l1.1-1.4
			l2.4-3.2l1.8-3l7.1-3.3l2.4-0.6l3.8,1.4l3,0.1l3.3-0.9l3.6-1.5l3.6-0.9l1.1-0.6l5.7-0.2l2.8,0.6l4,0.1l0.1-0.1l1.3-0.8l0.4-0.3
			l0.7-0.4l0,0l2-0.4l0.6-0.1l0,0l0,0l1.2-0.2l2-0.6h0.1h0.1l1.5-0.6l2.9-1.3l2.2-1l2.3-1l5.7-0.7l2.8,0.2l4.8-0.9l6.1,1.7l0.9,0.2
			l1.1,0.1l3.2-4.1l4.7-0.5l2.1-1.3l1.3-1.8l1.2-3.1l-0.5-2.8l-1.3-2.3l-0.5-2.4l3.8-7.9l2.4-4.8l1.1-2.4l4.2-1l3.2-1.2l7.2-2.1
			l9.6-2.6l9.6-1.9l4.4-1.1l7.6-0.9h2.4l6.7,0.8l4.6,1.2l3.8,1l5.2,1.4l8.4,2.9l5.1,1.7h0.8l6.9,1.8l7.8,2.1l1.1,0.3l6.2,1.2
			l3.1,0.8l3.6,0.9l2.1,0.6l2.5,0.7l2.7,0.7h0.1l0.7,0.1l1.4,0.4l0.2,0.1l2.6,0.7l1.4,0.4l0.6,0.1l0.5,0.3l1,0.2l1.2,0.2l0.8,0.3
			l0.1,0.1l0.9,0.3l1.4,0.3l1.8,0.6l1.6,0.4l1.3,0.4l0.8,0.2l0.3,0.1l0.6,0.2l1.3,0.3l2.9,1l1.2,0.7l0.5,0.2l1.3,0.3l4,1.2l1.1,0.3
			l0.5,0.1l0.9,0.1l0.9-0.1l1.2,0.1l1.5,0.4l3.5,0.9l3.4,0.9l1.5,0.4l3.3,0.9l2.3,0.6l1.9,0.5l1.5,0.4l2.1,0.6l6.6,1.9l7.1,2.3
			l6.7,0.1l10.1-1.9l11.3-3.1l8.8-3.4l10.7-5l12.4-5.7l12.6-5.8l4.7-2.1l5.2-0.9l8.8-1.2l10.4-6.5l8.1-4.9l1.8-0.9l2-1.2l0.4-0.3
			l1.4-0.7l3.7-2.1l1.7-1l4.8-2.7l2.3-1.3l3.6-2l2.5-1.5l7.1-4.2l8-4.5l9.6-5.3l9.1-3.3l7.8-2.4l7.7-2.6l2.7-0.8l4.6-1.5l2.3,0.5
			l0.2,0.7l1.3,3.3l2.5,1.3l0,0l0.5,0.4l4.2,4.5l2.9,9l2.7,7.5l0.1,1.3l-0.1-1.4l-2.8-7.6l-2.3-7.9l-2.5-3.8l0,0l0,0l0,0l0,0l0,0
			l0,0l0,0l0,0v-0.1l0,0l-0.3-0.5v0.1l0,0l0,0v0.1l0,0l0,0l0,0l0,0v0.1v-0.1V245l0,0l0,0l0,0v-0.1l0,0l0,0l-0.5-0.4l-1.2-1.2
			l-3.6-2.1l-0.3-0.6l0,0l-0.6-0.9l-1,0.7l-4.6,1.7l-2.3-3.9l-4,1.1l-6.6,2.2l-3.7,1.3l-8.3,2.9l-5.2,2l-2.1,1.2l-3.2,1.7l-7.1,4
			l-7.6,4.4l-6.2,3.5l-6.6,3.7l-3.8,2.3l-6.4,3.7l-9.2,5.3l-6.3,5l-9.5,4.8l-12,1.6l-5.8,2.5l-7.4,3.6l-11,5.1l-12,5.6l-11.6,5
			l-13,3.6l-9,1.3l-5.9,0.2l-4.6-1.4l-7.3-1.5l-5.9-1.8l-3.8-1l-10.5-2.9l-5.5-1.5l-6.8-1.9l-3-0.8l-9.4-2.6l-11.5-3.1l-7.3-2.1
			l-7-1.8l-9.8-2.7l-7.9-2.9l-5.5-1.5l-3.5-0.9l-7.4-1.4l-9.8-2.5l-5-1.4l-6.2-1.3l-9.9-1.1l-5.7,0.4l-1.7,0.3l-3.3,0.8l-7.3,2.6
			l-10.2,2.8l-11.5,2.7l-5.4,2l-1.3,6.4l-3.9,7.8l0.1,3.3l1.1,7.3v0.1l-2.2,3.4l-6.1,0.9l-3.5,3.9l-3.9-0.7l-6.3-0.2l-6.7-0.2
			l-3.4,0.4l-0.4,0.1l-0.7,0.2l-0.4,0.2l0,0h-0.1l-0.7,0.3l-0.5,0.2l-0.7,0.3l0,0l-0.7,0.4l-0.5,0.2l-0.9,0.4l0,0h-0.3l-0.9,0.5
			l-6.5,2.2l-4.1,1.5l-7.6-0.2l-8.4,1l-7.2,2.8l-6.2-1l-8.8,1.6l-3.8,3.4l0,0l-3.2,4.9l-4.2,2.8l-2.3-0.2l-6.3-0.8l-2.8,0.6
			l-0.4,0.2l-1.9,0.5l-3.5,1.7l-2,1.6l-1.7,3l-0.5,6.2l0.4,3.8l-1.1,5.2l0,0l-0.3,0.3l0.1,0.8l-0.8,0.6l0,0l-0.1,0.1l-0.5,0.3
			l-0.6,0.3l0,0l-0.5,0.4l-0.8,0.9l0,0l-1.1,0.9l-0.4,0.2l0,0l-0.5,0.2l-0.8,0.4v0.1l-0.5,0.3l-1.5,0.5l0,0v0.1l-1.3,0.6l-1.2,0.7
			l-0.8,0.6l0,0l-0.2,0.2l0,0h-0.1l-0.2,0.2l-0.4,0.4l-0.4,0.4l-0.8,1l-0.2,0.3l-0.5,0.6l-0.3,0.3l-0.9,1.4l-1.6,3l0.6,5.6l5.7,0.8
			l7.4-1l2.7-0.5l2.9-0.5l2.5-0.2l0.1,0.1l0,0l0,0l0,0v-0.1l0,0l0,0l0,0h0.4l0,0l0,0l0,0l0,0v0.1l0,0l0,0l0,0l0,0l0,0l0,0v0.1l0,0
			l0,0l0,0l0,0l0,0h0.1l0.2-0.1l0,0l0,0l0,0l0,0l0,0l0,0v0.1l0,0l0,0l0,0l0,0v-0.1l0,0l-0.1,0.1l0,0h0.1l0,0l0,0l0,0l0,0l0,0l0,0
			l0,0l0,0l0.3-0.1l1.4-0.2l3.8-0.8l0.3-4.3l0.2-1.2l-0.1-0.1V379v-0.6l-4.9-3.3l-2.8-4.3l-0.4-3.6l-0.7-6l-0.6-5.5l-0.1-1l1.4-4.6
			l3.7-3.9l4.6-1.9l7.5-0.3l2.5,0.4l5.6-1.8l2.2-2.9l0.8-1.1l1-1.9l6.1-3.9l4.6-1.2l3.5,1.6l4.8-0.5l3-1l3.1-1.5l3.4-0.9l6.4-0.2
			l4.2,0.9l3.9-1.6l2.8-0.7l2.4-0.5l5.1-2.1l2.4-1l2.6-1.2l5.8-0.7l4.1,0.4l7-0.1l3.7,1l1.4-0.5l4.7-3.5l5.4-2.2l1.4-2.6l0.6-1.5
			l-0.3-3.1l-1.6-2.9l1.6-5.8l4.2-8.5l1.8-2.7l3.8-1l5.5-1.8l9.4-2.6l11.8-3.2l3.5-0.3l2.9-0.7l8-1.2l4,0.2l8.8,1.5l9.6,2.7
			l10.9,3.6l3.4,1l6.6,1.8l9.6,1.9l11.5,3.1l6.6,1.9l7.9,2.1l10.6,2.9l9.4,3.2l1.8,0.5l6,1.4h0.9l1.9,0.4l3.1,0.8l2.1,0.6l2.5,0.6
			l5.4,1.5l7.3,2l9,2.8l4.6,1.4l1.7,0.2l8.5-0.9l11.4-2.5l12.9-4.3l12.7-5.7l12.7-6l12.7-5.9l12.1-3.1l11.9-3.4l8.1-6.2l5.8-3.1
			l4.6-2.7l4-2.3l2.3-1.4l4.4-2.4l4.9-2.8l3.6-2l0.4-0.5l5.7-3.3l8.3-4.7l11.3-6.1l12.7-4.1l11-3.6l1.9-0.6l6.3-2l0.7,1.6l0.5,2.9
			l0.1,0.2l0.3,0.2l3.3,1.8l0.3,0.3l3.5,3.6l3.4,9.7l2.2,5.7l0.2,1.3l0.4,1.7l0.3-0.2l-1.6-5.9l-3.4-8.8l-2.9-5.7l0,0l0,0l0,0l0,0
			l0,0l0,0l0,0l0,0l0,0v-0.1v-0.1l0,0v0.1v0.1l0,0l-0.3-0.5v-0.1l0,0l0,0l0,0l0,0l0,0l0,0l0,0v0.1l0,0l0,0l0,0l0,0l0,0l0,0l0,0l0,0
			l0,0l0,0l-1.4-1.6l-3.1-1.4l-0.9-1.2l-0.2-0.4l-2.1,0.5l-3.9,1.3l-1.6-2.9h-3.6l-6.4,2l-11.3,3.9l-10.8,4.5l-8.6,4.8l-8.7,5
			l-6.8,3.9l-1.7,1.1h-0.1h-0.1l-1.1,0.6l-7.2,4.1l-6.4,3.5l-5.1,3l-5.2,3.3l-4.2,3.7l-8.3,4.3l-9.4,1.2l-5.6,1.4l-6.8,3.2l-9.8,4.5
			l-11.7,5.4l-12.1,5.6l-12.8,4.5l-13.5,2.8l-12.7-1.4l-10.3-2.8l-11.1-3l-8.6-2.4l-4.9-1.3l-8.9-2.5l-12.1-3.2l-12.8-3.6l-12.1-3.3
			L550,289l-6-1.7l-4.7-1.3l-8.1-1.6l-9.7-2.5l-11.8-2.8l-9.4-1.1l-5.2,0.5l-2.9,0.6l-4.2,1.1l-7.1,2.6l-10.7,2.9l-11.8,2.6l-2,3.3
			l-4.2,8.5l-2.2,6.6l1.5,7.8l-5.7,4.7l-5.4,1.6L438,323l-5.2-1.5l-6.5,0.7l-8.2,0.4l-2.9,1.3l-0.4,0.2l-2.1,0.8l-0.5,0.2l-0.4,0.2
			l-6.2,2.1l-7.3,2.3l-9.9-0.8l-6.8,2.5l-5,1.5l-4.1-1.1l-4-0.2l-8.5,3.9l-2,3.2l-2.3,3.1l-2.2,1.9l-7.3-0.3l-5.8,0.3l-1.7,0.6
			l-0.5,0.1l-0.2-0.3l-1.2,0.1l-2.7,1.8l-1.9,2.1l-0.5,0.9l-1.6,5.2l0.1,1l0.3,3.4l0.2,2l-1.5,5.5l-0.2,0.1l-3.2,2.3l-5.7,3.3
			l-0.6,0.2l0,0l-0.3,0.2l-4.8,4l-2.8,6.3l0.3,3.1v1.9l0.8,0.8l7.6-1l4.3-0.5l0,0l0,0l0,0v-0.1v-0.1l0,0l0,0l0,0l0,0l0,0l0,0
			l8.8-1.2h0.2h0.2h0.1h0.1l0,0l0,0l0,0l0,0l0,0l0,0l0,0l0,0l0,0l0,0l0,0l0,0l0,0l0,0l0,0v0.1v-0.1l0,0l-0.1-0.1v-0.1l0,0l0,0l0,0
			l0,0l0,0l0,0l0,0l1-0.3l2.2-0.4l2.5-2.7l0.3-3.8l-5.5-3.6l-2.5-3.5l0,0l-0.7-6.1l-0.5-5.4l-0.6-5.2l2.1-5.9l2-2l3.9-2.1l1-0.3
			l4.2-0.9l4.2,0.6l7.5-1.3l3.4-4.3l3.1-4.2l8.1-2.8l6.3,1.7l3.4-0.9l3.9-1.6l1.5-0.7l2.1-0.3l3.5-0.7l6,0.5l4.4-0.1l2-1.1l5.4-1.2
			l0.6-0.2l2.7-1.2l1.7-0.8l3.2-1.6l2.9-0.8l6.2-0.3l1.8,0.1l3-0.6l4.6,0.6l3.5,0.9l1.7-2.1l5-1.9l3.2-0.7l2.5-2.8l1.2-4.7l-1.9-3.7
			l-0.4-2.5l3.6-7.4l4.2-7.6l3.5-0.8l2.9-1l8.2-2.5l10.6-2.9l8.5-1.6l2.3-0.5l6.6-1.4l11.6,0.7l5.7,1.5l5.6,1.6l9.2,3l6.5,2.1
			l5.7,1.4l10.2,2.1l11.3,3.1l10,2.7l9.1,2.5l2,0.6l6.9,1.8l6.1,2.2l1.5,0.6l2.7,0.8l6.4,1.1l2.6,0.7l2.4,0.7l3,0.8l3.1,0.8l4.9,1.3
			l2.3,0.6l3.5,0.9l7.1,2.1l6,2l1.6,0.4l7.6-0.7l9.5-1.9l10.8-3.1l10-4.1l10.1-4.6l10.6-5l10.7-5l5.7-2.6l1.4-0.6l6.3-0.8l9.8-1.9
			l9.1-6.6l8.2-4.7l7.5-4.3l2.1-1.5l7-3.8l3-1.5l3.8-2.5l3.3-1.8l1.5-0.9l0.8-0.6l0.6-0.3l1.2-0.7l2.9-1.4l6.9-4.2l9.9-5l9.7-3
			l8.9-3l5.2-1.6h0.1l2.1-0.9l3.7-1.2l1.2,1.8l0.1,0.7l3.2,3.4l1.3,1.1v0.1l0.2,0.2l3.5,3.6l2,7.6l2.7,4.9l0.9,4.5l0.2,0.3l0.1,0.9
			l0.1-0.1l0,0l0.2-0.2l-1.3-5.2l-3.3-7l-2.1-6.6l-0.1-0.1v-0.1l0,0l0,0l0,0l-0.6-0.6l-0.1-0.7l0,0l0,0l0,0l0,0l0,0l0,0l0,0l0,0l0,0
			l0,0l0,0l0,0l0,0l0,0l0,0l0,0l0,0l0,0l0,0l0,0l0,0h0.1l0,0l0,0l0,0l0,0l0,0l0,0l0,0l-0.8-0.8l-0.3-0.2l-0.2-0.3l-1-0.5l-3.3-2.9
			l0,0l-0.2-0.3l-2.6,1.2l-4,0.8l-2.1-3.4l-3.9,1l-3.1,0.9l-2.1,0.7l-5.4,1.9l-9.6,3.1l-8.4,4.4l-4.3,2.4l-5.2,2.8l-5.4,3.2
			l-2.4,1.3l-3.7,2.2l-1.7,1l-5.5,3.2l-3.8,2.1l-1.9,1.1l-4.7,2.7l-2.9,1.7l-6.6,3.9l-4.9,4.1l-7.3,4.4l-9.8,1.4l-6.2,1.4l-6.1,2.8
			l-8.2,3.8l-10.2,4.8l-9.4,4.4l-9.4,4.1l-11.6,3.8l-11.7,2.2l-7.6,0.2l-1.4-0.4l-4-1.2l-7-1.5l-5.6-1.6l-4.7-1.3l-4.9-1.4l-3.2-0.8
			l-7.8-2.1l-5.6-1.7l-1.9-0.4l-8.3-2.3l-5.4-1.6l-2.4-0.6l-8-2.2l-4.3-1.3l-5-1.2l-8.9-2.5l-9.2-3.1l-4.9-1.5l-4.7-1.4l-3.4-0.5
			l-7.2-1.3l-8.7-2.3l-4.6-1.3l-5.2-1.2l-9-0.8l-6.1-0.2l-3,0.5l-1.1,0.2l-0.3,0.1l-3,0.7l-6.4,2.4l-4.6,1.3l-9.1,2.5l-8.8,1.9
			l-4.8,1.5l0.3,3.6l-1.3,2.6l-2.1,4.2l-1.5,3.2l-1.3,2.2l1.1,2.9l1.2,2.4l-0.6,4.5l-0.3,0.9l-4.5,3.1H444l-3.9,2.7l-3,1l-2.4-0.6
			l-2.2-0.9l-3.7,0.9l-2.6-0.1h-5.3l-3.2,0.7l-4.4,1.9l-1.8,1l-7.3,2.1l-1.9,0.7l-5.4,0.8l-2.2-0.5l-6.3,0.1l-0.4,0.1l-4.1,1.3
			l-5.5,2.1l-1.4,0.4l-2.8,0.2l-5.3-1.4l-0.9,0.3l-5.8,1.8l-2.7,2.6l0,0l-1.3,2.4l-0.9,1.2l-1.9,2.4l-5.2,1.9l-4.8-0.6H342l-1.2,0.3
			l-1.2,0.4l-2.7,0.8l-1.2,0.7l-1,0.6l-1.2,0.8l-0.9,1.1l-0.9,1.5h-0.1l0,0l-1.5,3.8l0.5,5.2l0.4,3.4l-0.7,2.9l-3,2.7l-5.4,3.7
			l-0.9,0.4l-0.5,0.3l-0.9,0.4l-5.1,4.2l-2.1,2.9l-0.6,3.3l0.3,2.4v2.6l0,0l0,0l0,0l4.2,0.3l7-1l3.4-0.6l0.8-0.1l4.3-0.6l1.9-0.2
			v-0.1l0.5-0.1l0,0l0,0l0,0l0,0l0,0l0,0l0,0l0,0l0,0l0,0l0,0l0,0l0,0l0,0l0,0l0,0l0,0l0,0l0,0l0,0l0,0l0,0l0,0l0,0l0,0l0,0l0,0
			v-0.1l0,0h0.1l0,0l0.6-0.1l4.7-0.8l0.5-6l-3.8-3.1l-2-1l-2-3l-0.1-0.5l-0.4-3.9l-0.3-2.4l-0.5-4.1l-0.7-6.2l0.9-3.6l3.1-4.1
			l2.3-1.4l2.1-0.6l2-0.7l1-0.3h3.6l2.3,0.3v0.1l4.3,0.4l3.4-2l2.7-3.6l1.1-2.2l5.5-3.9l4.3-1.1l5.1,1.5l4.4-0.7l4.7-1.8l3.8-1.1
			l3.5-0.8l6.9,0.7l4-0.6l1.9-1.1l2.6-0.5l0.8-0.2l0,0l0,0l0,0l1.3-0.3l0.2-0.1v0.1l0,0l0,0l4-1.7l1.3-0.6l4-1.8l4.2-0.9l4.8,0.2
			l3.8-0.6l6.1,1.1l2.9,0.6l3.5-4.1l5.8-0.8l2.2-2.9l1.2-3.8l-1.3-3l-1.1-2.5l2-5.6l2.5-5.1l3.6-5.7l4.2-1.2l6.4-2.1l10-2.8l4.9-1.3
			l6.8-1.4l2.1-0.3l4.9-1.4l8.8-0.2l9.6,1.7l1.2,0.4l4.5,1.2l8.3,2.3l8,2.9l1,0.4l0.7,0.1l5.9,1.5l7.9,2.2l4.6,1.2l6.2,1.7l5.3,1.5
			l2.8,0.8l2.4,0.5l1.9,0.1l1,0.2l0.8,0.2l1.8,0.3l1.5,0.5l0.9,0.3l0.8,0.2l1.8,0.4l1.1,0.4l1.3,0.3l2.4,0.7l1.7,0.5l1.1,0.4
			l2.8,0.7l4.1,1.4l1,0.5l0.9,0.3l2.2,0.6l2.6,0.8l1.5,0.4l0.9,0.1l0.7-0.1h1l2.5,0.7l1,0.3l2.5,0.7l2.9,0.8l2.1,0.5l6.4,1.8
			l1.6,0.4l2.6,0.7l7.1,2.1l6.2,2.1l6.1,0.3l4.6-0.7l6.8-1.4l10.3-2.9l8.8-3.2l9.6-4.5l9.6-4.6l11.9-5.6l9.4-4l2.5-0.7l6.6-0.8
			l10-2.7l6.1-4.7l6.8-4.1l6.2-3.5l4.1-2.3l0.2-0.2l3.4-2l4.1-2.2l4.2-2.4l0.2-0.2l2.6-1.4l1.9-1.1l4.3-2.5l5-2.8l7-4l2.7-1.7
			l9.4-4.1l5.6-1.7l5.3-1.7l5.2-1.6l2.8-1l2.1-0.7l0.4-0.1l1.5-0.5l4.2-1.4l0.7-0.1l1,1.2l0.1,0.8l1.8,3.3l2,1l0,0l3,2.8l3.3,8.6
			l3.5,9.1l0.7,2.1l0,0l-0.5-1.8l-2.6-7.2l-2.1-7.4l-2.7-4.5l-0.1-0.1v-0.1l0,0l0,0l0,0l0,0l0,0l0,0l0,0l0,0l0,0l0,0l0,0l0,0
			l-0.2-0.2l-0.4-0.4l-0.3-0.3l-0.2-0.3l-0.2-0.2l-3.7-2.1l-1-1.6l-0.3,0.1l-4,1.8l-2.9-2.6l-2.5-0.3l-4.7,1.4l-8.3,2.7l-10.7,3.6
			l-6.2,3.3l-5,2.8l-6.9,3.8l-4.8,2.8l-2.7,1.5l-3.5,2l-1.8,1.1l-7.3,4.1l-1.9,1l-5.4,3.1l-2,1.2l-5.7,3.4l-7,5.3l-7.8,4.8
			l-10.1,1.5l-8.2,2.4l-7.7,3.6l-8.9,4.1l-6.7,3.1l-5.7,2.8l-7.2,3.3l-7.5,3l-8.7,2.6l-7.6,1.6l-5.9,0.9l-6.1-0.1l-1.6-0.8l-4.4-1
			l-6.1-1.4l-4.5-1.2l-6.2-1.7l-4.3-1.1l-6.3-1.7l-2.7-0.7l-5.8-1.5l-2.4-0.7l-6.4-1.7l-8.2-2.3l-1.3-0.3l-5.3-1.6l-7.6-2.2
			l-1.2-0.3l-7-1.9l-9.4-2.6l-8.2-3l-5.1-1.4l-2.3-0.7l-5.5-1.5l-8.6-1.6l-8.6-2.4l-1.4-0.4l-5.9-1.2l-5.9-0.6l-5.1-0.6l-4.5,0.5
			l-0.8,0.1h-0.2l-0.9,0.2l-0.7,0.1h-0.1l0,0l-3.6,0.9l-7.7,2.7l-9.9,2.7l-10.6,2.4l-5.1,1.2l0.4,3.8l-0.4,0.7l-1.7,3.3l-2.1,4.3
			l-2.1,3.9l1.2,2.8l0.8,1.5l-0.2,5.3l-1.1,2.1l-4.1,2.1l-4.8,0.9l-2.7,3.1l-2.5-0.4l-3.5-1.4l-3.9,1l-2.5-0.2l-6.3,0.2l-2.4,0.6
			l-2.6,1.3l-1.2,0.5l-1,0.5l0,0l-0.9,0.5l-3.9,1.4l-5.2,1.3l-2.8,1.3l-4.4-0.7l-6-0.1l-1.8,0.4l-3.7,1.2l-5,2l-3.2,0.8l-6.7-1.5
			l-8.2,3.5l-2.6,3.8l-2.6,3.4l-3.6,2l-9.5-0.9l-2.2,0.6l-2.7,0.5l-2,1.3l-1,0.6l-1.8,1.7l-1.8,3.4l0,0l-0.3,0.4l0.3,7l-1.3,7.4
			l-0.8,0.6l-0.5,0.3l-5,3.6l-1.2,0.9l-4.9,2.6l-1.2,1.1l-1.4,1.7l-2.4,6.8l0.1,4.3v0.1l0,0v0.1l4.8,0.1l8-1.2l1.8-0.3l4.3-0.7
			l3.2-0.3v0.1l0,0l0,0l0,0h0.1l0,0l0,0l0,0l0,0l0,0l0,0v0.1l0,0l0,0l0,0l0,0l0,0v-0.1l0,0l0,0l0,0l0,0l0,0l0,0l0,0l0,0h0.1l0,0l0,0
			l0,0l0,0l0,0v0.1l0,0l0,0l0,0l0,0v0.1l1-0.3h0.2l0.8-0.1l0,0l0.2-0.1l3.1-1l0.1-6.2l-6.4-3.9l-1.8-9.7l-0.4-4.9L331,354l2.7-6.2
			l1.3-0.9l3.2-1.8l2.6-0.9l1.5-0.4l0.3-0.1l4.1,0.4l3.8,0.6l5.3-2l3.1-4.2l3.5-4.3l8.1-2.5l3.4,1.6l7.2-1l6.1-2.2l1.5-0.7l6.9,0.2
			l7.1-0.9l4.2-1l1.7-0.3l1.2-0.5l2.8-1.4l5-2.3l8.2-0.6l4.4-0.5l5.2,0.9l4.4-0.5l4.8-2.9l5.5-2.6l1.4-3.1l-1.6-6.4l2.8-8.8l3.1-6.1
			l4.2-3l8.9-2.9l11.5-3.1l9.6-2l2.6-0.5l3.7-1.1l9.5-0.4l10.3,1.9l3.9,1l7.9,2.1l9.4,3.3l2.6,0.7l8.4,2.2l7.6,1.4l10.9,3l10.8,3
			l8.3,2.3l6.4,1.7l3.7,1l5.3,1.5l6.8,1.8l10.7,2.9l8.9,2.5l10.9,3.1l7.2,2.4l8.1-0.4l10.6-2.2l12.5-3.9l12.3-5.3l11.6-5.4l11.5-5.3
			l9.8-4.5l8.6-1.3l10.8-3.1l3.8-2.9l6.4-4.5l6.5-3.6l5.6-3.1l1.7-1l5.1-2.8l2.4-1.4l3.3-1.9l4.1-2.3l1.9-1.1l5.8-3.3l7-3.9l2.9-1.7
			l6.7-3.6l9.2-3.3l8.8-2.8l7.1-2.3l2-0.7l4.3-1.5l2.1,1.8l1.6,3.1l0.6,0.4l1.6,0.9l0,0l0,0l0,0l0,0l0,0v0.1l0,0l1.9,1.7l3.4,4.7
			l2,7.1l2.6,7.7l0.5,1.2l0,0l0,0l0,0l0.1-0.4l-1.9-6.3l-3-7.6l-2.9-5.9l-0.3-0.9h-0.1l0,0l0,0l0,0l0,0l0,0l0,0l0,0h-0.1h-0.1l0,0
			l0,0l0,0l0,0l0,0l0,0l0,0l-0.2-0.2l-0.6-0.8l-0.1-0.2l-0.2-0.2l0,0l0,0H843l0,0h0.1l-0.7-0.4l-2.6-1.4l-3.2-0.9l-4.8,0.5l-2-2.7
			l-4.8,1.1l-8.6,2.9l-11.9,4l-9.5,5l-4.5,2.7l0,0l0,0l0,0l0,0l0,0l0,0l0,0l0,0l0,0l0,0l0,0l0,0l0,0l0,0l0,0l0,0h-0.1l0,0l0,0l0,0
			l0,0l0,0l0,0l0,0l0,0l0,0v0.1"/>
	</g>
	<g transform="matrix(0.999751,0,0,0.999751,0,0)">
	</g>
	<g transform="matrix(11.8081,0,0,11.8081,0,0)">
	</g>
	<g transform="matrix(11.8081,0,0,11.8081,0,0)">
	</g>
	<g transform="matrix(11.8081,0,0,11.8081,0,0)">
	</g>
	<g transform="matrix(1,0,0,1,0,0)">
	</g>
	<g transform="matrix(11.8081,0,0,11.8081,0,0)">
	</g>
	<g transform="matrix(11.8081,0,0,11.8081,0,0)">
	</g>
	<g transform="matrix(1,0,0,1,0,0)">
	</g>
</g>
<g id="Map_1:_fogo_x5F_20230927" inkscape:label="Map 1: fogo_20230927" inkscape:groupmode="layer">
	<g transform="matrix(1,0,0,1,0,0)">
	</g>
	<g transform="matrix(1,0,0,1,0,0)">
	</g>
	<g transform="matrix(11.8081,0,0,11.8081,0,0)">
	</g>
	<g transform="matrix(11.8081,0,0,11.8081,0,0)">
	</g>
	<g transform="matrix(0.999751,0,0,0.999751,0,0)">
	</g>
	<g transform="matrix(0.999751,0,0,0.999751,0,0)">
		<path vector-effect="none" class="st1" d="M504.2,595c0,3.1-2.5,5.7-5.7,5.7s-5.7-2.5-5.7-5.7c0-3.1,2.5-5.7,5.7-5.7
			S504.2,591.9,504.2,595"/>
	</g>
	<g transform="matrix(0.999751,0,0,0.999751,0,0)">
		<path vector-effect="non-scaling-stroke" class="st2" d="M504.5,589l-12,12 M504.5,601l-12-12"/>
	</g>
	<g transform="matrix(0.999751,0,0,0.999751,0,0)">
		<path vector-effect="none" class="st1" d="M838,392.8c0,3.1-2.5,5.7-5.7,5.7c-3.1,0-5.7-2.5-5.7-5.7s2.5-5.7,5.7-5.7
			C835.4,387.1,838,389.7,838,392.8"/>
	</g>
	<g transform="matrix(0.999751,0,0,0.999751,0,0)">
		<path vector-effect="non-scaling-stroke" class="st2" d="M826.3,386.8l12,12 M838.3,386.8l-12,12"/>
	</g>
	<g transform="matrix(0.999751,0,0,0.999751,0,0)">
		<path vector-effect="none" class="st1" d="M796.7,208.8c0,3.1-2.5,5.7-5.7,5.7c-3.1,0-5.7-2.5-5.7-5.7c0-3.1,2.5-5.7,5.7-5.7
			S796.7,205.6,796.7,208.8"/>
	</g>
	<g transform="matrix(0.999751,0,0,0.999751,0,0)">
		<path vector-effect="non-scaling-stroke" class="st2" d="M785.1,202.8l12,12 M797.1,202.8l-12,12"/>
	</g>
	<g transform="matrix(0.999751,0,0,0.999751,0,0)">
		<path vector-effect="none" class="st1" d="M873.7,305.3c0,3.1-2.5,5.7-5.7,5.7c-3.1,0-5.7-2.5-5.7-5.7c0-3.1,2.5-5.7,5.7-5.7
			C871.2,299.6,873.7,302.1,873.7,305.3"/>
	</g>
	<g transform="matrix(0.999751,0,0,0.999751,0,0)">
		<path vector-effect="non-scaling-stroke" class="st2" d="M861.9,299.3l12,12 M874,299.2l-12,12"/>
	</g>
	<g transform="matrix(0.999751,0,0,0.999751,0,0)">
		<path vector-effect="none" class="st1" d="M778,266.2c0,3.1-2.5,5.7-5.7,5.7s-5.7-2.5-5.7-5.7s2.5-5.7,5.7-5.7
			S778,263.1,778,266.2"/>
	</g>
	<g transform="matrix(0.999751,0,0,0.999751,0,0)">
		<path vector-effect="non-scaling-stroke" class="st2" d="M766.3,260.2l12,12 M778.3,260.2l-12,12"/>
	</g>
	<g transform="matrix(0.999751,0,0,0.999751,0,0)">
	</g>
	<g transform="matrix(11.8081,0,0,11.8081,0,0)">
	</g>
	<g transform="matrix(11.8081,0,0,11.8081,0,0)">
	</g>
	<g transform="matrix(11.8081,0,0,11.8081,0,0)">
	</g>
	<g transform="matrix(1,0,0,1,0,0)">
	</g>
	<g transform="matrix(11.8081,0,0,11.8081,0,0)">
	</g>
	<g transform="matrix(11.8081,0,0,11.8081,0,0)">
	</g>
	<g transform="matrix(1,0,0,1,0,0)">
	</g>
</g>
<g id="Map_1:_br_x5F_clip_x5F__x5F_geoname__x28_Labels_x29_" inkscape:label="Map 1: br_clip__geoname (Labels)" inkscape:groupmode="layer">
	<g transform="matrix(1,0,0,1,0,0)">
	</g>
	<g transform="matrix(1,0,0,1,0,0)">
	</g>
	<g transform="matrix(11.8081,0,0,11.8081,0,0)">
	</g>
	<g transform="matrix(11.8081,0,0,11.8081,0,0)">
	</g>
	<g transform="matrix(0.999751,0,0,0.999751,0,0)">
	</g>
	<g transform="matrix(0.999751,0,0,0.999751,0,0)">
	</g>
	<g transform="matrix(0.999751,0,0,0.999751,870.288,1223.75)">
		<text transform="matrix(1.0002 0 0 1.0002 -506.3263 -847.0311)" class="st3 st4">Senador Vasconcelos</text>
	</g>
	<g transform="matrix(0.999751,0,0,0.999751,0,0)">
	</g>
	<g transform="matrix(0.999751,0,0,0.999751,2752.94,353.36)">
		<text transform="matrix(1.0002 0 0 1.0002 -1937.4987 -185.3698)" class="st3 st4">Baixada Fluminense</text>
	</g>
	<g transform="matrix(0.999751,0,0,0.999751,0,0)">
	</g>
	<g transform="matrix(0.999751,0,0,0.999751,0,0)">
	</g>
	<g transform="matrix(0.999751,0,0,0.999751,2248.73,1148.05)">
		<text transform="matrix(1.0002 0 0 1.0002 -1554.203 -789.4847)" class="st3 st4">Campo dos Afonsos</text>
	</g>
	<g transform="matrix(0.999751,0,0,0.999751,0,0)">
	</g>
	<g transform="matrix(0.999751,0,0,0.999751,0,0)">
	</g>
	<g transform="matrix(0.999751,0,0,0.999751,0,0)">
	</g>
	<g transform="matrix(0.999751,0,0,0.999751,0,0)">
	</g>
	<g transform="matrix(0.999751,0,0,0.999751,2073.44,1100.66)">
		<text transform="matrix(1.0002 0 0 1.0002 -1420.9491 -753.4598)" class="st3 st4">Magalhaes Bastos</text>
	</g>
	<g transform="matrix(0.999751,0,0,0.999751,0,0)">
	</g>
	<g transform="matrix(0.999751,0,0,0.999751,2501.43,364.083)">
		<text transform="matrix(1.0002 0 0 1.0002 -1746.3032 -193.5211)" class="st3 st4">Sao Joao de Meriti</text>
	</g>
	<g transform="matrix(0.999751,0,0,0.999751,0,0)">
	</g>
	<g transform="matrix(0.999751,0,0,0.999751,2478.58,1011.71)">
		<text transform="matrix(1.0002 0 0 1.0002 -1728.9325 -685.8401)" class="st3 st4">Marechal Hermes</text>
	</g>
	<g transform="matrix(0.999751,0,0,0.999751,0,0)">
	</g>
	<g transform="matrix(0.999751,0,0,0.999751,2802.95,488.696)">
		<text transform="matrix(1.0002 0 0 1.0002 -1975.5151 -288.251)" class="st3 st4">Parque Columbia</text>
	</g>
	<g transform="matrix(0.999751,0,0,0.999751,0,0)">
	</g>
	<g transform="matrix(0.999751,0,0,0.999751,0,0)">
	</g>
	<g transform="matrix(0.999751,0,0,0.999751,1502.88,2265.48)">
		<text transform="matrix(1.0002 0 0 1.0002 -987.2157 -1638.9436)" class="st3 st4">Vardem Pequena</text>
	</g>
	<g transform="matrix(0.999751,0,0,0.999751,0,0)">
	</g>
	<g transform="matrix(0.999751,0,0,0.999751,1362.83,1069.12)">
		<text transform="matrix(1.0002 0 0 1.0002 -880.7515 -729.4831)" class="st3 st4">Senador Camara</text>
	</g>
	<g transform="matrix(0.999751,0,0,0.999751,0,0)">
	</g>
	<g transform="matrix(0.999751,0,0,0.999751,1493.45,2148.96)">
		<text transform="matrix(1.0002 0 0 1.0002 -980.0475 -1550.3663)" class="st3 st4">Vargem Pequena</text>
	</g>
	<g transform="matrix(0.999751,0,0,0.999751,0,0)">
	</g>
	<g transform="matrix(0.999751,0,0,0.999751,0,0)">
	</g>
	<g transform="matrix(0.999751,0,0,0.999751,2077.47,579.876)">
		<text transform="matrix(1.0002 0 0 1.0002 -1424.0131 -357.5649)" class="st3 st4">Parque Anchieta</text>
	</g>
	<g transform="matrix(0.999751,0,0,0.999751,0,0)">
	</g>
	<g transform="matrix(0.999751,0,0,0.999751,0,0)">
	</g>
	<g transform="matrix(0.999751,0,0,0.999751,2935.99,1177.27)">
		<text transform="matrix(1.0002 0 0 1.0002 -2076.6516 -811.6976)" class="st3 st4">Engenheiro Leal</text>
	</g>
	<g transform="matrix(0.999751,0,0,0.999751,0,0)">
	</g>
	<g transform="matrix(0.999751,0,0,0.999751,0,0)">
	</g>
	<g transform="matrix(0.999751,0,0,0.999751,0,0)">
	</g>
	<g transform="matrix(0.999751,0,0,0.999751,1329.83,2049.25)">
		<text transform="matrix(1.0002 0 0 1.0002 -855.6652 -1474.5671)" class="st3 st4">Vardem Grande</text>
	</g>
	<g transform="matrix(0.999751,0,0,0.999751,0,0)">
	</g>
	<g transform="matrix(0.999751,0,0,0.999751,1219.45,2097.82)">
		<text transform="matrix(1.0002 0 0 1.0002 -771.7545 -1511.4902)" class="st3 st4">Vargem Grande</text>
	</g>
	<g transform="matrix(0.999751,0,0,0.999751,0,0)">
	</g>
	<g transform="matrix(0.999751,0,0,0.999751,2732.49,887.841)">
		<text transform="matrix(1.0002 0 0 1.0002 -1921.952 -591.6766)" class="st3 st4">Rocha Miranda</text>
	</g>
	<g transform="matrix(0.999751,0,0,0.999751,0,0)">
	</g>
	<g transform="matrix(0.999751,0,0,0.999751,0,0)">
	</g>
	<g transform="matrix(0.999751,0,0,0.999751,0,0)">
	</g>
	<g transform="matrix(0.999751,0,0,0.999751,2666.08,795.385)">
		<text transform="matrix(1.0002 0 0 1.0002 -1871.469 -521.3926)" class="st3 st4">Honorio Gurgel</text>
	</g>
	<g transform="matrix(0.999751,0,0,0.999751,0,0)">
	</g>
	<g transform="matrix(0.999751,0,0,0.999751,454.409,1238.44)">
		<text transform="matrix(1.0002 0 0 1.0002 -190.1791 -858.1984)" class="st3 st4">Campo Grande</text>
	</g>
	<g transform="matrix(0.999751,0,0,0.999751,0,0)">
	</g>
	<g transform="matrix(0.999751,0,0,0.999751,0,0)">
	</g>
	<g transform="matrix(0.999751,0,0,0.999751,2491.86,1228.98)">
		<text transform="matrix(1.0002 0 0 1.0002 -1739.0276 -851.0071)" class="st3 st4">Vila Valqueire</text>
	</g>
	<g transform="matrix(0.999751,0,0,0.999751,0,0)">
	</g>
	<g transform="matrix(0.999751,0,0,0.999751,2579.34,1049.96)">
		<text transform="matrix(1.0002 0 0 1.0002 -1805.5289 -714.9181)" class="st3 st4">Bento Ribeiro</text>
	</g>
	<g transform="matrix(0.999751,0,0,0.999751,0,0)">
	</g>
	<g transform="matrix(0.999751,0,0,0.999751,1766.36,1121.44)">
		<text transform="matrix(1.0002 0 0 1.0002 -1187.5101 -769.2563)" class="st3 st4">Padre Miguel</text>
	</g>
	<g transform="matrix(0.999751,0,0,0.999751,0,0)">
	</g>
	<g transform="matrix(0.999751,0,0,0.999751,2714.37,1116.2)">
		<text transform="matrix(1.0002 0 0 1.0002 -1908.1783 -765.2726)" class="st3 st4">Osvaldo Cruz</text>
	</g>
	<g transform="matrix(0.999751,0,0,0.999751,0,0)">
	</g>
	<g transform="matrix(0.999751,0,0,0.999751,0,0)">
	</g>
	<g transform="matrix(0.999751,0,0,0.999751,0,0)">
	</g>
	<g transform="matrix(0.999751,0,0,0.999751,2536.58,585.857)">
		<text transform="matrix(1.0002 0 0 1.0002 -1773.0236 -362.1115)" class="st3 st4">Costa Barros</text>
	</g>
	<g transform="matrix(0.999751,0,0,0.999751,0,0)">
	</g>
	<g transform="matrix(0.999751,0,0,0.999751,0,0)">
	</g>
	<g transform="matrix(0.999751,0,0,0.999751,0,0)">
	</g>
	<g transform="matrix(0.999751,0,0,0.999751,2543.55,651.408)">
		<text transform="matrix(1.0002 0 0 1.0002 -1778.322 -411.9431)" class="st3 st4">Barros Filho</text>
	</g>
	<g transform="matrix(0.999751,0,0,0.999751,0,0)">
	</g>
	<g transform="matrix(0.999751,0,0,0.999751,2705.79,700.397)">
		<text transform="matrix(1.0002 0 0 1.0002 -1901.6553 -449.1839)" class="st3 st4">Coelho Neto</text>
	</g>
	<g transform="matrix(0.999751,0,0,0.999751,0,0)">
	</g>
	<g transform="matrix(0.999751,0,0,0.999751,0,0)">
	</g>
	<g transform="matrix(0.999751,0,0,0.999751,1109.89,1031.16)">
		<text transform="matrix(1.0002 0 0 1.0002 -688.4688 -700.6263)" class="st3 st4">Santissimo</text>
	</g>
	<g transform="matrix(0.999751,0,0,0.999751,0,0)">
	</g>
	<g transform="matrix(0.999751,0,0,0.999751,2258.02,964.871)">
		<text transform="matrix(1.0002 0 0 1.0002 -1561.2653 -650.2344)" class="st3 st4">Vila Militar</text>
	</g>
	<g transform="matrix(0.999751,0,0,0.999751,0,0)">
	</g>
	<g transform="matrix(0.999751,0,0,0.999751,2707.92,1393.68)">
		<text transform="matrix(1.0002 0 0 1.0002 -1903.2748 -976.2111)" class="st3 st4">Praca Seca</text>
	</g>
	<g transform="matrix(0.999751,0,0,0.999751,0,0)">
	</g>
	<g transform="matrix(0.999751,0,0,0.999751,2515.54,758.593)">
		<text transform="matrix(1.0002 0 0 1.0002 -1757.0293 -493.4237)" class="st3 st4">Guadalupe</text>
	</g>
	<g transform="matrix(0.999751,0,0,0.999751,0,0)">
	</g>
	<g transform="matrix(0.999751,0,0,0.999751,3037.09,1121.41)">
		<text transform="matrix(1.0002 0 0 1.0002 -2153.5063 -769.2338)" class="st3 st4">Cavalcanti</text>
	</g>
	<g transform="matrix(0.999751,0,0,0.999751,0,0)">
	</g>
	<g transform="matrix(0.999751,0,0,0.999751,2882.79,1272.16)">
		<text transform="matrix(1.0002 0 0 1.0002 -2036.2092 -883.8321)" class="st3 st4">Cascadura</text>
	</g>
	<g transform="matrix(0.999751,0,0,0.999751,0,0)">
	</g>
	<g transform="matrix(0.999751,0,0,0.999751,0,0)">
	</g>
	<g transform="matrix(0.999751,0,0,0.999751,0,0)">
	</g>
	<g transform="matrix(0.999751,0,0,0.999751,2705.15,1244.88)">
		<text transform="matrix(1.0002 0 0 1.0002 -1901.1693 -863.0947)" class="st3 st4">Campinho</text>
	</g>
	<g transform="matrix(0.999751,0,0,0.999751,0,0)">
	</g>
	<g transform="matrix(0.999751,0,0,0.999751,2800.47,1203.15)">
		<text transform="matrix(1.0002 0 0 1.0002 -1973.6294 -831.3715)" class="st3 st4">Madureira</text>
	</g>
	<g transform="matrix(0.999751,0,0,0.999751,0,0)">
	</g>
	<g transform="matrix(0.999751,0,0,0.999751,0,0)">
	</g>
	<g transform="matrix(0.999751,0,0,0.999751,0,0)">
	</g>
	<g transform="matrix(0.999751,0,0,0.999751,0,0)">
	</g>
	<g transform="matrix(0.999751,0,0,0.999751,0,0)">
	</g>
	<g transform="matrix(0.999751,0,0,0.999751,0,0)">
	</g>
	<g transform="matrix(0.999751,0,0,0.999751,245.909,1277.48)">
		<text transform="matrix(1.0002 0 0 1.0002 -31.6796 -887.8766)" class="st3 st4">Inhoaiba</text>
	</g>
	<g transform="matrix(0.999751,0,0,0.999751,0,0)">
	</g>
	<g transform="matrix(0.999751,0,0,0.999751,2316.44,562.746)">
		<text transform="matrix(1.0002 0 0 1.0002 -1605.6748 -344.543)" class="st3 st4">Anchieta</text>
	</g>
	<g transform="matrix(0.999751,0,0,0.999751,0,0)">
	</g>
	<g transform="matrix(0.999751,0,0,0.999751,2150.64,373.327)">
		<text transform="matrix(1.0002 0 0 1.0002 -1479.6354 -200.5486)" class="st3 st4">Nilopolis</text>
	</g>
	<g transform="matrix(0.999751,0,0,0.999751,0,0)">
	</g>
	<g transform="matrix(0.999751,0,0,0.999751,0,0)">
	</g>
	<g transform="matrix(0.999751,0,0,0.999751,0,0)">
	</g>
	<g transform="matrix(0.999751,0,0,0.999751,2932.78,951.949)">
		<text transform="matrix(1.0002 0 0 1.0002 -2074.2107 -640.411)" class="st3 st4">Vaz Lobo</text>
	</g>
	<g transform="matrix(0.999751,0,0,0.999751,0,0)">
	</g>
	<g transform="matrix(0.999751,0,0,0.999751,0,0)">
	</g>
	<g transform="matrix(0.999751,0,0,0.999751,1477.98,729.514)">
		<text transform="matrix(1.0002 0 0 1.0002 -968.2875 -471.3182)" class="st3 st4">Gericino</text>
	</g>
	<g transform="matrix(0.999751,0,0,0.999751,0,0)">
	</g>
	<g transform="matrix(0.999751,0,0,0.999751,0,0)">
	</g>
	<g transform="matrix(0.999751,0,0,0.999751,0,0)">
	</g>
	<g transform="matrix(0.999751,0,0,0.999751,120.864,1303.91)">
		<text transform="matrix(1.0002 0 0 1.0002 63.3788 -907.968)" class="st3 st4">Cosmos</text>
	</g>
	<g transform="matrix(0.999751,0,0,0.999751,0,0)">
	</g>
	<g transform="matrix(0.999751,0,0,0.999751,0,0)">
	</g>
	<g transform="matrix(0.999751,0,0,0.999751,2713.49,432.822)">
		<text transform="matrix(1.0002 0 0 1.0002 -1907.5089 -245.7765)" class="st3 st4">Pavuna</text>
	</g>
	<g transform="matrix(0.999751,0,0,0.999751,0,0)">
	</g>
	<g transform="matrix(0.999751,0,0,0.999751,2903.11,822.861)">
		<text transform="matrix(1.0002 0 0 1.0002 -2051.6563 -542.28)" class="st3 st4">Colegio</text>
	</g>
	<g transform="matrix(0.999751,0,0,0.999751,0,0)">
	</g>
	<g transform="matrix(0.999751,0,0,0.999751,2839.06,991.48)">
		<text transform="matrix(1.0002 0 0 1.0002 -2002.9661 -670.4626)" class="st3 st4">Turiaca</text>
	</g>
	<g transform="matrix(0.999751,0,0,0.999751,0,0)">
	</g>
	<g transform="matrix(0.999751,0,0,0.999751,1316.36,1757.85)">
		<text transform="matrix(1.0002 0 0 1.0002 -845.425 -1253.0496)" class="st3 st4">Melado</text>
	</g>
	<g transform="matrix(0.999751,0,0,0.999751,0,0)">
	</g>
	<g transform="matrix(0.999751,0,0,0.999751,0,0)">
	</g>
	<g transform="matrix(0.999751,0,0,0.999751,0,0)">
	</g>
	<g transform="matrix(0.999751,0,0,0.999751,1569.39,1100.27)">
		<text transform="matrix(1.0002 0 0 1.0002 -1037.7764 -753.1634)" class="st3 st4">Bangu</text>
	</g>
	<g transform="matrix(0.999751,0,0,0.999751,0,0)">
	</g>
	<g transform="matrix(0.999751,0,0,0.999751,2861.04,604.861)">
		<text transform="matrix(1.0002 0 0 1.0002 -2019.6748 -376.5581)" class="st3 st4">Acari</text>
	</g>
	<g transform="matrix(0.999751,0,0,0.999751,0,0)">
	</g>
	<g transform="matrix(0.999751,0,0,0.999751,3050.15,778.076)">
		<text transform="matrix(1.0002 0 0 1.0002 -2163.4348 -508.2351)" class="st3 st4">Iraja</text>
	</g>
	<g transform="matrix(0.999751,0,0,0.999751,0,0)">
	</g>
	<g transform="matrix(0.999751,0,0,0.999751,0,0)">
	</g>
	<g transform="matrix(0.999751,0,0,0.999751,0,0)">
	</g>
	<g transform="matrix(11.8081,0,0,11.8081,0,0)">
	</g>
	<g transform="matrix(11.8081,0,0,11.8081,0,0)">
	</g>
	<g transform="matrix(11.8081,0,0,11.8081,0,0)">
	</g>
	<g transform="matrix(1,0,0,1,0,0)">
	</g>
	<g transform="matrix(11.8081,0,0,11.8081,0,0)">
	</g>
	<g transform="matrix(11.8081,0,0,11.8081,0,0)">
	</g>
	<g transform="matrix(1,0,0,1,0,0)">
	</g>
</g>
</svg>
