<?xml version="1.0" encoding="utf-8"?>
<!-- Generator: Adobe Illustrator 19.0.0, SVG Export Plug-In . SVG Version: 6.00 Build 0)  -->
<svg version="1.1" id="Layer_1" xmlns:inkscape="http://www.inkscape.org/namespaces/inkscape"
	 xmlns="http://www.w3.org/2000/svg" xmlns:xlink="http://www.w3.org/1999/xlink" x="0px" y="0px" viewBox="115 99.8 841.7 595.2"
	 style="enable-background:new 115 99.8 841.7 595.2;" xml:space="preserve">
<style type="text/css">
	.st0{fill:none;stroke:#000000;stroke-width:0.1;stroke-linecap:square;stroke-linejoin:bevel;}
	.st1{fill:none;stroke:#FFFFFF;stroke-width:8.503937e-002;stroke-linecap:square;stroke-linejoin:bevel;}
	.st2{fill:#FF0004;fill-opacity:0;stroke:#FFFFFF;stroke-width:2.8346;stroke-linecap:square;stroke-linejoin:bevel;}
	.st3{fill:none;stroke:#FFFFFF;stroke-width:0.1134;stroke-linecap:square;stroke-linejoin:bevel;}
	.st4{font-family:'Karla';}
	.st5{font-size:5.9982px;}
</style>
<g id="Map_1:_line_x5F_B27129_x5F__x5F_905_x5F__x5F_21marzo2023" inkscape:label="Map 1: line_B27129__905__21marzo2023" inkscape:groupmode="layer">
	<g transform="matrix(1,0,0,1,0,0)">
	</g>
	<g transform="matrix(1,0,0,1,0,0)">
	</g>
	<g transform="matrix(11.8081,0,0,11.8081,0,0)">
	</g>
	<g transform="matrix(11.8081,0,0,11.8081,0,0)">
	</g>
	<g transform="matrix(0.999751,0,0,0.999751,0,0)">
	</g>
	<g transform="matrix(0.999751,0,0,0.999751,0,0)">
		<path vector-effect="none" class="st0" d="M737.3,224.8v-0.3h-0.1l0,0l0,0l0,0l0,0l0,0l0,0l0,0l0,0l0,0l0,0l0,0l0,0l0,0l0,0
			l-0.4,0.7l0.1,0.1l0,0l0,0l0,0l0,0l0,0l0,0l0,0l0,0l0,0l0,0l1.1,0.1l0.1-4.6l0.1-1.3l-2.2-0.4l-5-0.3l-2.1,3l-4.3,2.2l-5.4,2.9
			l-6.7,2.7l-7.8-0.4l-8.2-0.5l-6.5,1l-0.7-4.4l2.4,3.3l0.2,5.8l-5.6-0.9l-6.4,6.6l-0.6,6.3l-0.6,6.2l-6.3,3.2l-2.5-2.9l-1-4.3
			l-0.6-2.3l-1.1-1.8l-0.7-2.1l-1.2-1.7l-1.4,0.3h-0.3l0,0l0,0l0,0l0,0l0.6,2.2l2.3,4l1.6,5.2l2.5,3.9l0.7,4.9l1.3-5.1l6.2-3.2
			l7.2-3.5l4.4,0.2l3.4,0.1l3.9-0.9l3.9-2.3l6.2-1.7l1.2-0.4l2.8,2.7l0.2,1l2.4,1.3l3-1.2l3.5-1.5l2.1-0.9l3.5-1.4l3.5-1.5l2-0.9
			h3.4l4.1-1.6l4.2-3.1l0,0l0.7,0.1l3.3,6.5l-0.5,6.9l2.8,0.7l2,5.5l3.5,5.4l0.6,2.1l0.1,0.8l2-0.2l2-1.6l3.9-2.8l1.3-2.8l-0.3-5
			l-2.3-3.9l-1.1-0.6l3.4-2.2l1.8-1.2l2.6-1.4l4.3,1.5l4.9,1.5l3.2,1l4.2,2.6l3.5,3.1l-0.7,2.6l-2.1,3l1.4,1.1l1.3,2.8l-2.3,2.6
			l-2.6,2.8l-4.8,4.6l-6,4.9l-0.4,1.4l3.3-1.1l2.1,0.6l3.7,5.9l1.1,1.8l4.6,2.2l2.3,0.9l6.3,2.5l6.1,2.9l3.6,0.1l1.9,2.3l0.8,3.9
			l2.5,4.3l2.4,3.7l2.9,4.6l2.3,3.7l3.9,6.5l2.5,3.7l2.2,2.4l2.9,4.6l0.2,0.4l3.1,5.7l3.2,7l0.6,3.9l-1.6,3.5l-2.1,3.4l1.2,3.8
			l1.1,5.8l1.1,4l-0.9-4.6l-1.5-6.2v-0.1l12.8-1.8l-0.1,0.3v0.1h-0.1h-0.1l0,0l0,0h0.1l0,0l0,0v-0.1l0,0l0,0l-0.7,0.6l-3.7,1
			l-5.9,1.4l-2.2-0.8l-0.8-3.8l0,0v0.1l3.6-1.5l0.8-0.1l1.8-1l-0.6-5.7l-1.3-3.6l0.7-3.6l2.8-4.9l1-2.9v-0.2l0.2-1.4l0.1-0.9
			l0.4-1.6v-3.7l-2-1.9l-3.9-2.8l-2.3-3.2l-2.9-4.4l-1.5-1.5l-4-4.3l-1.1-2.4l-1.9-1.1l-0.9-2.5l-0.6-3.2l-2.4-1.9l-1.7-2.8
			l-2.3-3.4l-1.9-2.9l-3.7,3.1l-3.8,2.4L806,294l-2-3l-1.9-1.5l-5.6-4.2l-3.3-2.3l-1.8-1.1l-2.1-1.3l-2.4-1.7l-0.8-0.5l3-5.2
			l4.2-6.3l1.3-4.9l-1.3-0.5l-1.2-1l0,0l-3-2.3v0.1l0.1-0.2l-3.6-3l0.9-3.8l-1.2-2.3l-3.7-1.9l-2.9-0.9l-5.5-1.7l-2.1-0.7l-1.6-0.5
			l-1.8,1l-3.4,2.2l-2.7,2.9l-0.1,4.3l-1.8,5.7v1.9l0.6,1.3l-3.3,0.2l-0.5-0.2l-3.4-3.1l-1.3-3.5l-2.1-6.9l-1-3.3l-0.8-2.6l-0.1-0.2
			l-2-3.6l-3.1-1.8l-3.5,2.6l-2.3,1.7l-2.3-0.8l-3.4-1.6l-2.8,1.2l-4.5,2.1l-3.7,1.5l-2.2,0.9l-4,1.8l-1.9,0.5l-1.1-2.8l-1.9-0.8
			l-3.8,1.6l-3.3,0.6l-1.2,0.3l-4.8,2.7l-2.3,0.3h-0.2l-2.1-0.2l-3.9-0.4l-4.8,0.6l-1.6,0.4v0.1l-2.3,2.4l-3.1,2.4l-1.9,0.6l-2,0.6
			l-1.4-1.4l-1-3.9l-1.1-4.2l-1.7-3.3l-0.7-2.5l-1.7,0.1l0,0l0,0l0,0l0,0l0,0l0,0l0,0l0,0l0,0l-0.2,0.1l0,0l0,0l0,0l0,0l0,0l0,0l0,0
			l-0.5,0.2l0,0l0,0l0,0l0,0l0,0l1.4,3.4l1.3,2.3l1.7,4.9l1.9,4.3l1.1,1v3.8l0.5-1.5l1.6-3.3l1.5-0.3l0.4-0.1l4.4-3.3l2.8-2.2
			l2.4-0.4l3.8-0.2l2.4,0.5l0.5,0.1l1.7,0.1l4.5-0.9l1-0.8l1.5-1.1l1-0.5l0.7-0.2l0.3-0.1l6.3-1.7l0.6-0.1l2.8,2.2l0.3,0.6l0.7,1.7
			l0.3,0.7l3.2-1.1l1.7-0.7l3.6-1.6l2.7-1.1l1.6-0.7l3.8-1.6l1.8-0.8l3.4-0.9l2.8,0.5l2.8-1.9l3-2.3l3.1,2.3l1.5,4.3l-0.2,1.2
			l0.8,5.3l3.4,5.1l1,3l2.3,3l1.3,2.2l-0.1,0.8l1.8,0.4l3.3-3.1l3.8-3.2l0.4-2.9l-0.4-3.1l-1.2-0.3l-1.8-2.2l1.7-3.5l2.2-1.4
			l2.4-1.5l4.1,0.4l3.4,1.1l4.3,1.4l0,0l1.9,0.6l2.9,1.4l3.2,2.8l1.3,1.2l-0.8,3l-1.9,1.6l2.6,3.7l0.6,0.5l-0.8,1.2l-0.8,0.7l-3,3.5
			l-2.3,2.5l-1.6,1.4l-0.2,0.2l-3.8,3.1l-3,2.4l0.2,0.8l2.3,0.5l1.6,0.4l2.4,2.7l1.9,3.4l2.1,2.2l0.7,0.3l2,0.8l0,0l5.2,2l7.7,3.8
			l4,0.6l2.7,0.7l1.2,3.2l0.2,1.5l0.2,0.3l0.8,1.2l0.5,0.7l0.3,0.4l1.4,2.5l0.4,0.7l1.3,2.1l0.7,1.1l0.6,0.9l0.7,1.1l1.3,2l1,1.7
			l1.1,1.8l1.2,2.1l0.7,0.9l0.4,0.7l0.3,0.6l0.5,0.6l0.4,0.7l0.5,0.9l0.5,0.9l0.8,1.3l1.9,2.6l1.1,0.9l0.1,0.2l0.8,1.2l1.2,2
			l0.6,0.9l1.2,1.7l0.3,0.3l1.2,1.8l1.7,4.1l2.7,5.7l1,1.6l0.7,2.6l-2.5,4.5l-1.7,3.2l1,4l1.3,5.4l1.1,4l-1.3-3.7l-0.9-4l-0.2-1.8
			l1.4-2.6l2.2-0.4l5.1-1.4l3.3,1.7v0.2l0,0l0,0l0,0l0,0l0,0l0,0l0,0l-2.4,1l-3.4,0.8l-4,1l-2.7-1.8l1.3-3.8l3.2-0.8l0.7-2.3v-3.9
			l-0.5-0.1l-1.1-0.2l0.1-3.2l0.8-3.6l-0.1-1l3.3-5.3l0.7-3.4l-0.1-4.7l0.2-0.9l-1.5-2.3l-3.4-2.5l-1.2-1l-3-4.5l-3.5-4.1l-3.1-3.1
			l-3.3-4.7l-1.7-4l-0.1-0.5l-1.6-2.3L820,297l-3.6-5.5l-3.7-1.8l-4.8,4.7l-1-0.2l-0.6-0.1l-1.8-0.4l-1.6-3.3l-5.1-3.8l-2.6-2
			l-0.6-0.5l-3.6-2.3h0.2l-1.8-1l-2.4-1.6l0.1-2.8l2.2-3.2l2-2.9l3-4.5l1.1-1.5l-0.6-1.6l-2.7-1.6l-3.4-2.9l-0.7-0.5l-3.7-3.3
			l1.9-2.6l-1.2-2.6l-2.8-1.6l-3.4-1l-3.7-1.2l-5.4-1.7l-1.7,0.7l-3.3,2.1l-3.4,2.6l0.3,4.8l-2,5.8l-0.2,2.2l0.2,2.4l-1.8-0.3
			l-0.7-0.6l-1.9-1l-3.4-5.2l-2.3-7.8l-0.9-3.3l-1-3l-2.6-4.5l-0.7-1l0,0l-1.5,0.4l-2,1.4l-1.8,1.3l0,0l-3.4,1.9l-2.8-2.1l-4.1,0.5
			l-4.5,1.8l-3.9,1.7l-0.8,0.3l-3.4,1.5l-3.9,1.8l0,0l-1.1-2.7l-0.9-2.6l-5.4,3.3l-3.9,0.5l-0.4,0.3l-1.9,1.1l-2.6,1.3l-1.2,0.2
			l-1.8,0.3v0.1l-1.9-0.2l-4-0.4l-5.7,0.9l-4.9,4.8l-2.3,0.6l-0.4,0.2l-1.8,0.5l-2-1.9l-0.7-2.7l-0.6-2.7l-0.6-2.2l-1.1-1.9
			l-0.9-2.6l-0.4-1.6l-0.9,0.1l0,0l0,0l0,0l0,0L664,241l0,0l0,0l0,0l0,0l0,0l0,0l0,0l0,0l0,0l0,0l0,0l0,0l0,0l0,0l0,0l0,0l-0.8,0.1
			l0,0l0,0l0,0l0,0l0,0l0,0l0,0l0,0l1.6,3.5l2.3,4.6l1.4,5.5l0.6,1l0.2,0.1l1.2,0.8v4.1l0.6-1.7l1.1-2.9l6.8-3.9l8.1-2.9h2.3
			l1.8,0.4l1.5,0.2l5.2-1.4l0.8-0.6l0.4-0.3l4.5-1.3l5-1.7l2.9,2.6l2.8,2.3l5.2-2.2l3.3-1.3l2.7-1.1l4.1-1.7l2.2-1l4.2,0.5l2.9-1.9
			l4.7-3.2l0,0l0,0l2.9,3.8l-0.1,7.3l1.9,2.5l1.4,0.6l1.7,4.6l3.5,6.1l1.7,3.3l1-0.2l2.7-2.2l4-2.6l1.1-4.6l-1.5-3l-2-2.4l0.5-2.6
			l2.3-1.4l3.4-2.2l4.4,0.2l4.6,1.5l3,0.9l4.4,1.7l1.8,1.6l2.7,2.4l1.3,1.3l-1.8,2.3l-1.8,1.3l1.5,2.9v3.6l-0.3,0.3l-0.7,0.9
			l-1.2,1.2l-1,1.1l-2.6,2.5l-1.1,1.2l-0.6,0.5l-1.3,1.1l-3.1,2.2l-3.1,3.2l0.6,0.3l2.6-1l2.3,0.9l3,4.3l1.1,2l3.5,2.6l2,0.9l5.8,2
			l7.2,4h3.6l1.9,0.6l1.4,2.2l0.8,3.8l1.7,2.8l2.9,4.8l2.7,4.2l2.2,3.9l2.4,3.6l3.9,6.6l0.6,0.8l0.7,0.4l2.3,2.9l1.6,2.6l2.1,2.8
			l2.1,5.3l2.7,4.9v0.1l0.8,1.2l0.7,2.6l-1.9,4.1l-0.8,1.4l-0.4,0.6l-1.1,1l1.3,6.5l1.8,7.4l-0.2-2.9l-1.3-5.9l0.2-3.1l4.8-1l6-1.5
			h0.1h0.3l0.6,2.3l0,0l0,0l0,0l0,0l0,0l-1.5,0.8l-3.7,0.9l-3.2,0.8l-3.4,0.7l-0.6-1.6l-0.8-3.6l4.2-1.2h0.1l1.4-0.4l0,0l0.5-4.9
			l-2.1-1.9l0.2-2.8l0.5-3.1l0.8-3.5l2.8-3.6l0.4-1.3l0.7-4.3l-1.1-5.1l-3-1.9l-1.8-1.5l-2.5-3.4l-3-4.2l-2.3-2.2l-2.3-2.3l-2.7-4.8
			l-1.9-3l-0.5-2.4l-0.4-1.3l-3.7-3.4l-1.7-2.7l-2.9-4.1l-4.7,4.7l-2.9,1.1l-1.1-0.1l-1.7-3l-6.1-4.6l-5.1-3.6l-1.1-0.6l-1.4-0.9
			l-2.7-2l-1.1-0.5l3.1-5.7l3.8-5.4l1.7-5.1l-1.7-0.9l-4.2-3.4l-4.3-4.4l2.4-3.1l-0.8-0.8l-1.8-1.6l-3.7-1.3l-2.9-0.9l-4.4-1.4
			l-2.8-0.8l-0.4-0.1l-2.4,0.8l-3.5,2.1l-1.3,0.9l-1.3,2.3v4.1l-2,5.7l-0.1,0.3l1,2.1l-2.3,2.6l-1.4-1.5l-1.3-0.7l-3.7-5.6l-2.3-7.7
			l-1.5-5.6l-0.4-0.7l-2.2-3.8l-1.7-1.9l-3.4,2.5l-4.8,2.7l-2.8-2.1l-3.5,0.5l-4.7,2l-3.9,1.6l-0.7,0.2l0,0l-1.7,0.8l-4.2,1.8
			l-2,0.4l-1.9-4.9l-5.9,3.5l-3.9,0.5l-1.9,1l-3.7,1.7l-1.3,0.2l-0.6,0.1l-5.5-0.7l-1.9,0.3l-3.8,0.6l-3.9,3.7l-2,1.4l-3.8,1.2
			l-1.8-2.1l-1.2-5l-1.4-3.5l-1.5-3.9l-0.2-1.1l-1.7,0.3l0,0l0,0l0,0l0,0v0.1l0,0l0,0h-0.3l0,0l0,0l0,0H664l0,0l0,0l0,0l0,0
			l-0.4,0.1l0,0l0.6,1.8l0.9,1.5l1.2,2l1.9,5.6l1.3,3.7l0.9,0.3l0.8,2l0.1,1.5l0.3,1.4l0.1-0.8v-0.7l1.7-3.5l5.9-3.2l0.2-0.3
			l3.4-2.7l5.2-0.3l3.5,0.4l0,0l0.7,0.1l4.5-0.6l0.8-0.2l0.6-0.2l1.7-1.3l0,0l1.8-0.8l2.5-0.3l4.9-1.8l0.4-0.1l2.7,3.1l0.9,2.1
			l4.4-1.3l2.2-0.8l5.8-2.4l2.7-1.2l3.6-1.5l3.9-0.4l2.7-0.5l2.1-1.4l4.8-1.8l2.6,6.2l-0.5,2.4l1.6,4.2l2.2,2.8l1.2,3.8l1.4,2.8
			l0.4,0.5l1.6,1.4l0.8,0.8l-0.1,1.2l0,0l1.8,0.9l3.3-3l3.9-3.7l-0.1-5.5l-2.6-0.4l-0.7-4.6l3.4-1.9l3-1.9l1.9-0.4l5.2,1.7l4.4,1.3
			l3,1l3.6,2.3l3.7,3.3v1l-3.5,3.4l2.9,3.4l0.1,0.1l0.6,0.6l0,0l-0.5,0.7l-1.3,1.4l-0.5,0.6l-0.9,1l-1.6,1.7l-2.5,2.6l-1.7,1.5
			l-4.3,3.4l-2.9,2.6l0.8,0.3l2.6,1.3l2,0.1l2.6,4.4l0.7,1.1l4.2,3.1l1.1,0.6l5.7,1.9l7.1,4l4.7,0.3l1.1,0.4l1.2,0.9l0.9,4.6
			l1.9,2.9l2.9,4.7l0.2,0.4l1.9,3.1l2.8,4.4l0.5,0.8l3.4,5.5l2.9,4.8l1.3,1.4l1.8,2.2l2.3,3.5l0.6,0.9l2.7,4.9l1.1,3l2.7,4.6l0,0
			l0.6,0.9L838,352l-1,2.4l-0.6,0.6l-2,2.8l0.9,4l1.4,6l1.1,4.4l0,0l-0.7-3.5l-1-4.4l0.7-4.5l6-1.3l4.1-0.9l0.7,0.4l0.2,1.7h-0.3
			h0.1h0.2h0.1l0.1-0.1v0.4h-0.1h-0.1l0,0h0.1l0,0l0,0l0,0l0,0l-0.5,0.4l-3.9,0.9l-4.6,1.1l-2.5,0.6l-1.3-5.5l4.1-1l1.1-0.3l0.6-1.2
			l-0.5-5.1l-1.5-0.6l0.5-3.3l0.9-5.3l3.7-7.7l0.5-2.3l-0.5-2.1l0.5-2.1l-1.9-1.1l-2.2-1.6l-1.6-1.3l-3-4.1l-0.7-1.2l-4.3-4.8
			l-1.4-1.4l-2.8-4.8l-2.2-1.8l-0.8-3.6l-0.8-2.1l-3.1-2.7l-4.3-6.7l-4.3,3l-3.9,2.2l0.1-0.1l-2.5-1.5l-4-4.2l-5.4-4l-1.5-1.1
			l-2.2-1.5l-3.2-3l-1.2-2.5l2.7-3.8l4.5-6.7l0.8-1.3l-0.8-2.3l-2.3-1.3l0,0l0,0l-0.7-0.7l-2.8-2.6l-2.6-2.2l-0.3-2.8l0.9-2.5
			l-2.9-2.2l-3.6-1l-2.2-0.8l-5.3-1.6l-3.8-0.9l-2.8,1.8l-2.5,1.7l-1.9,1.6l0.6,4.1l-2.1,5l-0.6,3.5l1,1.1l-1.3,2.2l-0.4-0.1
			l-1.8-1.8l-1.9-1.1l-3.8-7.5l-3-10.3l-3.6-6.3l0,0l-0.2-0.4l-2.8,1.3l-2.4,1.9l-2.4,1.8l-4-2.2l-3.4,0.5l-4.2,1.8l-4.3,1.8
			L719,245l-2.9,1.3l-2.8,1.3l-0.2,0.1l-1.2-1.5l-1.7-3.2l-4.4,2.9l-3.7,0.5l-1,0.3l-4.1,2.5l-2.9,0.4l-0.6,0.1l0,0l-1.3-0.1
			l-7.3-0.1l-3.3,0.6l-0.3,0.1l-1.3,0.9l-2.3,2.9l-3.1,1.4l-3.9,0.2l-1.4-5.9l-0.8-3.2l-1.1-1.8l-1-3.2l-2.1-0.5h-0.2l0,0l0,0l0,0
			l0,0v-0.1l0,0l-0.4,0.1l0,0l0,0l0.9,2.7l2.4,4.4l1.5,5.3l2.2,3.1l0.4,3.4l0,0l0.4,1.3l0.1-0.3v-1.4l2.1-3.6l1.6-0.4l3-1.8l5.2-4
			l6.3-0.2l1.6,0.3h0.3l4.4-0.5l1.3-0.3l0,0l1-0.7l1.2-0.9l0.3-0.2l1.6-0.7l2.4-0.3l4.8-1.6l2.7,1.7l0.6,1.5l0.9,2.1l0.2,0.1
			l4.3-1.8h0.1l3.7-1.5l0,0l1.9-0.8l2.5-1.1l0.2-0.1l4.5-1.9l2.9-1.3l2.1,0.6l0.1,0.2l3.1-1.2l1-0.8l2.9-2l1.1-0.9l0,0l-0.1,0.1
			l2.4,2.8l1.6,3.8l-1,4.9l2.4,2l0.7,0.3l2.1,5.1l3.6,6.1l0.9,2l1.7,0.7h0.5l3.6-3.1l3.1-3.1l0.5-3.1l-0.7-5l-3.2-2.2l3.4-2.4
			l1.9-1.2l1.3-0.8l3.3-0.1l2.6,0.8l5.7,1.7l0.3,0.1l0,0l4,1.3l2.5,2.3l3.5,3.2l-1.9,2.8l-1.4,0.9l2.5,3.7l-0.9,2.8l-0.4,0.6
			l-1.4,1.5l-1.4,1.5l-2.3,2.4l-1.6,1.2l-5,4.3l-2.5,2.3l1.6-0.5l2,1.9l2.6,1.1l2.6,4.1l1.5,2.2l3.5,1.6h0.1l4.4,1.7l5,2.1l6.2,2.8
			l5.2,3.3l3.5,7.5l2.4,3.9l3.6,5.8l2.2,3.6l4.6,7.3l1.9,2.2l0.1,0.1l4,6.1l2.6,3.6l1.8,5.2l2.3,4.1l1.1,2.6l-0.3,1l-2.2,4.2
			l-0.5,0.9l-1.3,1.4l1.5,6.7l1.6,6.8l0.2-0.8l-1.5-5.4l-0.3-2.5l2.6-3.1l6-1.3l3.3,1.1v0.2l0,0l0,0v0.1l0,0v0.2v0.1l0.1,0.1h0.1
			l0,0v-0.1v0.1l-3.5,1.1l-3.5,0.7l-1.8,0.4l-3.1,0.8l0,0l-1.3-3.9l1.2-2l3-0.8l0.7-0.2l0.6-3.2l-1.7-3.3v-1.4l0.2-1.6l0.3-1.3
			l0.4-2l0.1-1.1l3.4-5.7l1-5.4l-0.2-2.9l-1.4-3l-1.5-0.9l-2.2-1.6l-1-0.8l-1.7-2.7l-0.9-1.3l-3.3-4.1l-2.2-2.2l-3.2-4.8l-2.5-2
			l-0.7-3.5l-0.4-1.1l-2.4-2.4l-2-3.1l-1.1-1.7l-3.8-3.9l-1.9,2l-2.8,3.1l-3,0.2l-0.5-0.1l-1.9-3.2l-3.1-2.4l-5.4-3.9l-1.4-1
			l0.1-0.1l-2.2-1.5l-0.7-0.1l-0.7-0.8l-2.9-1.8l-0.7-0.5l1-2.1l0,0l2.6-3.9l5-7.3l0.3-0.4l0.2-2.2l0,0h-0.2l-0.9-0.6l-0.1-0.1l0,0
			l0,0l-0.9-0.5l-0.8-0.5l0,0l-1.3-1.1l-1.4-1.2l-0.4-0.2l-0.7-0.6l-0.3-0.2l-0.6-0.5l-2.8-3.4l1.5-3.4l-4.1-2.7l-4.7-1.4l-4.9-1.5
			l-3.1-1l-2.2,1.2l-2.2,1.4l-2.2,1.4l-0.5,3.9l-2,4.2l-1,4.4l1.2,2.2l-1.6,2.7l-2.2-1.9l-1.2-0.7l-3.6-5.4l-1.5-4.7l-1.4-4.9
			l-1.1-3.8l-0.8-2l-2.7-4l-0.2-0.3l-2.9,1.7l-2.1,1.5l-0.1,0.1l-3.4,2l-4.8-2.5l-4.1,1.8l-2.2,0.9l-4.9,2l-2.5,1.1l-4.1,1.9
			l-0.9,0.2L711,243l-4.2,2.5l-3.5,1l-2.3,0.4l0,0l-1.7,1.1l-4.2,1.7l-4.7-0.1l-1.5-0.1h-2.1l-4.4,0.5l0,0l-1.2,0.6l-4.3,4.5
			l-0.9,0.3l-1.4,0.3l-1.4,0.5l-1.8,0.4l-1.1-3.3l-0.9-4.1l-1.2-3.2l-1.2-2.4l-0.7-2.7l-1.6,0.2l0,0l0,0l-0.4,0.2l0.9,3.3l2.2,3.7
			l1.7,6.8l2.2,2.6l0.3,1.6l0.2,2.3v-1.5l-0.1-0.5v-0.1l0,0v0.1v0.1l0.5-3l1.1-0.3l2.3-0.7l2.7-1.4l1.1-1.4l5.8-3.1l4.8-0.1l1.1,0.1
			l1.1,0.2l5.2-0.6l1.7-1.1l1.1-0.8l1.8-0.8l0.4-0.1l5.8-1.5l2.1-0.5l2,3.7l0.4,0.8l0.7,1.2l3.9-1.6l4.5-1.9l2.5-1l1.8-0.7l4.3-1.8
			l1-0.5l3.8-0.9l2,0.9l2.5-1.8l3.9-2.7l0,0l1.8,0.5l2.7,5.5l-0.8,4l1.5,2.8l2,1l1.6,5.4l0.8,2l2.7,3.3l0.8,1l-0.1,1l3.4,0.4
			l1.4-2.4l3.8-2.4l1-3.1l-0.1-1.2l-0.1,0.1l-0.6-3.9l-2.3-2.7l-1.1-0.7l3.8-2.4l3.2-2.2l3.3,0.4l3.9,1.3l4.1,1.4l3.4,0.9l3.3,2.6
			l3.5,3.8l-3.4,3l1.5,3l1.8,1.6l0,0l-0.9,1l0,0l-0.7,0.7l-0.1,0.2l-1.7,2l-1.1,1.2l-1.2,1.2l-1,0.9l-1.4,1.3l-0.7,0.6l0,0l-2.7,2.4
			l-4.3,3.4l-1.5,1.6l0.3,0.6l1.8-1.7l2.1,1.1l1.7-0.1l2.9,4.1l0.7,1.2l1,1.8l1.8,1.4l0,0l0.5,0.2l2.6,1l7.3,2.8l6.8,3.5l4.3,0.2
			l1.5,4l1.7,3.4l3.8,6.2l0.5,0.9l4.1,6.5l3.2,5.1l3.6,5.9l1.2,1.2l2.3,3.2l1.8,2.8l1.3,1.7l2.1,4.6l1.8,3.9l2.2,4.1l0.6,2.1
			l-1.6,3.4l-0.6,1.2l-1.5,2l0.1,3.5l1.8,7.5l0.4,1.8l0.1,0.5l0.2,0.7l0,0l-0.1-2.1l-1-3.8l-0.6-3.1l1-2.4l2.5-0.5l5.9-1.5l2.9,2.1
			l0.1,0.1l0,0l0.1,0.1l0,0v-0.1l0,0l0,0l0,0l-0.2,0.3l-3.8,1l-1.3,0.2l-3.1,0.5l-3.6,0.8l0,0l-0.4-0.3l-0.9-3.6l2.7-2.4l1.4-0.2
			H839l0,0l1.2-0.3h0.1l0.1-2.6l-0.4-3.7l-1.2-2.1l0.1-1l0,0l0.4-2.5l0.2-1.1l0.1-0.5l0.5-2l2.9-4.1l0.2-1.2l0.3-2l0.2-0.8v-3v-0.9
			l0.5-2.1l-1.8-1.3v-0.1l-0.9-0.7l-2.1-1.6l-1.8-1.5l-2.4-3.6l0,0l-2.3-3.3l-3.7-3.5l-1.7-2.3l-1.2-2.5l-0.5-0.8l-2-2.4l-0.4-2
			l-0.4-1.5V299l-2.3-1.6l-1.4-2.3l-3.4-5.2l-3.8,0.5l-4.3,3.7l-0.5-0.1h-0.1l-1-0.2l-1.5-1.7l-3.1-3.2l-4.5-3.3l-0.5-0.4l-1.4-1.1
			l-1.4-1l-0.3-0.3l-2-1.2l0.1,0.1l-1.3-0.8l-1.9-2.2h-1.3l1.3-3.8l0.8-1.2l2.5-3.6l0.9-1.3l2.6-3.9l-1.3-3.3l-0.7-0.4l0,0l-3.2-2.7
			l-0.3-0.1l0,0l-1.1-1.1l-3.2-2.8l-0.6-0.5l2.6-3.1l-2.2-2.2l-4.1-1.7l-2.8-0.9l-2-0.6l-2.9-0.8l-3.2-1.1l-0.2-0.1l-2.8,1.5l-1.5,1
			l-2.3,1.4l-1.6,1.2l0.6,2.1l0.2,2.1l-1.2,1.4l-0.9,2.2l-0.7,3.5l-0.2,1.6l0.3,2.6l-1.4,0.2l-1.4-1.3l0,0l-2.5-1.7l-2.8-5.8l-1-3.2
			l-1.2-4L748,243l-1.1-2.2l-2.4-3.7l-0.3-0.2l-2.7,1.8l-1.5,1.1l-1.5,1.1l-2.9,0.9l-2.8-2l-2.4,0.2l-2.2,0.9l-3.2,1.4l-1.1,0.5
			l-3.6,1.5l-4,1.7l-3.5,1.5l-1.2-2.3l-0.1-2l-4.1,1.5l-0.5,0.1l-3.3,1l-2.3,0.4l-0.8,0.3l-3.2,2L695,249l-1.5,0.3l0,0l-1.8-0.1
			l-3.6-0.6l-3.9,0.4l-2.6,0.8l0,0l-1.2,0.8l-3.9,4l-1.8,0.5l-0.3,0.1l-1.7,0.5l-0.7,0.2l-2.1-5.2l-0.9-3.6l-1.3-2.7l-1-3l-0.4-1.1
			l-0.9,0.1l0,0l0,0l0,0l0,0l0,0l0,0l-0.4,0.2l0,0l0,0l0,0l0,0l-0.5,0.2l0,0l0,0l0,0l0,0l0,0l-0.5,0.1l-0.1,0.5l2.2,4.2l2.2,5.6
			l2.1,4.5l1,1.5l0.1,2.4l0.3,1.3l0.1-4.1l0.5-0.6l3.7-1.1l3.5-2.8l6.2-3l5.4,0.3h0.3l4.3-0.4l3.7-1.5l0.5-0.4l2.3-1l4.1-0.7
			l3.6-1.5l2.5,3.2l1.2,2.6l0,0l4.1-1.8l4.4-1.8l5.8-2.5l3.3-1.4l3.5-1.4l4.3-0.1l4.9-3.6h1.1l3.2,7.2l0.6,6.1l2.3,2l2.4,7l3.2,4.8
			l1.8,0.6l3.6-3.1l3.5-3.3l0.1-5l-1.9-4.4l0.1-2.1l3.3-2.1l3.4-1.4l5.4,1.7l3.9,1.3l4.5,1.5l3.7,3.2l1.9,3.4l-2.9,2.6l1.8,3v3.3
			l-3.6,3.9l-3.3,3.1l-2.9,2.6l-4.7,3.9l0.3,0.7l2.8,0.7l2.4,0.7l2.4,3.8l1.3,2.4l7,3.6l5.2,2l5,2.9l5.2,0.5l1.9,1.1l1.8,5.8l1,1.5
			l4.9,7.8l3.4,5.6l1,1.7l4.1,6.6l4.1,5.1l2.5,4.1l2.9,4l0.8,2.9l2.5,5.3l1.5,2.4l-1.3,6.3l-2.3,4.2l1.8,7l1.5,6l0,0l0.2-0.2
			l-1.5-5.9l-0.6-2.5l1.1-3.6l1.6-0.3l3.5-0.8l5.3-1.2l0.5,1.9l0,0v-0.1l0,0v0.1l0,0l0,0l0,0v0.1l0,0l0,0v0.1v0.1l0,0v0.1l-0.1,0.1
			l0,0l0,0l0,0l0,0l0,0l-0.6,0.7l-4.4,1.1l-3,0.7l-4,0.4l-0.7-5.4l3.5-0.7l0,0l0,0l1.5-0.4l0,0l0.3-2.5l-0.8-3.7l-1-3.1l0.2-1
			l2.7-7.2l2.5-7.2l0.4-4.7l-5.2-3.7l-2.6-3.1l-4.8-6.3l-4.4-5.2l-3.3-3.8l-1.7-6.2l-3.4-3.3l-2.1-3.3l-3.8-2l-5,4.8l-2.5-0.3
			l-2-3.5l-5.8-4.3l-4.9-3.4l-0.7-0.6l-0.6-0.3l0,0l-0.1-0.1l-2.3-1.3l-2.6-1.6l-0.3-0.2l2.8-5.4l3.1-4.5l2.2-3l0.2-3.5l-2.3-1.4
			l0,0L790,259l-1.1-0.8l-3.5-3.2l2-3.5l-2.5-2.6l-4.9-2l-6-1.9l-4.2-1.4l-2.3,1.3l-2.4,1.5l-3.4,2.5l0.4,4.7l-1.5,2.2l-0.7,4
			l-0.1,0.6l0.9,2l-2.7,1.4l-0.9-0.7l-3.6-3l-3.1-8.7l-1.1-3.7l-1.3-4.5l-2.7-4.6l-2.1-0.9l-2.3,1.6l-2.3,1.8l-3.3,0.7l-4.2-1.8
			l-4.2,1.9l-2.9,1.2l-3.7,1.5l-4.3,1.7l-3.4,1.5l0,0l-1.4-3l-1.7-0.7l-3.9,1.6l-5.3,1.2l-2.6,1.7l-6.8,0.9l-6.3-0.2l-3.3,0.9
			l-0.1,0.1l0,0l-2.2,2l-3.5,2.9l-3.7,1l-2.2-5.5l-0.8-3.1l-1.1-2.4l-1-2.3l-1.1-2.3l-0.9,0.2l0,0l0,0l0,0v0.1l0,0l0,0l0,0v-0.1
			l-0.6,0.1l0,0v-0.1l0,0l-0.4,0.1v-0.1l0,0l0,0l0,0l0,0l-0.1,0.2l2.5,4.8l2.2,5.6l2.4,4.5l0.4,4.6l0.6-2l1.6-2.6l2.1-0.5l1-0.5
			l4-3.7l0.1-0.2l6.4-1.9l4.4,0.4h0.4l1.7,0.1l4.6-1.1l1.6-1.2l4.4-1.2l7-1.6l1.5,3.5l0.8,1.9l2.3-1l6.2-2.7l4.7-1.9l4-1.7l3.9-1.4
			l4.4-0.3l4.8-3.4l0.2-0.2l0,0l1.2,0.7l2.5,7.8l2.1,5.3l2.4,5.5l4.3,6.2l0.2,2.6l1.8-0.3l1.9-1.3l1.7-1.7l2.9-2l0.9-4.6l-0.8-5.2
			l-2.3-2.5l3.5-2.1l2.7-1.8l3.5,0.3l7,2.3l0.8,0.2l2.3,0.6l4.3,2.9l3.7,3.8l-3.6,3.1l2.7,3.6l-2,4.1l-6.3,6.3l-6.6,5.5l0.2,0.7
			l2.8,1.4l1.4-0.5l3.5,5.1l2.4,3.2l1,0.5l1.5,0.6l0.3,0.1l3.6,1.4l8,3.7l4.1,1.5l3.7,0.3l1.2,3.2l3.6,7.2l2.4,3.8l3.8,6.2l2.1,3.4
			l5.1,8.2l5,6.7l0.7,1l2.4,3.3l2.2,6l2.4,3.7l0.5,0.9l-2.7,6.9l-0.6,6.2l1.9,8.3l0.7,0.9l-1.7-6.6l1.2-4.8l1.9-0.4l5.5-1.4l3.1,1.6
			l-0.4,0.7l-4,0.9l-5.8,1.4l-1.5,0.4l-0.4-0.8l0.5-5.3l2.5-0.3v-0.1l2.4-1.7L840,349l-0.8-3.3l0,0l0.7-3.8l0.2-0.7l3.6-6.2l0.5-2.5
			v-1.2l0.2-1l-0.4-2.4l-1-3.3l-4.2-2.9l-4-5.8l-5.3-5.6l-3.3-5.7l-2.7-4.9L821,297l-2.3-3.5l-4.3-5.6l-4.8,5l-2.2,0.6l-2.7-2.3
			l-5.4-4.6l-5.3-3.9l-2.3-1.6l-2.4-2l-2.9-2.1l4.9-6.7l3.3-4.9l0.2-3.9l-4.2-2.9l-0.9-0.7l-1.2-0.9l-3.7-3.2l2.6-3.3l-2.6-2.7
			l-4.9-1.7l-1.3-0.4l-3.7-1.2l0,0l0,0l-3.8-1.2l-1.8-0.1l-2.2,1.5l-3.6,2.3l-1.2,0.8l-0.1,0.4l3,2.5l0.1,0.7l0.6,4.5l-0.8,3
			l-4.5,3.6l-1.7,1.2l0,0l0,0l0,0l-0.2-0.4l0,0l0,0l0,0l0,0l0,0l0,0l0,0l0,0l0,0l0,0v-0.1l0,0l0,0l0,0l0,0l0,0l0,0l0,0l0,0l0,0l0,0
			l0,0l0,0l0,0l0,0l0,0l0,0l0,0l0,0l0,0l0,0l0,0l0,0l0,0l0,0l0,0l0,0l0,0l0,0v0.1l0,0l0,0l0,0l0,0l0,0l0,0l0,0l0,0l0,0l0,0l0,0
			l-0.5-0.5l-0.2-0.1h0.1"/>
	</g>
	<g transform="matrix(0.999751,0,0,0.999751,0,0)">
	</g>
	<g transform="matrix(11.8081,0,0,11.8081,0,0)">
	</g>
	<g transform="matrix(11.8081,0,0,11.8081,0,0)">
	</g>
	<g transform="matrix(11.8081,0,0,11.8081,0,0)">
	</g>
	<g transform="matrix(1,0,0,1,0,0)">
	</g>
	<g transform="matrix(11.8081,0,0,11.8081,0,0)">
	</g>
	<g transform="matrix(11.8081,0,0,11.8081,0,0)">
	</g>
	<g transform="matrix(1,0,0,1,0,0)">
	</g>
</g>
<g id="Map_1:_fogo_x5F_20230321" inkscape:label="Map 1: fogo_20230321" inkscape:groupmode="layer">
	<g transform="matrix(0.999751,0,0,0.999751,0,0)">
		<path vector-effect="non-scaling-stroke" class="st1" d="M585.1,250.6l12,12 M597.2,250.6l-12,12"/>
	</g>
	<g transform="matrix(1,0,0,1,0,0)">
	</g>
	<g transform="matrix(1,0,0,1,0,0)">
	</g>
	<g transform="matrix(11.8081,0,0,11.8081,0,0)">
	</g>
	<g transform="matrix(11.8081,0,0,11.8081,0,0)">
	</g>
	<g transform="matrix(0.999751,0,0,0.999751,0,0)">
	</g>
	<g transform="matrix(0.999751,0,0,0.999751,0,0)">
		<path vector-effect="none" class="st2" d="M673.9,346.5c0,3.1-2.5,5.7-5.7,5.7c-3.1,0-5.7-2.5-5.7-5.7c0-3.1,2.5-5.7,5.7-5.7
			S673.9,343.4,673.9,346.5"/>
	</g>
	<g transform="matrix(0.999751,0,0,0.999751,0,0)">
		<path vector-effect="non-scaling-stroke" class="st3" d="M662.1,340.5l12,12 M674.2,340.5l-12,12"/>
	</g>
	<g transform="matrix(0.999751,0,0,0.999751,0,0)">
		<path vector-effect="none" class="st2" d="M301.9,304.8c0,3.1-2.5,5.7-5.7,5.7c-3.1,0-5.7-2.5-5.7-5.7s2.5-5.7,5.7-5.7
			C299.4,299.1,301.9,301.7,301.9,304.8"/>
	</g>
	<g transform="matrix(0.999751,0,0,0.999751,0,0)">
		<path vector-effect="non-scaling-stroke" class="st1" d="M290.2,298.8l12,12 M302.3,298.8l-12,12"/>
	</g>
	<g transform="matrix(0.999751,0,0,0.999751,0,0)">
		<path vector-effect="none" class="st2" d="M682.2,417c0,3.1-2.5,5.7-5.7,5.7c-3.1,0-5.7-2.5-5.7-5.7c0-3.1,2.5-5.7,5.7-5.7
			C679.6,411.4,682.2,413.9,682.2,417"/>
	</g>
	<g transform="matrix(0.999751,0,0,0.999751,0,0)">
		<path vector-effect="non-scaling-stroke" class="st1" d="M670.4,411l12,12 M682.5,411l-12,12"/>
	</g>
	<g transform="matrix(0.999751,0,0,0.999751,0,0)">
		<path vector-effect="none" class="st2" d="M320.7,328.4c0,3.1-2.5,5.7-5.7,5.7c-3.1,0-5.7-2.5-5.7-5.7c0-3.1,2.5-5.7,5.7-5.7
			C318.1,322.8,320.7,325.3,320.7,328.4"/>
	</g>
	<g transform="matrix(0.999751,0,0,0.999751,0,0)">
		<path vector-effect="non-scaling-stroke" class="st1" d="M308.9,322.4l12,12 M321,322.4l-12,12"/>
	</g>
	<g transform="matrix(0.999751,0,0,0.999751,0,0)">
		<path vector-effect="none" class="st2" d="M503.7,550.1c0,3.1-2.5,5.7-5.7,5.7c-3.1,0-5.7-2.5-5.7-5.7c0-3.1,2.5-5.7,5.7-5.7
			C501.2,544.5,503.7,547,503.7,550.1"/>
	</g>
	<g transform="matrix(0.999751,0,0,0.999751,0,0)">
		<path vector-effect="non-scaling-stroke" class="st1" d="M492,544.1l12,12 M504.1,544.1l-12,12"/>
	</g>
	<g transform="matrix(0.999751,0,0,0.999751,0,0)">
		<path vector-effect="none" class="st2" d="M697.4,437c0,3.1-2.5,5.7-5.7,5.7c-3.1,0-5.7-2.5-5.7-5.7c0-3.1,2.5-5.7,5.7-5.7
			S697.4,433.9,697.4,437"/>
	</g>
	<g transform="matrix(0.999751,0,0,0.999751,0,0)">
		<path vector-effect="non-scaling-stroke" class="st1" d="M685.6,431l12,12 M697.7,431l-12,12"/>
	</g>
	<g transform="matrix(0.999751,0,0,0.999751,0,0)">
		<path vector-effect="none" class="st2" d="M653.7,411c0,3.1-2.5,5.7-5.7,5.7c-3.1,0-5.7-2.5-5.7-5.7c0-3.1,2.5-5.7,5.7-5.7
			S653.7,407.8,653.7,411"/>
	</g>
	<g transform="matrix(0.999751,0,0,0.999751,0,0)">
		<path vector-effect="non-scaling-stroke" class="st1" d="M641.9,405l12,12 M654,405l-12,12"/>
	</g>
	<g transform="matrix(0.999751,0,0,0.999751,0,0)">
		<path vector-effect="none" class="st2" d="M504.1,278.1c0,3.1-2.5,5.7-5.7,5.7c-3.1,0-5.7-2.5-5.7-5.7s2.5-5.7,5.7-5.7
			C501.5,272.5,504.1,275,504.1,278.1"/>
	</g>
	<g transform="matrix(0.999751,0,0,0.999751,0,0)">
		<path vector-effect="none" class="st2" d="M596.9,256.6c0,3.1-2.5,5.7-5.7,5.7c-3.1,0-5.7-2.5-5.7-5.7c0-3.2,2.5-5.7,5.7-5.7
			C594.3,251,596.9,253.5,596.9,256.6"/>
	</g>
	<g transform="matrix(0.999751,0,0,0.999751,0,0)">
		<path vector-effect="non-scaling-stroke" class="st1" d="M492.3,272.1l12,12 M504.4,272.1l-12,12"/>
	</g>
	<g transform="matrix(0.999751,0,0,0.999751,0,0)">
		<path vector-effect="none" class="st2" d="M785.7,245.3c0,3.1-2.5,5.7-5.7,5.7c-3.1,0-5.7-2.5-5.7-5.7s2.5-5.7,5.7-5.7
			C783.2,239.6,785.7,242.1,785.7,245.3"/>
	</g>
	<g transform="matrix(0.999751,0,0,0.999751,0,0)">
		<path vector-effect="non-scaling-stroke" class="st1" d="M773.9,239.3l12,12 M786,239.3l-12,12"/>
	</g>
	<g transform="matrix(0.999751,0,0,0.999751,0,0)">
	</g>
	<g transform="matrix(11.8081,0,0,11.8081,0,0)">
	</g>
	<g transform="matrix(11.8081,0,0,11.8081,0,0)">
	</g>
	<g transform="matrix(11.8081,0,0,11.8081,0,0)">
	</g>
	<g transform="matrix(1,0,0,1,0,0)">
	</g>
	<g transform="matrix(11.8081,0,0,11.8081,0,0)">
	</g>
	<g transform="matrix(11.8081,0,0,11.8081,0,0)">
	</g>
	<g transform="matrix(1,0,0,1,0,0)">
	</g>
</g>
<g id="Map_1:_br_x5F_clip_x5F__x5F_geoname__x28_Labels_x29_" inkscape:label="Map 1: br_clip__geoname (Labels)" inkscape:groupmode="layer">
	<g transform="matrix(1,0,0,1,0,0)">
	</g>
	<g transform="matrix(1,0,0,1,0,0)">
	</g>
	<g transform="matrix(11.8081,0,0,11.8081,0,0)">
	</g>
	<g transform="matrix(11.8081,0,0,11.8081,0,0)">
	</g>
	<g transform="matrix(0.999751,0,0,0.999751,0,0)">
	</g>
	<g transform="matrix(0.999751,0,0,0.999751,0,0)">
	</g>
	<g transform="matrix(0.999751,0,0,0.999751,0,0)">
	</g>
	<g transform="matrix(0.999751,0,0,0.999751,0,0)">
	</g>
	<g transform="matrix(0.999751,0,0,0.999751,0,0)">
	</g>
	<g transform="matrix(0.999751,0,0,0.999751,0,0)">
	</g>
	<g transform="matrix(0.999751,0,0,0.999751,0,0)">
	</g>
	<g transform="matrix(0.999751,0,0,0.999751,2431.2,1164.66)">
		<text transform="matrix(1.0002 0 0 1.0002 -1704.2924 -808.6586)" class="st4 st5">Engenho da Rainha</text>
	</g>
	<g transform="matrix(0.999751,0,0,0.999751,0,0)">
	</g>
	<g transform="matrix(0.999751,0,0,0.999751,0,0)">
	</g>
	<g transform="matrix(0.999751,0,0,0.999751,0,0)">
	</g>
	<g transform="matrix(0.999751,0,0,0.999751,0,0)">
	</g>
	<g transform="matrix(0.999751,0,0,0.999751,1664.74,1086.84)">
		<text transform="matrix(1.0002 0 0 1.0002 -1121.6385 -749.5001)" class="st4 st5">Marechal Hermes</text>
	</g>
	<g transform="matrix(0.999751,0,0,0.999751,0,0)">
	</g>
	<g transform="matrix(0.999751,0,0,0.999751,1989.12,563.819)">
		<text transform="matrix(1.0002 0 0 1.0002 -1368.2284 -351.905)" class="st4 st5">Parque Columbia</text>
	</g>
	<g transform="matrix(0.999751,0,0,0.999751,0,0)">
	</g>
	<g transform="matrix(0.999751,0,0,0.999751,0,0)">
	</g>
	<g transform="matrix(0.999751,0,0,0.999751,0,0)">
	</g>
	<g transform="matrix(0.999751,0,0,0.999751,0,0)">
	</g>
	<g transform="matrix(0.999751,0,0,0.999751,548.991,1144.24)">
		<text transform="matrix(1.0002 0 0 1.0002 -273.4577 -793.1351)" class="st4 st5">Senador Camara</text>
	</g>
	<g transform="matrix(0.999751,0,0,0.999751,0,0)">
	</g>
	<g transform="matrix(0.999751,0,0,0.999751,0,0)">
	</g>
	<g transform="matrix(0.999751,0,0,0.999751,1263.63,654.999)">
		<text transform="matrix(1.0002 0 0 1.0002 -816.7183 -421.2195)" class="st4 st5">Parque Anchieta</text>
	</g>
	<g transform="matrix(0.999751,0,0,0.999751,0,0)">
	</g>
	<g transform="matrix(0.999751,0,0,0.999751,0,0)">
	</g>
	<g transform="matrix(0.999751,0,0,0.999751,2430.85,640.607)">
		<text transform="matrix(1.0002 0 0 1.0002 -1704.0275 -410.2789)" class="st4 st5">Parada de Lucas</text>
	</g>
	<g transform="matrix(0.999751,0,0,0.999751,0,0)">
	</g>
	<g transform="matrix(0.999751,0,0,0.999751,2122.16,1252.4)">
		<text transform="matrix(1.0002 0 0 1.0002 -1469.3638 -875.3571)" class="st4 st5">Engenheiro Leal</text>
	</g>
	<g transform="matrix(0.999751,0,0,0.999751,0,0)">
	</g>
	<g transform="matrix(0.999751,0,0,0.999751,0,0)">
	</g>
	<g transform="matrix(0.999751,0,0,0.999751,2390.39,835.849)">
		<text transform="matrix(1.0002 0 0 1.0002 -1673.2695 -558.6994)" class="st4 st5">Praca do Carmo</text>
	</g>
	<g transform="matrix(0.999751,0,0,0.999751,0,0)">
	</g>
	<g transform="matrix(0.999751,0,0,0.999751,0,0)">
	</g>
	<g transform="matrix(0.999751,0,0,0.999751,0,0)">
	</g>
	<g transform="matrix(0.999751,0,0,0.999751,0,0)">
	</g>
	<g transform="matrix(0.999751,0,0,0.999751,1918.66,962.964)">
		<text transform="matrix(1.0002 0 0 1.0002 -1314.6653 -655.3311)" class="st4 st5">Rocha Miranda</text>
	</g>
	<g transform="matrix(0.999751,0,0,0.999751,0,0)">
	</g>
	<g transform="matrix(0.999751,0,0,0.999751,1665.25,1978.35)">
		<text transform="matrix(1.0002 0 0 1.0002 -1122.0256 -1427.2169)" class="st4 st5">Cidade de Deus</text>
	</g>
	<g transform="matrix(0.999751,0,0,0.999751,0,0)">
	</g>
	<g transform="matrix(0.999751,0,0,0.999751,1852.25,870.508)">
		<text transform="matrix(1.0002 0 0 1.0002 -1264.1812 -585.0471)" class="st4 st5">Honorio Gurgel</text>
	</g>
	<g transform="matrix(0.999751,0,0,0.999751,0,0)">
	</g>
	<g transform="matrix(0.999751,0,0,0.999751,2049.63,2038.68)">
		<text transform="matrix(1.0002 0 0 1.0002 -1414.2273 -1473.08)" class="st4 st5">Capim Melado</text>
	</g>
	<g transform="matrix(0.999751,0,0,0.999751,0,0)">
	</g>
	<g transform="matrix(0.999751,0,0,0.999751,0,0)">
	</g>
	<g transform="matrix(0.999751,0,0,0.999751,1804.36,2112.55)">
		<text transform="matrix(1.0002 0 0 1.0002 -1227.7761 -1529.2344)" class="st4 st5">Gardenia Azul</text>
	</g>
	<g transform="matrix(0.999751,0,0,0.999751,0,0)">
	</g>
	<g transform="matrix(0.999751,0,0,0.999751,0,0)">
	</g>
	<g transform="matrix(0.999751,0,0,0.999751,0,0)">
	</g>
	<g transform="matrix(0.999751,0,0,0.999751,1765.5,1125.09)">
		<text transform="matrix(1.0002 0 0 1.0002 -1198.234 -778.5776)" class="st4 st5">Bento Ribeiro</text>
	</g>
	<g transform="matrix(0.999751,0,0,0.999751,0,0)">
	</g>
	<g transform="matrix(0.999751,0,0,0.999751,1900.53,1191.32)">
		<text transform="matrix(1.0002 0 0 1.0002 -1300.8833 -828.9247)" class="st4 st5">Osvaldo Cruz</text>
	</g>
	<g transform="matrix(0.999751,0,0,0.999751,0,0)">
	</g>
	<g transform="matrix(0.999751,0,0,0.999751,2306.96,532.787)">
		<text transform="matrix(1.0002 0 0 1.0002 -1609.8473 -328.3149)" class="st4 st5">Vigario Geral</text>
	</g>
	<g transform="matrix(0.999751,0,0,0.999751,0,0)">
	</g>
	<g transform="matrix(0.999751,0,0,0.999751,1468.56,2154.09)">
		<text transform="matrix(1.0002 0 0 1.0002 -972.5045 -1560.8136)" class="st4 st5">Jacarepagua</text>
	</g>
	<g transform="matrix(0.999751,0,0,0.999751,0,0)">
	</g>
	<g transform="matrix(0.999751,0,0,0.999751,1722.74,660.98)">
		<text transform="matrix(1.0002 0 0 1.0002 -1165.7286 -425.7665)" class="st4 st5">Costa Barros</text>
	</g>
	<g transform="matrix(0.999751,0,0,0.999751,0,0)">
	</g>
	<g transform="matrix(0.999751,0,0,0.999751,0,0)">
	</g>
	<g transform="matrix(0.999751,0,0,0.999751,2712.07,1279.5)">
		<text transform="matrix(1.0002 0 0 1.0002 -1917.8075 -895.9583)" class="st4 st5">Higienopolis</text>
	</g>
	<g transform="matrix(0.999751,0,0,0.999751,0,0)">
	</g>
	<g transform="matrix(0.999751,0,0,0.999751,2420.41,799.325)">
		<text transform="matrix(1.0002 0 0 1.0002 -1696.0902 -530.9351)" class="st4 st5">Bras de Pina</text>
	</g>
	<g transform="matrix(0.999751,0,0,0.999751,0,0)">
	</g>
	<g transform="matrix(0.999751,0,0,0.999751,0,0)">
	</g>
	<g transform="matrix(0.999751,0,0,0.999751,2352.73,1007.31)">
		<text transform="matrix(1.0002 0 0 1.0002 -1644.6406 -689.0425)" class="st4 st5">Vila Cosmos</text>
	</g>
	<g transform="matrix(0.999751,0,0,0.999751,0,0)">
	</g>
	<g transform="matrix(0.999751,0,0,0.999751,1729.72,726.531)">
		<text transform="matrix(1.0002 0 0 1.0002 -1171.035 -475.597)" class="st4 st5">Barros Filho</text>
	</g>
	<g transform="matrix(0.999751,0,0,0.999751,0,0)">
	</g>
	<g transform="matrix(0.999751,0,0,0.999751,2624.24,1338.02)">
		<text transform="matrix(1.0002 0 0 1.0002 -1851.0399 -940.4445)" class="st4 st5">Del Castilho</text>
	</g>
	<g transform="matrix(0.999751,0,0,0.999751,0,0)">
	</g>
	<g transform="matrix(0.999751,0,0,0.999751,2248.81,743.021)">
		<text transform="matrix(1.0002 0 0 1.0002 -1565.6425 -488.1326)" class="st4 st5">Vista Alegre</text>
	</g>
	<g transform="matrix(0.999751,0,0,0.999751,0,0)">
	</g>
	<g transform="matrix(0.999751,0,0,0.999751,1891.96,775.521)">
		<text transform="matrix(1.0002 0 0 1.0002 -1294.3683 -512.839)" class="st4 st5">Coelho Neto</text>
	</g>
	<g transform="matrix(0.999751,0,0,0.999751,0,0)">
	</g>
	<g transform="matrix(0.999751,0,0,0.999751,2842.28,1126.34)">
		<text transform="matrix(1.0002 0 0 1.0002 -2016.7921 -779.5275)" class="st4 st5">Bonsucesso</text>
	</g>
	<g transform="matrix(0.999751,0,0,0.999751,0,0)">
	</g>
	<g transform="matrix(0.999751,0,0,0.999751,2262.5,1604.23)">
		<text transform="matrix(1.0002 0 0 1.0002 -1576.0488 -1142.8142)" class="st4 st5">Agua Santa</text>
	</g>
	<g transform="matrix(0.999751,0,0,0.999751,0,0)">
	</g>
	<g transform="matrix(0.999751,0,0,0.999751,296.051,1106.29)">
		<text transform="matrix(1.0002 0 0 1.0002 -81.1748 -764.2864)" class="st4 st5">Santissimo</text>
	</g>
	<g transform="matrix(0.999751,0,0,0.999751,0,0)">
	</g>
	<g transform="matrix(0.999751,0,0,0.999751,1444.19,1039.99)">
		<text transform="matrix(1.0002 0 0 1.0002 -953.9784 -713.8854)" class="st4 st5">Vila Militar</text>
	</g>
	<g transform="matrix(0.999751,0,0,0.999751,0,0)">
	</g>
	<g transform="matrix(0.999751,0,0,0.999751,0,0)">
	</g>
	<g transform="matrix(0.999751,0,0,0.999751,1894.09,1468.81)">
		<text transform="matrix(1.0002 0 0 1.0002 -1295.9869 -1039.8706)" class="st4 st5">Praca Seca</text>
	</g>
	<g transform="matrix(0.999751,0,0,0.999751,0,0)">
	</g>
	<g transform="matrix(0.999751,0,0,0.999751,1701.71,833.716)">
		<text transform="matrix(1.0002 0 0 1.0002 -1149.7424 -557.0782)" class="st4 st5">Guadalupe</text>
	</g>
	<g transform="matrix(0.999751,0,0,0.999751,0,0)">
	</g>
	<g transform="matrix(0.999751,0,0,0.999751,2223.25,1196.54)">
		<text transform="matrix(1.0002 0 0 1.0002 -1546.2113 -832.8933)" class="st4 st5">Cavalcanti</text>
	</g>
	<g transform="matrix(0.999751,0,0,0.999751,0,0)">
	</g>
	<g transform="matrix(0.999751,0,0,0.999751,2068.95,1347.28)">
		<text transform="matrix(1.0002 0 0 1.0002 -1428.9143 -947.4846)" class="st4 st5">Cascadura</text>
	</g>
	<g transform="matrix(0.999751,0,0,0.999751,0,0)">
	</g>
	<g transform="matrix(0.999751,0,0,0.999751,1830.91,1704.73)">
		<text transform="matrix(1.0002 0 0 1.0002 -1247.9583 -1219.2141)" class="st4 st5">Pechincha</text>
	</g>
	<g transform="matrix(0.999751,0,0,0.999751,0,0)">
	</g>
	<g transform="matrix(0.999751,0,0,0.999751,0,0)">
	</g>
	<g transform="matrix(0.999751,0,0,0.999751,1891.31,1320)">
		<text transform="matrix(1.0002 0 0 1.0002 -1293.8745 -926.7462)" class="st4 st5">Campinho</text>
	</g>
	<g transform="matrix(0.999751,0,0,0.999751,0,0)">
	</g>
	<g transform="matrix(0.999751,0,0,0.999751,1986.63,1278.27)">
		<text transform="matrix(1.0002 0 0 1.0002 -1366.3346 -895.024)" class="st4 st5">Madureira</text>
	</g>
	<g transform="matrix(0.999751,0,0,0.999751,0,0)">
	</g>
	<g transform="matrix(0.999751,0,0,0.999751,0,0)">
	</g>
	<g transform="matrix(0.999751,0,0,0.999751,0,0)">
	</g>
	<g transform="matrix(0.999751,0,0,0.999751,1910.16,1862.58)">
		<text transform="matrix(1.0002 0 0 1.0002 -1308.2036 -1339.2092)" class="st4 st5">Freguesia</text>
	</g>
	<g transform="matrix(0.999751,0,0,0.999751,0,0)">
	</g>
	<g transform="matrix(0.999751,0,0,0.999751,0,0)">
	</g>
	<g transform="matrix(0.999751,0,0,0.999751,0,0)">
	</g>
	<g transform="matrix(0.999751,0,0,0.999751,0,0)">
	</g>
	<g transform="matrix(0.999751,0,0,0.999751,1502.61,637.87)">
		<text transform="matrix(1.0002 0 0 1.0002 -998.389 -408.1981)" class="st4 st5">Anchieta</text>
	</g>
	<g transform="matrix(0.999751,0,0,0.999751,0,0)">
	</g>
	<g transform="matrix(0.999751,0,0,0.999751,0,0)">
	</g>
	<g transform="matrix(0.999751,0,0,0.999751,0,0)">
	</g>
	<g transform="matrix(0.999751,0,0,0.999751,0,0)">
	</g>
	<g transform="matrix(0.999751,0,0,0.999751,0,0)">
	</g>
	<g transform="matrix(0.999751,0,0,0.999751,2365.13,1319.78)">
		<text transform="matrix(1.0002 0 0 1.0002 -1654.0673 -926.579)" class="st4 st5">Abolicao</text>
	</g>
	<g transform="matrix(0.999751,0,0,0.999751,0,0)">
	</g>
	<g transform="matrix(0.999751,0,0,0.999751,2118.95,1027.07)">
		<text transform="matrix(1.0002 0 0 1.0002 -1466.9237 -704.064)" class="st4 st5">Vaz Lobo</text>
	</g>
	<g transform="matrix(0.999751,0,0,0.999751,0,0)">
	</g>
	<g transform="matrix(0.999751,0,0,0.999751,0,0)">
	</g>
	<g transform="matrix(0.999751,0,0,0.999751,1519.71,2018.25)">
		<text transform="matrix(1.0002 0 0 1.0002 -1011.3877 -1457.5493)" class="st4 st5">Curicica</text>
	</g>
	<g transform="matrix(0.999751,0,0,0.999751,0,0)">
	</g>
	<g transform="matrix(0.999751,0,0,0.999751,664.147,804.638)">
		<text transform="matrix(1.0002 0 0 1.0002 -360.9972 -534.9732)" class="st4 st5">Gericino</text>
	</g>
	<g transform="matrix(0.999751,0,0,0.999751,0,0)">
	</g>
	<g transform="matrix(0.999751,0,0,0.999751,1581.43,1724.06)">
		<text transform="matrix(1.0002 0 0 1.0002 -1058.307 -1233.9092)" class="st4 st5">Taquara</text>
	</g>
	<g transform="matrix(0.999751,0,0,0.999751,0,0)">
	</g>
	<g transform="matrix(0.999751,0,0,0.999751,0,0)">
	</g>
	<g transform="matrix(0.999751,0,0,0.999751,2344.12,1379.56)">
		<text transform="matrix(1.0002 0 0 1.0002 -1638.0955 -972.0236)" class="st4 st5">Piedade</text>
	</g>
	<g transform="matrix(0.999751,0,0,0.999751,0,0)">
	</g>
	<g transform="matrix(0.999751,0,0,0.999751,0,0)">
	</g>
	<g transform="matrix(0.999751,0,0,0.999751,0,0)">
	</g>
	<g transform="matrix(0.999751,0,0,0.999751,0,0)">
	</g>
	<g transform="matrix(0.999751,0,0,0.999751,2089.28,897.984)">
		<text transform="matrix(1.0002 0 0 1.0002 -1444.3693 -605.934)" class="st4 st5">Colegio</text>
	</g>
	<g transform="matrix(0.999751,0,0,0.999751,0,0)">
	</g>
	<g transform="matrix(0.999751,0,0,0.999751,2025.23,1066.6)">
		<text transform="matrix(1.0002 0 0 1.0002 -1395.6792 -734.1146)" class="st4 st5">Turiaca</text>
	</g>
	<g transform="matrix(0.999751,0,0,0.999751,0,0)">
	</g>
	<g transform="matrix(0.999751,0,0,0.999751,0,0)">
	</g>
	<g transform="matrix(0.999751,0,0,0.999751,1809.76,1623.14)">
		<text transform="matrix(1.0002 0 0 1.0002 -1231.8804 -1157.1907)" class="st4 st5">Tanque</text>
	</g>
	<g transform="matrix(0.999751,0,0,0.999751,0,0)">
	</g>
	<g transform="matrix(0.999751,0,0,0.999751,0,0)">
	</g>
	<g transform="matrix(0.999751,0,0,0.999751,2800.14,995.075)">
		<text transform="matrix(1.0002 0 0 1.0002 -1984.7573 -679.7422)" class="st4 st5">Ramos</text>
	</g>
	<g transform="matrix(0.999751,0,0,0.999751,0,0)">
	</g>
	<g transform="matrix(0.999751,0,0,0.999751,0,0)">
	</g>
	<g transform="matrix(0.999751,0,0,0.999751,0,0)">
	</g>
	<g transform="matrix(0.999751,0,0,0.999751,0,0)">
	</g>
	<g transform="matrix(0.999751,0,0,0.999751,755.549,1175.4)">
		<text transform="matrix(1.0002 0 0 1.0002 -430.4805 -816.8225)" class="st4 st5">Bangu</text>
	</g>
	<g transform="matrix(0.999751,0,0,0.999751,0,0)">
	</g>
	<g transform="matrix(0.999751,0,0,0.999751,0,0)">
	</g>
	<g transform="matrix(0.999751,0,0,0.999751,2715.92,869.676)">
		<text transform="matrix(1.0002 0 0 1.0002 -1920.7343 -584.4146)" class="st4 st5">Penha</text>
	</g>
	<g transform="matrix(0.999751,0,0,0.999751,0,0)">
	</g>
	<g transform="matrix(0.999751,0,0,0.999751,0,0)">
	</g>
	<g transform="matrix(0.999751,0,0,0.999751,0,0)">
	</g>
	<g transform="matrix(0.999751,0,0,0.999751,0,0)">
	</g>
	<g transform="matrix(0.999751,0,0,0.999751,2713.16,1010.02)">
		<text transform="matrix(1.0002 0 0 1.0002 -1918.6359 -691.1031)" class="st4 st5">Olaria</text>
	</g>
	<g transform="matrix(0.999751,0,0,0.999751,0,0)">
	</g>
	<g transform="matrix(0.999751,0,0,0.999751,0,0)">
	</g>
	<g transform="matrix(0.999751,0,0,0.999751,0,0)">
	</g>
	<g transform="matrix(0.999751,0,0,0.999751,2047.2,679.985)">
		<text transform="matrix(1.0002 0 0 1.0002 -1412.3799 -440.2131)" class="st4 st5">Acari</text>
	</g>
	<g transform="matrix(0.999751,0,0,0.999751,0,0)">
	</g>
	<g transform="matrix(0.999751,0,0,0.999751,2970.67,1081.66)">
		<text transform="matrix(1.0002 0 0 1.0002 -2114.3928 -745.5623)" class="st4 st5">Mare</text>
	</g>
	<g transform="matrix(0.999751,0,0,0.999751,0,0)">
	</g>
	<g transform="matrix(0.999751,0,0,0.999751,2236.32,853.199)">
		<text transform="matrix(1.0002 0 0 1.0002 -1556.1471 -571.8886)" class="st4 st5">Iraja</text>
	</g>
	<g transform="matrix(0.999751,0,0,0.999751,0,0)">
	</g>
	<g transform="matrix(11.8081,0,0,11.8081,0,0)">
	</g>
	<g transform="matrix(11.8081,0,0,11.8081,0,0)">
	</g>
	<g transform="matrix(11.8081,0,0,11.8081,0,0)">
	</g>
	<g transform="matrix(1,0,0,1,0,0)">
	</g>
	<g transform="matrix(11.8081,0,0,11.8081,0,0)">
	</g>
	<g transform="matrix(11.8081,0,0,11.8081,0,0)">
	</g>
	<g transform="matrix(1,0,0,1,0,0)">
	</g>
</g>
</svg>
