<?xml version="1.0" encoding="utf-8"?>
<!-- Generator: Adobe Illustrator 19.0.0, SVG Export Plug-In . SVG Version: 6.00 Build 0)  -->
<svg version="1.1" id="Layer_1" xmlns:inkscape="http://www.inkscape.org/namespaces/inkscape"
	 xmlns="http://www.w3.org/2000/svg" xmlns:xlink="http://www.w3.org/1999/xlink" x="0px" y="0px" viewBox="92 99 795 595"
	 style="enable-background:new 92 99 795 595;" xml:space="preserve">
<style type="text/css">
	.st0{fill:none;stroke:#000000;stroke-width:0.1417;stroke-linecap:square;stroke-linejoin:bevel;}
	.st1{font-family:'Karla';}
	.st2{font-size:5.9992px;}
	.st3{fill:#FF0000;}
	.st4{font-size:10px;}
</style>
<g id="Map_1:_line_x5F_D13315_x5F__x5F_394_x5F__x5F_7novembre2023" inkscape:label="Map 1: line_D13315__394__7novembre2023" inkscape:groupmode="layer">
	<g transform="matrix(1,0,0,1,0,0)">
	</g>
	<g transform="matrix(1,0,0,1,0,0)">
	</g>
	<g transform="matrix(11.8095,0,0,11.8095,0,-1.67823e-13)">
	</g>
	<g transform="matrix(11.8095,0,0,11.8095,0,-1.67823e-13)">
	</g>
	<g transform="matrix(0.999873,0,0,0.999873,0,-1.67823e-13)">
	</g>
	<g transform="matrix(0.999873,0,0,0.999873,0,-1.67823e-13)">
		<path vector-effect="none" class="st0" d="M305.3,404.1L305.3,404.1L305.3,404.1l0.1,0.5v0.1l-0.2,0.8l0.8-0.2v-0.1l0.4-0.4
			l-1.5,0.7l-0.5,0.2h-0.1l0,0v0.1l0,0l0.1-0.1l0,0l0,0v-0.1l0,0l0,0l0,0l0,0l0,0l0,0l0,0l0,0l0,0l0,0l0,0l-0.2,0.1l-0.2-0.1
			l-0.7-0.8v-0.2l0.1-0.2l0.2-0.1l0.8-0.4l0.2-0.3v-0.3l-0.3-0.4l-0.2-0.1h-0.2l-4.7,3.3l-8.2-1.3l-6-1.1v-0.4l0.5-3l-1.4-1.8
			l-0.9-0.2l-1.6-0.3l-0.1-0.4l-0.6-6l-0.7-7.8l0.8-0.2l9.7-0.7v-0.8l0.5-4.4l0.5-0.4l0.6-0.8l-0.1-0.2l-0.6-0.5l-0.6-0.1l-10.7-2.3
			l-13.1-3.5l-13-3.6l-12.9-3.5l-12.8-3.4l-13-3.5l-13.4-3.7l-12.6-3.5l-13.1-3.6l-12.9-3.4l-13.4-2.3l-7.7-0.2l-4.3,0.8l-0.3,0.2
			v0.3l1.2,2.9l0.2,0.2h0.2l0.2-0.4l0.2-1.3l0,0l0,0l0,0l0,0l0,0l0,0l0,0l0,0l0,0l0,0l0,0l0,0l0,0l0,0l0,0l0.1-0.4l0.3-0.1l7.7-1.4
			l12.8,1.4l3.8,1l9,2.5l10.6,3.7l1.9,0.5l8.3,2.3l8.4,1.4l8.5,2.5l6.8,1.8l3.2,0.8l10.9,2.9l13.4,3.7l4.4,1.3l10.3,2.9l3.6,0.9
			l6.8,1.9l6.9,1.8l11.7,3.8l4.6,1.2l9-0.9l12.4-3.3l12-4.1l12.6-5.8l11.9-5.5l12.4-5.8l12.7-3.6l12.5-3.5l10.5-7.6l3.9-2.1l9.3-5.4
			l11.7-6.6l9.2-5.4l8.9-5l11.8-6l12.7-4l11.2-3.9l11.3-3.7l11.1-3.4l2.7-0.9l10.9-3.5l12.6-3.4l12.9-3.5l12.7-2.3l12.7,0.7
			l11.7-5.3l6.5-2.1l6.2-1.1l11.9-2.2l10.1,1.7l11.2,6.4l6.5,6.5l3.4,3.5l9,8.7l9.4,9.3l10.1,9.8l11.3,7.7l10.7,7.5l10.8,8.1
			l8.4,11.3l6.8,11l0.1,3.1l-1.6,10.6l-0.8,7.7l-0.9,8l-1.2,12.7v2.8l0.7,7.5l1.2,6.4l4.5,7.7l6.4,11l0.4,1l0.2,0.2l4,7.5l7.4,10.9
			l2.9,3.8l3.7,2.9l4.8,0.4l3.8-2.4l3.8-2.2l0.4,0.1l1.9,3l1.5,2.5l5.2,8.3l2.5,4.2l2.7,4.2v0.2l0.2,0.3l0.2,0.1h0.2l4-3.7l0.1-0.4
			l-0.2-3.8l2.3-1.7l0.6,0.2l0.5,0.9l4,11.1l1,3.3l-0.3,0.3l-3.5,1.7v0.2l2.4,4.7l1.5,3.1l-0.4,0.3l-4.9,3.4l-4.6,6.8l0.4,2.9h0.4
			l0.3-0.3l9.8-3.7l7.4-2.5l0.8-0.2l0.3,0.2v0.2l-0.3,10.8l-0.1,3.2l0.2,5.5l1.1,2.2l2.1,1l8.5-1.8l11.1-2.9l12.6-3.4l4.5-1.1
			l0.1-0.1h0.3l0.1,0.1l0.1,0.2l1.4,7.2l1.2,6.3l2.1,3.4h0.4l3.2-0.8l1.1,0.4l0.4-0.4l0.6-1l4.6-1.4l6-2l0.6-0.3v-0.4l-0.5-2.3
			l0.2-0.2l1.7-0.2l0,0l0,0l0,0l0,0V528v-3.9l-0.4,0.2l-8.3,2.1l-6.2,1.1l-2.6-3.8l-1.7-6.5l-0.5-0.2l-9.8,2.6l-12.9,3.3l-11.9,3.2
			l-4.1,1.3l-3.4-1l-0.7-1.2l0.4-11.3l0.2-10.9v-4.8l-0.1-0.2l-0.4-0.5L781,493l-3.1-7.9l-1.6-4.5l-3-7.6l-2.4-1l-11.8-2.5l-7.1-8.9
			l-1.6-1.2l0,0l-1.3,0.1l-9.4,5l-3.8-0.3l-2.7-2.2l-7.9-10.6l-6.9-12.4l-3.3-6.1l-0.1-0.1l0,0l0,0l0,0l-0.1-0.1l-1.3-1.7l-6.3-10.8
			l-1.8-13.4l0.8-11.9l1.3-12.3l1.3-11.5l0.5-10.6l-7.1-11.1l-8.5-11.3l-6.2-5.1l-8.4-5.6l-11.6-8l-7.4-5.4l-6.3-6l-2.3-2.3l0,0
			l-0.2-0.2l-2.8-2.9l-7.7-7.5l-5.2-5.2l-4.7-4.7l-5.1-4.9l-8.8-7.5l-4.8-1.5l-9.4-2.3l-13.3,2.2l-12.9,3.1l-3.7,2l-10.4,3.7
			l-5.2-0.5l-11-0.2l-10.2,3l-8.2,2.3l-8.6,2.3l-6.3,1.8l-2.4,0.6l-8.4,2.6l-3.6,1.2l-10.5,3.5l-12.9,4.2l-7.1,2.3l-6.6,2.1L449,310
			l-11.9,6.7l-11.9,6.7l-2.8,1.6l-8.4,4.9l-9.4,5.5l-11,6.9l-10.8,6.8l-12.8,1.8l-12.1,5.3l-12.4,5.6l-12.3,5.8l-12.6,5.3l-13,3.6
			l-12.5,1.5l-3.1-0.7l-7-1.8l-12.9-3.4l-12.6-3.4l-4.3-1.2l-10.6-2.9l-5.4-1.6l-6.2-1.6l-7.6-2l-11.6-3.2l-12.1-3.3l-9-3.1
			l-6.3-1.8l-4.7-1.2l-12.6-2.8l-6.9-1.9l-8.1-1.5l-10.3-0.8l-4.3,0.6l-2.3,0.6l-0.1,0.3l0.4,1l1,2.2h0.2l0.1-0.1l0.1-0.4l0.2-0.8
			l0,0l0,0l0,0l0,0l0.1-0.3l0,0l0,0l0,0l0,0l0,0l0,0l0,0l0,0l0,0l0,0l0.1-0.5l5.4-1.4l11.5-0.9l6.8,1.6h0.1l3.3,0.8l10.5,2.9l8.1,3
			l0,0l2.4,0.6l10.2,2.5l10.7,2.5l9.7,2.7l2.3,0.6l9.8,2.6l2.4,0.7l5.5,1.4l8.8,2.4l1.6,0.5l6.1,1.6l5.8,1.6l4.1,1.1l9.2,2.5
			l5.1,1.4l8.6,2.6l5.7,1.8h0.6l9.1-0.9l12.6-2.7l12.8-4.4l12.1-5.6l7.4-3.5l0.3-0.1l0.6-0.3l0.2-0.1l3.4-1.6l2.7-1.2l3.8-1.6
			l2.9-1.5l5.7-2.7l1.4-0.6l0.8-0.3l3.9-0.8l6.3-0.8l5.2-0.9l2.6-1.2l2.4-1.6l2.4-1.9l2.9-2.3l6.5-3.7l7-4l7-4l6-3.4l4.6-2.6
			l8.3-4.9l8.8-5l8.5-4.5l4.1-1.4l3.9-1.3l8.7-2.7l7.9-2.7l11.6-3.8l2.9-0.9l2.1-0.8l8.1-2.4l2.2-0.7l10.3-3.3l3.7-1l3.7-1.1
			l9.6-2.7l3.5-0.9l4.7-1.3l8.2-2.1l1.7-0.4h0.1l1.5-0.2h0.3h2.6l1,0.1l1,0.1l1.4,0.1l2.2,0.2l1.5,0.2l1.8,0.1l1.7,0.1l1.5-0.1
			l1.1-0.1l4.2-1.1l3.4-1.9l3.5-2.1l9.1-2.7l12.5-2.2l7-0.6L517.7,288l90.2-18.3l1,0.4l4.3,1.4l8.5,4.3l3.6,3.8l0.4,0.4l0.6,0.6
			l0.5,0.4l0.7,0.7l0.5,0.6l0.6,0.6l0.8,0.8l0.5,0.5l2.1,2.2l5.5,5.3l3.5,3.4l6.5,6.5l0.5,0.5l0.9,0.9l5.3,5.2l4.2,4.4l2.8,2.4
			l7.5,5.1l2,1.3l6.6,4.6l2.1,1.4l5.3,3.7l3,2l4.4,3.2l2.1,2l2.6,3.2l1.3,1.8l1.5,2l1.1,1.7l0.5,0.8l1.6,2.1l1.3,1.7l1.9,2.7l2,2.8
			l1.7,4l0.1,0.8l-0.5,5l-1.1,8.4l-0.2,2.1l-0.2,1.9l-0.3,2.2l-0.2,4.7l-0.8,7.7l-0.2,1.7l-0.4,4l-0.3,4v0.3l0.2,3.4l0.8,9l0.9,3.4
			l2,3.5l0.1,0.1l0.2,0.2l1,1.6l0.3,0.4l0.4,0.6l0.5,0.7l0.5,0.8l0.9,1.7l1.6,2.6l3.4,5.8l0.7,1.8l4.4,7.8l7.4,10.8l2.7,3.7l3.8,2.7
			l4.3,0.2l1.9-0.8l1-0.7l1.1-0.9l1.4-0.9l2.3-1.3l0.4,0.2l1.7,2.1l1.5,2.6l3.2,5.1l2.3,4h0.1v0.1l2.8,4.9l1,0.7l0.2-0.1l4.5-3.7
			l3.7-2.8l0.5,0.2l1.2,2.8l4.2,11.3l-0.1,1.4l-3.8,1.8l0.1,0.2l1.2,2.7l2.4,4.9l-0.2,0.2l-3.4,1.8l-1.8,2.1l-3.5,4.1l-0.8,2
			l0.2,3.1l0.2,0.2l0.3,0.1l0.3-0.2l0.3-0.3l2.1-0.9l2.6-0.9l1.5-0.5l6.6-2.3l4.2-1.4h0.3l0.4-0.2l0.2,0.1l0.1,0.2l0.2,4.7l-0.1,2.9
			v5.8l-0.1,2l-0.1,0.3v2.8l0.5,2.7l1.3,1.2l2.5,0.5l3.6-0.8h0.2h0.2l0.3-0.1l0.5-0.2l6.8-1.6l2.5-0.8l4.5-1.3l6.2-1.6l6-1.6l0,0
			l3.1-0.9l0.4-0.1h0.1l0.4-0.1l1.1-0.3l0.2,0.1l0.1,0.2l0.8,4.6l0.4,2.5l0.7,3.1l0.3,1.2l1.8,4.4l0.4,0.9v-0.1l0.3,0.3l1.9-0.5h0.1
			l1.4-0.4l0.6,0.1l0.5,0.5l0.3-0.1l0.7-0.5l0.3-0.9l3.7-1l1.3-0.4l2.8-0.8l3-1.2l0,0l0.7-0.2v-0.2l-0.5-2.6l0.2-0.1l1.5-0.1l0,0
			l0,0l0,0v-0.1l0,0l0,0v0.1v0.1l0,0l0,0l0,0v0.1l0.1-0.1l0,0l0,0l0,0l0,0l0,0l0,0l0,0l0,0l0,0l0,0l0,0l0,0l0,0l0,0l0,0l0,0l0,0l0,0
			l0,0l0,0l0,0l0,0l0,0l0,0l0,0l0,0l0,0l0,0l0,0h0.1h0.1l0.2-0.2l0.2-3.5l-0.2-0.2l-6.4,1.6l0,0l-2.8,0.6l-4.7,1l0,0l-0.9,0.1
			l-2.9-4l-0.9-4.8l0,0l0,0l-0.9-1.7l-0.6-0.1l-2,0.5l-2.8,0.7l0,0l-2,0.6h-0.1l0,0l-5.8,1.6l-9,2.4l-9,2.5l-8.1,2.1l-3.1-1
			l-0.4-0.6v-2l0.1-3.5V519v-6.4l0.3-6.4v-0.5v-0.2v-0.8l-0.1-1v-0.4l-0.1-2.7v-0.4l0.1-0.5v-0.1v-1.5l-0.6-0.8l-5.2-4.1l-1.6-4.4
			l-0.4-0.7l-0.1-0.3l-2.1-6.1l-0.2-0.6l-2.7-7.2l-2.1-1.8l-10.9-1.8l-2.1-1.1l-6.7-8.7l-1.1-1l-1.9-0.3l-4.6,1.9l-4.4,3.1l-3.9-0.2
			l-3-2.1l-2.4-3.5l-6.7-8.9l-2.4-4.7l-4-7.4l-2.6-4.7l-2.3-3.6l-4.9-8l-2.1-11v-9l1.1-10.6l0.8-8.1l0.6-4.9l0.2-3.3l1.7-9.4
			l-1.5-7.1l-5.3-7.6l-7-9.5l-6.3-6.2l-0.8-0.6l-1.1-0.8l-1.6-1.1l-1.8-1.2l-7.6-5.3l-9.9-6.9l-8.3-6.5l-7.7-7.5l-2.4-2.4l-5.9-5.7
			l-8-8l-5.2-5l-6.1-6l-6-4.9l-0.5-0.2l-5.3-2.2l-8.2-2.4l-12.1,1.9l-11.6,2.3l-4.5,1.7l-4.3,2.4l-7.3,2.9l-8.6-0.4l-10.3-0.1
			l-10.3,3l-9.4,2.6l-5.4,1.5l-0.7,0.2l-1,0.3l-1.4,0.4l-2.3,0.6l-1.1,0.3l-1.9,0.6l-3.7,1.1l-3.5,1.1l-3.9,1.2l-3.3,1.1l-5.9,1.9
			l-9.5,3.3l-10,3.1l-2.8,0.7l-3,1.1l-1.9,0.7l-3.2,1.1H462l-1.6,0.5l-0.3,0.2l-2.9,1l-4.5,1.4l-3.1,1.5l-1.5,0.9l-4.8,2.6l-3.5,2
			l-7.9,4.4l-5.5,3.2l-3.1,1.7l-5.3,3.1l-5.5,3.1l-4.6,2.6l-5.4,3.2l-1.1,0.6l-2.3,1.4l-1.9,1.1l-2.4,1.8l-5.8,4.7l-7.2,2.8
			l-3.8,0.4l-0.7,0.1l-2.2,0.3l-6.3,1.2l-2.2,1.1l-2.2,1l-5.2,2.4l-5.6,2.6l-5,2.3l-6.6,3.2l-9,4.2l-9.3,4l-10.3,3.1l-10.4,2.2
			l-6.6,0.6l-2.8-0.6l-1-0.2l-0.9-0.6l-6.5-1.2l-7.8-2.1l-6.6-1.8l-8.9-2.4l-6-1.7L248,364l-7.4-2.2l-4-1l-3.9-1.1l-8.9-2.5
			l-4.1-1.1l-6.3-1.7l-9.4-2.6l-8.8-2.7l-5.6-1.6l-7.4-2l-8.7-1.7l-7.6-2.1l-9-2.1l-6-0.7l-6.4-0.5l-4,0.6l-0.3,0.1l-0.3,0.1
			l-1.6,0.3l-0.3,0.2v0.2l0.5,1.7l0.4,0.7l0.3,0.6l0.1,0.1h0.1l0.2-0.2l0.1-0.2v-0.5l0.1-0.5l0.1-0.5v0.2l0,0l0,0l0,0l0,0l0,0l0,0
			l0,0l0,0l0,0l0,0l0,0l0,0l0,0l0,0l0,0l0,0l0,0l0,0l0,0l0,0l0,0l0,0l0,0l0,0l0,0l0,0l0,0l0,0l0,0l0,0l0,0l0.1-0.3l0.1-0.1l5.3-1.3
			l6-0.1l3.1,0.2l8.1,1.5l2.4,0.8l8,2.2l8.1,2.8l4.3,1.4l1.1,0.2l7.5,2l9.1,1.7l9.9,2.7l5.9,1.6l4.9,1.3l9.2,2.5l9.3,2.6l4.9,1.3
			l0.9,0.3l4.9,1.3l8.7,2.3l8.7,2.4l8.2,2.2l8.8,2.7l3.9,1.5l4,0.2l8.5-0.9l10.4-2.2l10.8-3.5l10.3-4.5l9.8-4.5l10.4-4.8l11.1-5.1
			l3-1.4l6.9-1.1l10.6-2.2l8.4-6.3l7.6-4.2l2.5-1.5l3-1.7l3.6-2.1l4.8-2.7l2.2-1.2l5.3-3.2l3.7-1.9l3.1-1.8l8.2-4.8l5.2-2.8l7.7-4.1
			l10.4-3.6l10.5-3.4l10.6-3.5l11.1-3.6l7.7-2.3l4.6-1.6l8.9-2.5l1.4-0.3l2.9-0.8l7.6-2.2l5.1-1.5l2.7-0.7l3-0.9l1.1-0.3l3.4-0.8
			l4.7-1.2l8.8-0.2l10.2,0.3l9.3-4.4l10.4-3.4l12-2.2l10.8,0.2l6.3,2.2l5.1,2.5l5.4,5.3l2.1,2l2.4,2.3l4.4,4.4l5.7,5.6l2.5,2.4
			l2.7,2.8l3,2.9l4.7,4.8l4.6,4.5l8.3,6.6l9,6.2l5.6,3.8l0.8,0.6l0.9,0.6l1.1,0.8l0.8,0.6l1.3,1l1.4,0.9l3.7,2.5l2.6,2.2l1.3,1.4
			l2.1,2.9l1.1,1.7l1.1,1.5l0.5,0.8l1.4,2l0.9,1.1l0.8,1l2.5,3.4l2.5,3.7l1.7,3.9l-0.3,4l-1,5.7l-0.4,4.3l-0.4,4.7l-0.3,2.7
			l-0.3,3.4l-0.1,0.9l-0.3,2.5l-0.1,0.5l-0.1,1.9l-0.2,1.8v0.2l-0.1,0.6l-0.4,4l-0.1,2l-0.3,3.3l0.2,4.3l0.5,6.2l1.5,6.3l2.4,4
			l0.7,1.2l1,1.5l1.1,1.8l1,1.8l2.7,4.4l3,5.6l3.4,6.2l5,7.7l4.5,6.3l3.4,2.9l4.1,1l2.1-0.5l1.5-0.7l1.4-1l3.6-2.4l0.8-0.1l1,0.7
			l2.3,3.5l3.8,6.1l1,2.3l0,0l0.2,0.3l0.1,0.1l0.9,0.9l3.5,5.7h0.2l0.2-0.1l3.8-3.3l4.2-3.2l0.5,0.2l0.4,0.5l3.5,9.8l1.6,5l-0.2,0.3
			l-3.7,1.8l0.1,0.2l2.2,4.6l1.5,3.1l-0.2,0.2l-4.5,2.9l-2.9,3.4l-1.1,1.3l-0.3,0.2l-0.8,2.1l0.1,3.2l0.3,0.2h0.3l0.3-0.2l1.1-0.8
			l1.3-0.4l3.9-1.4l0,0l0.3-0.1l7.4-2.6l4-1.3l0.3-0.1l0.1,0.1l0.2,6.1v5.1l-0.1,3.2l-0.1,2.6l0.7,4.5l1.5,1.1l2.5,0.2l4.2-0.9
			l5.1-1.3l7.3-2.1l5.9-1.5l4-1l4.3-1.2l3.2-0.9l0.4-0.1l0,0l1.1-0.2l0.1,0.2l0.6,3.8l0.9,4.4l0.2,1.5l1.3,4.8l1.2,1.6h-0.1l0,0
			l0.5,1h0.3l0.8-0.3l0.8-0.3l0.9-0.1h0.1l0,0l0.3-0.2h0.1l0.5,0.1l0.6,0.4l0,0l0.1-0.1l1.7-1.2l7.1-2.1l2.1-0.9l1.8-0.7v-0.3
			l-0.6-2.3l0.2-0.2l1.3-0.1l0,0l0.2-0.1l0,0l0,0l0,0l0,0l0,0l0,0h0.1l0,0v0.1l0,0v-0.1v0.1l0,0l0,0v-0.1l0,0l0,0v0.1l0,0l0,0l0,0
			l0,0l0,0v-0.1l0,0v0.1l0,0h-0.1l0,0h0.1h0.1l0,0l0,0l0,0l0,0l0,0l0,0l0,0l0,0l0,0l0,0l0,0l0,0l0,0l0,0l0,0l0,0l0,0l0,0l0,0l0,0
			l0,0l0,0l0,0l0,0l0,0l0,0l0,0l0,0l0,0l0,0l0,0l0,0l0.1-0.1l0.5-3.5l-0.3-0.2l-0.6-0.1l-5.9,1.4l-0.4,0.1l0,0l-0.9,0.3l-5.3,1.1
			l-0.6,0.1l-1,0.2l-0.2-0.1l-0.3-0.4l-2.3-2.9l-0.9-4.4v-0.2l0,0l-0.5-2l-0.6-0.6l-0.4-0.1l-1.6,0.4l-3.4,1l-4.9,1.3l-6.9,1.9
			l-5.6,1.4l-7.1,2l-5.8,1.4l-4.3,0.8l-2.5-1l-0.3-0.5l0.1-2.2v-2.2v-5.1l0.2-8.6l0.1-3.7v-1.5v-0.3v-1.1l-0.1-0.7l0.1-1.1l0,0
			l-0.3-1.6l-0.2-0.2l-0.4-0.1l-1.5-0.4l-3.5-4l-2.4-6.9l0,0l0,0l-0.5-0.7l-1.5-4.1l-0.5-1.3l-3.2-7.2l-4.1-1.1l-5.2-0.6l-4.5-1.6
			l-4.1-5.2l-3.8-4.6l-2-0.2l-4,1.6l-2.1,1.6l-3.6,1.8l-3.7-0.6l-3-2.9l-0.4-0.5l-0.8-1.1l-3.6-5l-3.5-4.5l-4.2-7.6l-3.2-6.2
			l-0.6-1.1l-0.8-1.4l-0.2-0.3l-2.1-3.1l-4.6-7.5l-2.7-8.2l-0.1-1l-0.2-3.6l-0.2-3.3l0.1-3l0.6-6.7l0.5-7.3l0.7-6.4l0.8-7.8l1.2-6.4
			l0.1-8.8l-1.1-2.5l-3.8-5.4l-2.1-2.9l-3.9-5.3l-2.8-4l-3.1-3.2l-5.1-3.9l-3-2l-6.7-4.7l-3.5-2.5l-3.7-2.4l-5.2-3.7l-1.1-0.9
			l-1.5-0.9l-6.1-5.2l-7.2-7.4l-2.6-2.6l-6.7-6.4l-3.3-3.3l-4.3-4.3l-1.5-1.4l-5.7-5.6l-7.2-6.4l-1.6-0.8l-3.6-1.1l-4.9-1.9
			l-4.8-0.7l-11,1.8l-11.7,2.2l-4.3,1.6l-0.6,0.4l-6.3,3.6l-7.1,1.6l-3.9-0.5l-4.6-0.3l-8.6,0.3l-9.7,3l-10.4,2.8l-9.2,2.5l-4.5,1.3
			l-7.8,2.4l-2.5,0.8l-2.5,0.9l-9.2,3l-11.3,3.7l-7.9,2.3l-0.2,0.1l-0.3,0.2l-8.3,2.7l-11.7,4.1l-9.7,5.4l-3.4,2l-8.5,4.8l-2.6,1.5
			l-3.1,1.7l-2.5,1.4l-3.7,2.1l-1.9,1.1l-1.7,1l-0.2,0.2l-0.6,0.3l-0.5,0.3l-2,1.2l-1.6,0.9l-1.9,1.1l-6.2,3.5l-6.7,4.7l-7.4,5.4
			l-8.5,1.8l-8.9,1.5l-8.9,4.2l-10,4.6l-9.3,4.4l-10.1,4.7l-9.2,3.7l-11.1,3.2l-11.6,2.1l-5.8-0.6l-0.5-0.3l-0.6-0.4l-6.6-1.3
			l-8-2.1l-8.9-2.4l-9.8-2.7l-3.5-0.9l-5.6-1.5l-7.2-2l-8.4-2.3l-2.3-0.5l-10-2.8l-2.5-0.7l-10.2-2.7l-11.9-3.8l-7.2-2.1l-2.3-0.7
			l-8.9-1.9l-11.5-2.9l-11.7-2.6l-5.5-0.8l-6.8-0.4l-2.8,0.4l-1.8,0.3l0,0l-0.9,0.2l-0.1,0.2l0.5,1.7l0.9,1.5h0.1l0.1-0.1l0.1-0.3
			l0.1-0.9l0,0v0.1l0,0l0,0l0,0l0,0l0,0l0,0l0,0l0,0l0,0l0,0l0,0l0,0l0,0l0,0l0,0l0,0l0,0l0,0l0,0v-0.6l0.2-0.2l4.9-1.3l7.8-0.1
			l10.5,1.9l2.3,0.7l10.2,2.8l9.7,3.5l4,1l11.2,2.4l10.9,2.9l10.6,2.9l10.5,2.9l10.6,2.9l5.1,1.5h0.4l7.6,2.1l9.4,2.5l9.4,2.6
			l8.2,2.2l8.4,2.9l3.8,0.3l10.2-1.4l11.6-2.8l10.6-3.8L338,365l10.7-4.9l10.5-4.9l9.7-4.5l4.7-1l10.6-1.5l9.4-6l9.2-5.6l6.4-3.6
			l6.8-3.9l7.5-4.2l2.4-1.4l2.7-1.5l5.2-3.1l3.1-1.6l7.3-4.4l3.8-2.3l12.4-4.8l11.9-3.7l12-4.1l10.6-3.5l8.8-2.7l11.3-3.4l3.5-1.1
			l9.8-2.7l10.4-2.8l6.8-1.7l8.5-1l9.8,0.8l8.8-2.7l4.4-2.6l11.2-3l12.1-2.3l10.1,1.1l7,2.4l6.7,5.5l3.5,3.5l1.1,1l1.1,1.1l6.2,5.9
			l7.9,7.9l8.1,8l7.3,7.3l10.3,7.4l9.9,6.9l9.4,6.5l8,7.7l1.3,2l0.4,0.4l0.3,0.5l0.3,0.4l0.2,0.4l0.2,0.5l0.4,0.5l0.4,0.5l0.3,0.4
			l0.1,0.2l0.2,0.3l0.3,0.4l0.5,0.7l4.8,6.8l2.9,7.2l-1.8,11.4l-0.5,4.8l-0.8,9.1l-1.2,11.4l-0.2,5.2l0.4,7.3l2.7,10.3l4.8,7.7
			l4.2,7.1l4.8,9l6.5,9.8l7.6,8.4l4.4,0.5l8.2-4.6l0.9,0.4l1.4,2.5l-0.1-0.2l0.2,0.1l3.2,5.2l3.5,5.8l0,0l3.3,5l0.6,0.7l0.2-0.1
			l5.1-3.8l3.4-2.4l0.4,0.2l1.3,2.9l3.9,11.3v1l-0.3,0.2l-0.2-0.1l0,0l0,0l-3.2,1.6l-0.2,0.2v0.3l2,4.3l1.8,3.3l-0.2,0.2l-3.8,2.3
			l-2.9,3.5l-1.6,1.8l-0.1,0.2l-1.2,2l0.1,3.3l0.2,0.2h0.3l0.4-0.2l1-0.6l5.3-2l8.6-3l3.2-1l0.2,0.2v0.3l0.1,5.5l-0.1,4.7l0.1,1.5
			v0.1l-0.1,2.6l0.1,6l0.7,1.3l2.3,1l5.6-1l6.3-1.6l8.4-2.5l3.2-0.8l5.6-1.4l6.5-1.8l1.3-0.3l0.2,0.2l0.2,0.9l0.3,1.2l0.2,0.9
			l0.2,1.8l0.3,1.8l0.5,2.7l0.7,3.4l1,2.4l1.7,2l0.4-0.2l2.9-0.8l0.1,0.2l0.6,0.3l0.4-0.3l0.4-0.6l0.3-0.4l6.2-1.9l0.5-0.3l0,0l0,0
			l0,0l0,0l0.2-0.1l1.5-0.3l1.1-0.4l0.3-0.1l0.5-0.3l1-0.4l0.1-0.5l-0.5-2.3l0.4-0.2l1.4-0.2l0,0l0,0l0,0l0,0l0,0l0,0l0,0l0,0l0,0
			l0,0l0,0l0,0v0.1l0,0v0.1l0,0l0,0l0,0l0,0l0,0l0,0v-0.1l0,0l0,0l0,0l0,0l0,0l0,0l0,0l0,0l0,0l0,0l0,0l0,0l0,0l0,0l0,0v-0.1
			l0.2-0.2l0.5-3.1l-0.1-0.5l-0.1-0.1l-3,0.7l-5.6,1.3l-4.9,1l-0.8,0.2H834l-0.5-0.4l-2.1-2.8l-0.5-1l-0.7-3.9l-0.1-0.6l-0.7-1.8
			l-0.4-0.2l-4.6,1.2l-0.3,0.1l-6.3,1.7l-3.1,0.9l-1,0.3l-3,0.8l-6.3,1.6l-2,0.6l-2.5,0.7l-1,0.4l-1.8,0.5l-1.5,0.4l-1.4,0.3
			l-1.7,0.6l-1.1,0.4l-1.1,0.2l-3.3-1l-0.4-0.7l0.2-1.9v-0.7v-0.3v-3.3l0.2-8.5l0.2-6.6l-0.1-0.6l0.1-5.1l-0.3-0.9l-0.4-0.3
			l-5.4-4.5l-1.8-4.9l-1.4-4.2l-1-2.8L775,475l-2.3-3l-4-1l-6.2-0.8l-3.1-1.2l-5.1-6.5l-1.6-2l-1.5-1.5l-1.1-0.2h-0.4l-2.5,0.6
			l-2.9,2.1l-4.7,2.5l-3.4-0.5l-2.7-2.2l-2.7-3.8l-4.5-5.9l-6.5-11.2l-4.2-7.6l-1.5-2.5l-4.8-7.6l-2.6-6.9l-0.3-2.8l-0.1-2.3
			l-0.2-2.6l-0.2-4l0.1-1.6l0.9-8.7l0.8-8.5v-1.4l0.8-6.8v-0.6v-0.2v-0.1l1-6.2l0.6-9.2l-0.4-1.6l-1.9-3.4l-2.3-3.3l-1.6-2.2
			L703,349l-5.5-7.6l-1.4-1.9l-6.9-6.2l-1.5-1l-8.5-5.8l-5.2-3.6l-7.6-5.3l-3.2-2.2l-2.5-1.9l-0.1-0.1l-1.1-0.9l-4.3-4.2l-7.8-7.9
			l-8.1-7.9l-5.2-5.2l-2.8-2.9l-3-2.8l-4-3.9l-2.7-2.5l-3.9-2.7l-2.9-1.2l-2.9-0.9l-7.6-2l-12.5,2l-12.7,2.8l-7.2,3.7l-2.5,1.4
			l-0.6,0.3l-1,0.4l-1.7,0.5l-2.9,0.2l-3.4-0.4l-3.6-0.1l-10.2-0.1l-10,3l-10,2.7l-3.7,1l-2.3,0.6l-2.3,0.7l-4.3,1.2l-4.3,1.2
			l-7.2,2.2l-5.5,1.9l-3.9,1.3l-8.9,3l-10,3.3l-7.3,2.2l-9.5,3.4l-5.8,1.9l-1.6,0.9l-2.5,1.4l-5.6,3.1l-10.4,5.8l-9.1,5.2l-8,4.6
			l-2.5,1.5l-4.8,2.7l-2.9,1.7l-6,3.6l-4.9,3.8l-8.3,5.3l-12.3,1.7l-3.8,1.1l-6.8,3.2l-11.3,5.1l-12.3,5.8l-11.7,4.9L314,374
			l-9.7,2.1l-3.9,0.5l-5.4,0.2l-2.5-0.6l-0.9-0.5l-7.8-1.5l-9.6-2.7l-11.2-3.1l-4.7-1.4l0,0l-2.1-0.5l-6.6-1.8l-0.3-0.1l-8.6-2.4
			l-6.2-1.7l-5.4-1.4l-8.9-2.5h-0.1h-0.2l-8.3-2.3l-12.4-3.6l-6.8-2.3l-3-0.9l-3-1l-3.6-0.9l-11.6-2.5l-8.4-2.4l-4-0.9l-11.3-1.2
			h-4.1l-3.3,0.5l0,0l-2.2,0.5l-0.1,0.1l0.1,0.3l1.2,3h0.2l0.1-0.1l0.1-0.1l0.2-1.2l0,0v0.1l0,0l0,0l0,0l0,0l0,0v-0.2v-0.1l0,0l0,0
			l0,0l0,0l0,0l0,0l0,0l0,0l0,0l0,0l0,0l0,0l0,0l0,0l0,0l0,0l0,0l0,0l0,0l0,0l0,0l0,0l0,0l0,0l0,0l0,0l0,0l0,0l0,0l0,0l0,0l0,0l0,0
			l0,0l0,0l0,0l0,0l0,0l0.1-0.4l6.7-1.4l8.5,0.3l7.9,1.7l5.5,1.5l10.8,3.5l5.7,1.8l0,0l4.2,1.1l11.7,2.5l12.7,3.4l5.3,1.5l4,1
			l9.5,2.7l0,0l1.8,0.4l6.1,1.8l7.3,2l4.6,1.1l8,2.3l5.9,1.6l4.6,1.2l11.1,3l9.5,3.3l2.2,0.3l5.8-0.2l3.2-0.6l1.8-0.4l1.5-0.3l5-1
			l3.7-0.9l3-0.9l5.1-1.7l6-2.4l8.7-4.1l9.6-4.4l8.8-4.1l8.4-3.9l4.6-2.1l1.7-0.6l2.6-0.4h0.8l4-0.4l5.7-0.9l4.5-1.9l2.7-2l2.6-2.2
			l4.5-3.1l7.6-4.1l4.8-2.7l2.6-1.4l5.1-2.9l1.5-1l3.7-2l2.5-1.5l1.4-0.8l2.1-1.3l6.9-3.8l7.9-4.6l0.8-0.6l0.5-0.3l7.5-3.8l9.5-3.1
			l10.1-3.3l12.4-4.2l10-3.2l6.7-1.9l6.7-2.5l6.6-1.7l3.4-0.9l3.2-0.9l8.4-2.3l3.3-0.9l4.5-1.3l7.3-1.7l11.9-1l8.7,0.5l5-1.4
			l4.8-2.7l4.6-2.4l5.6-1.3l9.1-1.8l12.6-1.2l10.6,3.8l8.1,7.2l2.8,2.6l0.2,0.2l1.3,1.3l6.1,6l2.3,2.3l8,7.7l6.1,6.3l5.3,5.4
			l5.5,4.3l10.6,7.3l10.8,7.5l3.8,2.7l5,4.1l5.7,7.5l3.1,4.5l2.3,3.2l4.5,8.7l-1.2,8.7l-0.6,4.6l-0.4,4.1l-0.3,2.6l-0.4,4l-0.4,4
			v0.6l-0.1,1.1l0,0l-0.1,0.8v0.2v0.2l-0.1,0.6l0,0l-47.2-80.9l46.7,80.9l0.5,0.1l0,0l-0.2,2.1l-0.1,0.7l-0.2,1.1l0,0l-0.1,1.6
			l-0.1,1.2l-0.1,0.8l-0.1,1.3v0.6v2l0.1,1.6l0.2,2.5l0.7,7.2l5.1,10.4l5.8,9.7l5.6,10.6l7.8,11.2l5.6,5.9l4.1,0.7l3.1-1.2l5.5-3.5
			l0.4,0.1l1,1.1l0.9,1.6l0,0l2.6,4.1l3.8,6.2l1.5,2.3l2.4,4l0.2,0.2l0.2-0.1l4.1-3.1l4.2-3.3l0.3,0.1l0.9,1.1l4,11.4l0.8,2.9
			l-0.3,0.3l-3.6,1.8l0.2,0.9l3.3,6.4l0.2,0.5l-0.2,0.2l-3.6,2l-4.9,5.9l-1.1,2.2l0.1,0.9l0.2,1l-0.1,1l0.3,0.3l0.5-0.1l8.9-3.5
			l8.3-2.9l1.1-0.2l0.2,0.3l0.1,6.3L785,519l0.2,7.1l0.9,1.2l2.1,0.9l10.3-2.2l9-2.2l7.6-2.3l4.8-1.3l4.1-1.1l1.4-0.3l0.1,0.3
			l1.1,5.7l0.9,4.6l0.2,1.3l0.3,1.5l0,0l0.2,0.3l2.2,3.4l0.8-0.3l2.9-0.7l1,0.4l0.7-0.4l0.6-0.9l3.8-1l1.5-0.5l0.4-0.1l0.6-0.3l0,0
			l0,0l0,0l0,0l0,0l1.7-0.5l2.8-1v-0.4l-0.3-2.5l0.1-0.1l0.5,0.1l0,0l0,0l0.4-0.1l0.4-0.1l0,0l0,0l0,0l0,0l0,0l0,0l0,0l0,0l0,0l0,0
			l0,0l0,0l0,0l0,0l0,0l0,0l0,0l0,0l0,0l0,0l0,0l0,0l0,0l0,0l0,0l0,0l0,0l0,0l0,0v-0.1l0,0v-0.1v-0.1v-0.1V527l0,0l0,0l0.5-0.2v-0.1
			l-0.1-0.7l0,0l0,0l0,0l0,0l0,0l0,0l0,0l0,0l0,0l0,0l-0.1-2.6h-0.2l-6.7,1.6l-6.5,1.6l-1.5,0.1l-0.3-0.3l-2.7-4L830,518l-0.4-1.4
			L829,516h-0.5l-3.3,0.8l-1.5,0.4l0,0l-0.2,0.1l-2,0.6l0,0l-6.5,1.8l-1.6,0.4l-2.9,0.8l-7.2,1.8l-8.9,2.4l-1.9,0.5l-5.1-0.1l-1-0.7
			l-0.2-0.9l0.1-2.5l0.1-3.7l0.1-1.1v-3.1l-0.4-3.2l0.1-7.6l-0.5-4.9l-5.6-8.2l-3.4-10l-3.1-7.5l-2-1.4l-3.2-0.3l-5.5-0.4l-3.7-1
			l-2.5-3l-5.1-6.1l-2.3-1.1l-2.8,0.5l-8.6,4.4l-3.6-1.2l-6.7-8.6l-6.2-9.3l-6-11.2l-6.5-10.5l-3.4-11.3l-0.3-11.2l1.2-12l1.3-10.9
			l1.9-11.9l-0.7-7.1l-6.6-9.7l-7.6-10.4l-10.3-8.3l-9.5-6.6l-8.9-6.2l-7-5.6l-8.9-8.5l-8-8.1l-4.1-3.9l-4.1-4.3l-3.2-3.3l-4.7-4.5
			l-8.2-7.3l-3.2-1.4l-8.8-2.8l-11.4,1.3l-9.5,1.7l-4.1,0.8l-1.8,0.7l-3.2,1.5l-3.4,1.9l-2.3,1.1l-2,0.9l-3.9,1h-2.4l-2.9-0.3
			l-5.2-0.3l-11.1,1l-11.4,3.3l-10.8,3l-0.9,0.2l-7.2,2.1l-9.8,3l-4,1.3l-9.1,3.1l-11.6,3.8l-8.2,2.5l-4.9,1.7l-10.9,3.7l-9.9,4.6
			l-4.2,2.5l-7.8,4.4l-4,2.2l-4.8,2.6l-0.5,0.3l-0.2,0.2l-5.7,3.3l-4.8,2.7l-3.4,1.9l-9.1,5.4l-9.5,7.1l-8.6,4.1l-11.6,1.5l-1.7,0.5
			l-7.4,3.5l-10.4,4.9l-10.4,4.8l-11.2,5.1l-11.1,4.2l-11.3,2.9l-9.4,1.3l-4.5-0.6l-0.3-0.1l-6-1.7l-9.5-2.3l-10.2-2.9l-3.8-0.9
			l-4.9-1.4l-6.6-1.8l-3.9-1.1l-7.5-2.2l-3.3-1.1l-6.3-2.2l-0.3-0.8l-1.2-2.7l-1.7-4.7l-1.1-2.8l-2.2-2.8l-2.7-3.9l-1.8-3.4
			l-0.9-3.3l0.8-3.7l-0.3-0.1l-0.3,0.1l-3.5,3.6l-0.1,0.1l-2.6,2.5l-2.6,2.7l-1.1,0.9l-0.3-0.1l-0.3-0.2l-1.4-3.8l-1.3-3.7l-0.8-2.3
			l-0.9-2.7l-0.3-0.8l-0.8-2.1l-1.2-3.4l-0.8-2.4l-1-3l-0.7-2h-0.2l0,0l0.1-0.1l2,5.6l1.4,3.9l1.1,3.3l1.3,3.6l1.1,3.2l0.5,1.8
			l-0.2,0.1l-3,0.5l-4.8,1.3l-5.4,2l-1.6,1.2l-0.3,0.4h-0.1l-0.1-0.1l-0.2-0.3l-0.6-3.9l-0.1-1.1l0.2-0.1l0.6-0.1h0.2h0.1l0,0l0,0
			l0,0l0,0l0,0l0,0l0,0l0,0l0,0l0,0l0,0l0,0l0,0l0,0l0,0l0,0l0.2-0.1v-0.2l-0.5-2.5h-0.2l-1.4,0.2l-0.1,0.1l0.9,2.7l0.7,4.7l0.1,1.5
			l-3.1,5.2l-0.3,0.5l-0.2,0.4l-0.2,0.1l-8.1-2l-11.4-2.7l-11.8-2.8l-8.8-0.9l-4.2,0.1l-3.6,0.6l-0.9,0.2l-0.4,0.1l-0.1,0.1v0.2
			l1,2.7l0.3,0.6h0.1l0.2-0.2l0.2-1l0,0l0,0l0,0l0,0l0,0l0,0l0,0l0,0l0,0l0,0l0,0l0,0l0,0l0,0l0,0l0,0l0,0l0,0l0,0l0,0l0,0l0,0l0,0
			l0,0l0,0l0,0l0,0l0,0l0,0l0,0l0,0l0,0l0,0v-0.1v-0.6l0.1-0.1l7.2-1.5l13.2,1.2l11,3l13,3.5l13.3,3.6l12.9,3.5l13.1,3.6l13.1,3.6
			l13.1,3.6l13.1,3.5l13.1,3.7l12,3.7l3.3,1.5v0.4l-0.6,4l0.1,0.6l0.3,0.3l11,2l9.5,1.5l4.1,0.4l7.2-3.3l3.1-1.5l0.1-0.3l-0.2-0.2
			l-0.2,0.1l-0.4,0.3l-3.2,2l1.7,4.5l-0.7,0.6l-7.2,4.7l-5.6,4.2l-5,3.8l-0.7,0.5l-0.2,0.2v0.2l1.1,1.9l-0.2,0.2l-0.5,0.1l-0.7-0.3
			l-0.3-0.4l0.1-0.5l0.2-0.3h0.1l0,0l0,0l0,0l0,0l0,0l0,0l0,0l0,0l0,0l0,0l0,0l0,0l0,0l0,0l0,0l0,0l0,0l0,0l0,0l0,0l0,0l0,0l0,0l0,0
			l0,0l0,0l0,0l0,0l0,0l0,0l0,0l0,0l0,0l0,0l0,0l0,0l0,0l0,0l0,0l0,0l0,0l0,0l0,0l0,0l0,0l0,0l0,0l0,0l0,0h0.1l0.3,0.1l0.1,0.2l0,0
			l0,0l0,0l0,0l0,0l0.3,0.3l0.2,0.2l0,0l0,0l0,0l0,0l0,0l0,0l0,0l0,0l0,0l0,0l0,0l0,0l0,0l0,0l0,0l0,0l0,0l0,0l0,0l0,0l0,0l0,0l0,0
			l0.2,0.4h0.1l0.2,0.1l-0.4,0.1l0.3,0.4l0.3-0.3l0.1-0.1l0.4-0.5v-0.2l-0.1-0.2l-0.8-0.6v-0.2l0.2-0.3v0.1l-0.1,0.1v-0.1l0.1-0.1
			v-0.2v0.2h-0.1l0,0l0,0l0,0l0,0l0,0l-0.1,0.1v0.1l0.2,0.2l0.2,0.7l-0.1,0.2l-1.1,0.9v0.1l0.1,0.1l0.3,0.1l0.1-0.1l0.4-0.8
			l-0.1-0.2l0,0l0.1,0.1l0,0l0,0l0,0l-0.1-0.1l0,0l0.1,0.1l0,0v0.1"/>
	</g>
	<g transform="matrix(0.999873,0,0,0.999873,0,-1.67823e-13)">
	</g>
	<g transform="matrix(11.8095,0,0,11.8095,0,-1.67823e-13)">
	</g>
	<g transform="matrix(11.8095,0,0,11.8095,0,-1.67823e-13)">
	</g>
	<g transform="matrix(11.8095,0,0,11.8095,0,-1.67823e-13)">
	</g>
	<g transform="matrix(1,0,0,1,0,0)">
	</g>
	<g transform="matrix(11.8095,0,0,11.8095,0,-1.67823e-13)">
	</g>
	<g transform="matrix(11.8095,0,0,11.8095,0,-1.67823e-13)">
	</g>
	<g transform="matrix(1,0,0,1,0,0)">
	</g>
</g>
<g id="Map_1:_br_x5F_clip_x5F__x5F_geoname__x28_Labels_x29_" inkscape:label="Map 1: br_clip__geoname (Labels)" inkscape:groupmode="layer">
	<g transform="matrix(1,0,0,1,0,0)">
	</g>
	<g transform="matrix(1,0,0,1,0,0)">
	</g>
	<g transform="matrix(11.8095,0,0,11.8095,0,-1.67823e-13)">
	</g>
	<g transform="matrix(11.8095,0,0,11.8095,0,-1.67823e-13)">
	</g>
	<g transform="matrix(0.999873,0,0,0.999873,0,-1.67823e-13)">
	</g>
	<g transform="matrix(0.999873,0,0,0.999873,0,-1.67823e-13)">
	</g>
	<g transform="matrix(0.999873,0,0,0.999873,0,-1.67823e-13)">
	</g>
	<g transform="matrix(0.999873,0,0,0.999873,0,-1.67823e-13)">
	</g>
	<g transform="matrix(0.999873,0,0,0.999873,3161.22,1155.58)">
		<text transform="matrix(1.0001 0 0 1.0001 -2434.6592 -765.4984)" class="st1 st2">Cidade Universitaria</text>
	</g>
	<g transform="matrix(0.999873,0,0,0.999873,0,-1.67823e-13)">
	</g>
	<g transform="matrix(0.999873,0,0,0.999873,3146.03,1674.83)">
		<text transform="matrix(1.0001 0 0 1.0001 -2423.1133 -1160.1786)" class="st1 st2">Quinta da Boa Vista</text>
	</g>
	<g transform="matrix(0.999873,0,0,0.999873,0,-1.67823e-13)">
	</g>
	<g transform="matrix(0.999873,0,0,0.999873,0,-1.67823e-13)">
	</g>
	<g transform="matrix(0.999873,0,0,0.999873,1555.02,1276.94)">
		<text transform="matrix(1.0001 0 0 1.0001 -1213.7916 -857.7444)" class="st1 st2">Campo dos Afonsos</text>
	</g>
	<g transform="matrix(0.999873,0,0,0.999873,0,-1.67823e-13)">
	</g>
	<g transform="matrix(0.999873,0,0,0.999873,0,-1.67823e-13)">
	</g>
	<g transform="matrix(0.999873,0,0,0.999873,0,-1.67823e-13)">
	</g>
	<g transform="matrix(0.999873,0,0,0.999873,1379.71,1229.55)">
		<text transform="matrix(1.0001 0 0 1.0001 -1080.5389 -821.7234)" class="st1 st2">Magalhaes Bastos</text>
	</g>
	<g transform="matrix(0.999873,0,0,0.999873,0,-1.67823e-13)">
	</g>
	<g transform="matrix(0.999873,0,0,0.999873,0,-1.67823e-13)">
	</g>
	<g transform="matrix(0.999873,0,0,0.999873,1784.89,1140.59)">
		<text transform="matrix(1.0001 0 0 1.0001 -1388.5155 -754.1046)" class="st1 st2">Marechal Hermes</text>
	</g>
	<g transform="matrix(0.999873,0,0,0.999873,0,-1.67823e-13)">
	</g>
	<g transform="matrix(0.999873,0,0,0.999873,0,-1.67823e-13)">
	</g>
	<g transform="matrix(0.999873,0,0,0.999873,0,-1.67823e-13)">
	</g>
	<g transform="matrix(0.999873,0,0,0.999873,669.01,1198)">
		<text transform="matrix(1.0001 0 0 1.0001 -540.3376 -797.7422)" class="st1 st2">Senador Camara</text>
	</g>
	<g transform="matrix(0.999873,0,0,0.999873,0,-1.67823e-13)">
	</g>
	<g transform="matrix(0.999873,0,0,0.999873,0,-1.67823e-13)">
	</g>
	<g transform="matrix(0.999873,0,0,0.999873,0,-1.67823e-13)">
	</g>
	<g transform="matrix(0.999873,0,0,0.999873,0,-1.67823e-13)">
	</g>
	<g transform="matrix(0.999873,0,0,0.999873,0,-1.67823e-13)">
	</g>
	<g transform="matrix(0.999873,0,0,0.999873,0,-1.67823e-13)">
	</g>
	<g transform="matrix(0.999873,0,0,0.999873,2551.1,694.306)">
		<text transform="matrix(1.0001 0 0 1.0001 -1970.9092 -414.8857)" class="st1 st2">Parada de Lucas</text>
	</g>
	<g transform="matrix(0.999873,0,0,0.999873,0,-1.67823e-13)">
	</g>
	<g transform="matrix(0.999873,0,0,0.999873,0,-1.67823e-13)">
	</g>
	<g transform="matrix(0.999873,0,0,0.999873,0,-1.67823e-13)">
	</g>
	<g transform="matrix(0.999873,0,0,0.999873,0,-1.67823e-13)">
	</g>
	<g transform="matrix(0.999873,0,0,0.999873,0,-1.67823e-13)">
	</g>
	<g transform="matrix(0.999873,0,0,0.999873,0,-1.67823e-13)">
	</g>
	<g transform="matrix(0.999873,0,0,0.999873,3153.84,1524.89)">
		<text transform="matrix(1.0001 0 0 1.0001 -2429.05 -1046.2098)" class="st1 st2">Vasco da Gama</text>
	</g>
	<g transform="matrix(0.999873,0,0,0.999873,0,-1.67823e-13)">
	</g>
	<g transform="matrix(0.999873,0,0,0.999873,0,-1.67823e-13)">
	</g>
	<g transform="matrix(0.999873,0,0,0.999873,0,-1.67823e-13)">
	</g>
	<g transform="matrix(0.999873,0,0,0.999873,0,-1.67823e-13)">
	</g>
	<g transform="matrix(0.999873,0,0,0.999873,1972.42,924.235)">
		<text transform="matrix(1.0001 0 0 1.0001 -1531.0558 -589.6541)" class="st1 st2">Honorio Gurgel</text>
	</g>
	<g transform="matrix(0.999873,0,0,0.999873,0,-1.67823e-13)">
	</g>
	<g transform="matrix(0.999873,0,0,0.999873,0,-1.67823e-13)">
	</g>
	<g transform="matrix(0.999873,0,0,0.999873,0,-1.67823e-13)">
	</g>
	<g transform="matrix(0.999873,0,0,0.999873,3636.69,1694.23)">
		<text transform="matrix(1.0001 0 0 1.0001 -2796.0627 -1174.9246)" class="st1 st2">Av. Rio Branco</text>
	</g>
	<g transform="matrix(0.999873,0,0,0.999873,0,-1.67823e-13)">
	</g>
	<g transform="matrix(0.999873,0,0,0.999873,0,-1.67823e-13)">
	</g>
	<g transform="matrix(0.999873,0,0,0.999873,0,-1.67823e-13)">
	</g>
	<g transform="matrix(0.999873,0,0,0.999873,0,-1.67823e-13)">
	</g>
	<g transform="matrix(0.999873,0,0,0.999873,0,-1.67823e-13)">
	</g>
	<g transform="matrix(0.999873,0,0,0.999873,2427.2,586.473)">
		<text transform="matrix(1.0001 0 0 1.0001 -1876.7332 -332.9225)" class="st1 st2">Vigario Geral</text>
	</g>
	<g transform="matrix(0.999873,0,0,0.999873,0,-1.67823e-13)">
	</g>
	<g transform="matrix(0.999873,0,0,0.999873,0,-1.67823e-13)">
	</g>
	<g transform="matrix(0.999873,0,0,0.999873,0,-1.67823e-13)">
	</g>
	<g transform="matrix(0.999873,0,0,0.999873,0,-1.67823e-13)">
	</g>
	<g transform="matrix(0.999873,0,0,0.999873,2832.36,1333.28)">
		<text transform="matrix(1.0001 0 0 1.0001 -2184.6936 -900.5677)" class="st1 st2">Higienopolis</text>
	</g>
	<g transform="matrix(0.999873,0,0,0.999873,0,-1.67823e-13)">
	</g>
	<g transform="matrix(0.999873,0,0,0.999873,0,-1.67823e-13)">
	</g>
	<g transform="matrix(0.999873,0,0,0.999873,0,-1.67823e-13)">
	</g>
	<g transform="matrix(0.999873,0,0,0.999873,0,-1.67823e-13)">
	</g>
	<g transform="matrix(0.999873,0,0,0.999873,3421.58,1616.55)">
		<text transform="matrix(1.0001 0 0 1.0001 -2632.5583 -1115.8805)" class="st1 st2">Santo Cristo</text>
	</g>
	<g transform="matrix(0.999873,0,0,0.999873,0,-1.67823e-13)">
	</g>
	<g transform="matrix(0.999873,0,0,0.999873,3419.64,1754.73)">
		<text transform="matrix(1.0001 0 0 1.0001 -2631.0837 -1220.9109)" class="st1 st2">Cidade Nova</text>
	</g>
	<g transform="matrix(0.999873,0,0,0.999873,0,-1.67823e-13)">
	</g>
	<g transform="matrix(0.999873,0,0,0.999873,0,-1.67823e-13)">
	</g>
	<g transform="matrix(0.999873,0,0,0.999873,0,-1.67823e-13)">
	</g>
	<g transform="matrix(0.999873,0,0,0.999873,1849.88,780.241)">
		<text transform="matrix(1.0001 0 0 1.0001 -1437.9135 -480.2051)" class="st1 st2">Barros Filho</text>
	</g>
	<g transform="matrix(0.999873,0,0,0.999873,0,-1.67823e-13)">
	</g>
	<g transform="matrix(0.999873,0,0,0.999873,2369.03,796.733)">
		<text transform="matrix(1.0001 0 0 1.0001 -1832.5187 -492.7402)" class="st1 st2">Vista Alegre</text>
	</g>
	<g transform="matrix(0.999873,0,0,0.999873,0,-1.67823e-13)">
	</g>
	<g transform="matrix(0.999873,0,0,0.999873,2012.14,829.236)">
		<text transform="matrix(1.0001 0 0 1.0001 -1561.2473 -517.4457)" class="st1 st2">Coelho Neto</text>
	</g>
	<g transform="matrix(0.999873,0,0,0.999873,0,-1.67823e-13)">
	</g>
	<g transform="matrix(0.999873,0,0,0.999873,2962.58,1180.1)">
		<text transform="matrix(1.0001 0 0 1.0001 -2283.6741 -784.1362)" class="st1 st2">Bonsucesso</text>
	</g>
	<g transform="matrix(0.999873,0,0,0.999873,0,-1.67823e-13)">
	</g>
	<g transform="matrix(0.999873,0,0,0.999873,0,-1.67823e-13)">
	</g>
	<g transform="matrix(0.999873,0,0,0.999873,0,-1.67823e-13)">
	</g>
	<g transform="matrix(0.999873,0,0,0.999873,0,-1.67823e-13)">
	</g>
	<g transform="matrix(0.999873,0,0,0.999873,0,-1.67823e-13)">
	</g>
	<g transform="matrix(0.999873,0,0,0.999873,1564.32,1093.74)">
		<text transform="matrix(1.0001 0 0 1.0001 -1220.86 -718.4944)" class="st1 st2">Vila Militar</text>
	</g>
	<g transform="matrix(0.999873,0,0,0.999873,0,-1.67823e-13)">
	</g>
	<g transform="matrix(0.999873,0,0,0.999873,0,-1.67823e-13)">
	</g>
	<g transform="matrix(0.999873,0,0,0.999873,0,-1.67823e-13)">
	</g>
	<g transform="matrix(0.999873,0,0,0.999873,1821.87,887.439)">
		<text transform="matrix(1.0001 0 0 1.0001 -1416.6241 -561.6857)" class="st1 st2">Guadalupe</text>
	</g>
	<g transform="matrix(0.999873,0,0,0.999873,0,-1.67823e-13)">
	</g>
	<g transform="matrix(0.999873,0,0,0.999873,0,-1.67823e-13)">
	</g>
	<g transform="matrix(0.999873,0,0,0.999873,0,-1.67823e-13)">
	</g>
	<g transform="matrix(0.999873,0,0,0.999873,0,-1.67823e-13)">
	</g>
	<g transform="matrix(0.999873,0,0,0.999873,0,-1.67823e-13)">
	</g>
	<g transform="matrix(0.999873,0,0,0.999873,0,-1.67823e-13)">
	</g>
	<g transform="matrix(0.999873,0,0,0.999873,0,-1.67823e-13)">
	</g>
	<g transform="matrix(0.999873,0,0,0.999873,0,-1.67823e-13)">
	</g>
	<g transform="matrix(0.999873,0,0,0.999873,0,-1.67823e-13)">
	</g>
	<g transform="matrix(0.999873,0,0,0.999873,0,-1.67823e-13)">
	</g>
	<g transform="matrix(0.999873,0,0,0.999873,3189.47,1767.61)">
		<text transform="matrix(1.0001 0 0 1.0001 -2456.1318 -1230.7009)" class="st1 st2">Maracana</text>
	</g>
	<g transform="matrix(0.999873,0,0,0.999873,0,-1.67823e-13)">
	</g>
	<g transform="matrix(0.999873,0,0,0.999873,0,-1.67823e-13)">
	</g>
	<g transform="matrix(0.999873,0,0,0.999873,0,-1.67823e-13)">
	</g>
	<g transform="matrix(0.999873,0,0,0.999873,0,-1.67823e-13)">
	</g>
	<g transform="matrix(0.999873,0,0,0.999873,0,-1.67823e-13)">
	</g>
	<g transform="matrix(0.999873,0,0,0.999873,0,-1.67823e-13)">
	</g>
	<g transform="matrix(0.999873,0,0,0.999873,1221.92,1274.83)">
		<text transform="matrix(1.0001 0 0 1.0001 -960.6039 -856.1403)" class="st1 st2">Realengo</text>
	</g>
	<g transform="matrix(0.999873,0,0,0.999873,0,-1.67823e-13)">
	</g>
	<g transform="matrix(0.999873,0,0,0.999873,0,-1.67823e-13)">
	</g>
	<g transform="matrix(0.999873,0,0,0.999873,0,-1.67823e-13)">
	</g>
	<g transform="matrix(0.999873,0,0,0.999873,0,-1.67823e-13)">
	</g>
	<g transform="matrix(0.999873,0,0,0.999873,0,-1.67823e-13)">
	</g>
	<g transform="matrix(0.999873,0,0,0.999873,0,-1.67823e-13)">
	</g>
	<g transform="matrix(0.999873,0,0,0.999873,0,-1.67823e-13)">
	</g>
	<g transform="matrix(0.999873,0,0,0.999873,0,-1.67823e-13)">
	</g>
	<g transform="matrix(0.999873,0,0,0.999873,3508.32,1811.38)">
		<text transform="matrix(1.0001 0 0 1.0001 -2698.4893 -1263.9706)" class="st1 st2">Catumbi</text>
	</g>
	<g transform="matrix(0.999873,0,0,0.999873,0,-1.67823e-13)">
	</g>
	<g transform="matrix(0.999873,0,0,0.999873,0,-1.67823e-13)">
	</g>
	<g transform="matrix(0.999873,0,0,0.999873,0,-1.67823e-13)">
	</g>
	<g transform="matrix(0.999873,0,0,0.999873,0,-1.67823e-13)">
	</g>
	<g transform="matrix(0.999873,0,0,0.999873,784.179,858.357)">
		<text transform="matrix(1.0001 0 0 1.0001 -627.8781 -539.5806)" class="st1 st2">Gericino</text>
	</g>
	<g transform="matrix(0.999873,0,0,0.999873,0,-1.67823e-13)">
	</g>
	<g transform="matrix(0.999873,0,0,0.999873,0,-1.67823e-13)">
	</g>
	<g transform="matrix(0.999873,0,0,0.999873,0,-1.67823e-13)">
	</g>
	<g transform="matrix(0.999873,0,0,0.999873,0,-1.67823e-13)">
	</g>
	<g transform="matrix(0.999873,0,0,0.999873,0,-1.67823e-13)">
	</g>
	<g transform="matrix(0.999873,0,0,0.999873,0,-1.67823e-13)">
	</g>
	<g transform="matrix(0.999873,0,0,0.999873,0,-1.67823e-13)">
	</g>
	<g transform="matrix(0.999873,0,0,0.999873,0,-1.67823e-13)">
	</g>
	<g transform="matrix(0.999873,0,0,0.999873,0,-1.67823e-13)">
	</g>
	<g transform="matrix(0.999873,0,0,0.999873,0,-1.67823e-13)">
	</g>
	<g transform="matrix(0.999873,0,0,0.999873,0,-1.67823e-13)">
	</g>
	<g transform="matrix(0.999873,0,0,0.999873,0,-1.67823e-13)">
	</g>
	<g transform="matrix(0.999873,0,0,0.999873,0,-1.67823e-13)">
	</g>
	<g transform="matrix(0.999873,0,0,0.999873,0,-1.67823e-13)">
	</g>
	<g transform="matrix(0.999873,0,0,0.999873,0,-1.67823e-13)">
	</g>
	<g transform="matrix(0.999873,0,0,0.999873,2920.44,1048.82)">
		<text transform="matrix(1.0001 0 0 1.0001 -2251.6431 -684.351)" class="st1 st2">Ramos</text>
	</g>
	<g transform="matrix(0.999873,0,0,0.999873,0,-1.67823e-13)">
	</g>
	<g transform="matrix(0.999873,0,0,0.999873,0,-1.67823e-13)">
	</g>
	<g transform="matrix(0.999873,0,0,0.999873,0,-1.67823e-13)">
	</g>
	<g transform="matrix(0.999873,0,0,0.999873,0,-1.67823e-13)">
	</g>
	<g transform="matrix(0.999873,0,0,0.999873,0,-1.67823e-13)">
	</g>
	<g transform="matrix(0.999873,0,0,0.999873,0,-1.67823e-13)">
	</g>
	<g transform="matrix(0.999873,0,0,0.999873,0,-1.67823e-13)">
	</g>
	<g transform="matrix(0.999873,0,0,0.999873,875.593,1229.16)">
		<text transform="matrix(1.0001 0 0 1.0001 -697.3613 -821.4264)" class="st1 st2">Bangu</text>
	</g>
	<g transform="matrix(0.999873,0,0,0.999873,0,-1.67823e-13)">
	</g>
	<g transform="matrix(0.999873,0,0,0.999873,0,-1.67823e-13)">
	</g>
	<g transform="matrix(0.999873,0,0,0.999873,0,-1.67823e-13)">
	</g>
	<g transform="matrix(0.999873,0,0,0.999873,3619.48,1616.7)">
		<text transform="matrix(1.0001 0 0 1.0001 -2782.9812 -1115.9944)" class="st1 st2">Saude</text>
	</g>
	<g transform="matrix(0.999873,0,0,0.999873,0,-1.67823e-13)">
	</g>
	<g transform="matrix(0.999873,0,0,0.999873,2836.2,923.403)">
		<text transform="matrix(1.0001 0 0 1.0001 -2187.6125 -589.0219)" class="st1 st2">Penha</text>
	</g>
	<g transform="matrix(0.999873,0,0,0.999873,0,-1.67823e-13)">
	</g>
	<g transform="matrix(0.999873,0,0,0.999873,0,-1.67823e-13)">
	</g>
	<g transform="matrix(0.999873,0,0,0.999873,2833.45,1063.76)">
		<text transform="matrix(1.0001 0 0 1.0001 -2185.5227 -695.707)" class="st1 st2">Olaria</text>
	</g>
	<g transform="matrix(0.999873,0,0,0.999873,0,-1.67823e-13)">
	</g>
	<g transform="matrix(0.999873,0,0,0.999873,0,-1.67823e-13)">
	</g>
	<g transform="matrix(0.999873,0,0,0.999873,0,-1.67823e-13)">
	</g>
	<g transform="matrix(0.999873,0,0,0.999873,0,-1.67823e-13)">
	</g>
	<g transform="matrix(0.999873,0,0,0.999873,0,-1.67823e-13)">
	</g>
	<g transform="matrix(0.999873,0,0,0.999873,0,-1.67823e-13)">
	</g>
	<g transform="matrix(0.999873,0,0,0.999873,2167.4,733.688)">
		<text transform="matrix(1.0001 0 0 1.0001 -1679.2595 -444.8197)" class="st1 st2">Acari</text>
	</g>
	<g transform="matrix(0.999873,0,0,0.999873,0,-1.67823e-13)">
	</g>
	<g transform="matrix(0.999873,0,0,0.999873,0,-1.67823e-13)">
	</g>
	<g transform="matrix(0.999873,0,0,0.999873,3090.98,1135.41)">
		<text transform="matrix(1.0001 0 0 1.0001 -2381.2708 -750.1677)" class="st1 st2">Mare</text>
	</g>
	<g transform="matrix(0.999873,0,0,0.999873,0,-1.67823e-13)">
	</g>
	<g transform="matrix(0.999873,0,0,0.999873,0,-1.67823e-13)">
	</g>
	<g transform="matrix(0.999873,0,0,0.999873,0,-1.67823e-13)">
	</g>
	<g transform="matrix(0.999873,0,0,0.999873,0,-1.67823e-13)">
	</g>
	<g transform="matrix(11.8095,0,0,11.8095,0,-1.67823e-13)">
	</g>
	<g transform="matrix(11.8095,0,0,11.8095,0,-1.67823e-13)">
	</g>
	<g transform="matrix(11.8095,0,0,11.8095,0,-1.67823e-13)">
	</g>
	<g transform="matrix(1,0,0,1,0,0)">
	</g>
	<g transform="matrix(11.8095,0,0,11.8095,0,-1.67823e-13)">
	</g>
	<g transform="matrix(11.8095,0,0,11.8095,0,-1.67823e-13)">
	</g>
	<g transform="matrix(1,0,0,1,0,0)">
	</g>
</g>
<g transform="matrix(0.999873,0,0,0.999873,1710.35,1818.29)">
	<text transform="matrix(1.0001 0 0 1.0001 -1573.5435 -1573.0602)" class="st3 st1 st4">7 de novembro de 2023</text>
</g>
</svg>
