<?xml version="1.0" encoding="utf-8"?>
<!-- Generator: Adobe Illustrator 19.0.0, SVG Export Plug-In . SVG Version: 6.00 Build 0)  -->
<svg version="1.1" id="Layer_1" xmlns:inkscape="http://www.inkscape.org/namespaces/inkscape"
	 xmlns="http://www.w3.org/2000/svg" xmlns:xlink="http://www.w3.org/1999/xlink" x="0px" y="0px" viewBox="134 298.5 595 595"
	 style="enable-background:new 134 298.5 595 595;" xml:space="preserve">
<style type="text/css">
	.st0{fill:none;stroke:#000000;stroke-width:0.1417;stroke-linecap:square;stroke-linejoin:bevel;}
	.st1{font-family:'Karla';}
	.st2{font-size:5.9992px;}
	.st3{fill:#FF0000;}
	.st4{font-size:10px;}
	.st5{fill:none;stroke:#FF0000;stroke-width:1.4173;stroke-linecap:square;stroke-linejoin:bevel;}
</style>
<g id="Map_1:_line_x5F_C47621_x5F__x5F_610_x5F__x5F_5novembre2024" inkscape:label="Map 1: line_C47621__610__5novembre2024" inkscape:groupmode="layer">
	<g transform="matrix(1,0,0,1,0,0)">
	</g>
	<g transform="matrix(1,0,0,1,0,0)">
	</g>
	<g transform="matrix(11.8095,0,0,11.8095,0,0)">
	</g>
	<g transform="matrix(11.8095,0,0,11.8095,0,0)">
	</g>
	<g transform="matrix(0.999873,0,0,0.999873,0,0)">
	</g>
	<g transform="matrix(0.999873,0,0,0.999873,0,0)">
		<path vector-effect="none" class="st0" d="M287.1,524L287.1,524L287.1,524L287.1,524v-0.2l0,0l0,0l0,0l0,0l0,0l0,0l0,0l0,0l0,0
			l0,0l0,0l0,0l0,0l0,0l0,0l0,0l0,0l0,0l0,0l0,0l0,0l0,0l0,0l0,0l0,0l0,0l0,0l0,0l0,0l0,0l0,0l0,0l0,0l0,0l0,0l0,0l0,0l0,0l0,0l0,0
			l0,0l0,0l0,0l0,0l0,0l0,0l0,0l0,0l0,0l0,0l0,0l0,0l0,0l0,0l0,0l0,0l0,0l0,0l0,0l0,0l0,0l0,0l0,0l0,0l0,0l0,0l0,0l0,0l0,0l0,0l0,0
			l0,0l0,0l0,0l0,0l0,0l0,0l0,0l0,0l0,0l0,0l0,0l0,0l0,0l0,0l0,0l0,0l0,0l0,0l0,0l0,0l0,0l0,0l0,0l0,0l0,0l0,0l0,0l0,0l0,0l0,0l0,0
			l0,0l0,0l0,0l0,0l0,0l0,0l0,0l0,0l0,0l0,0l0,0l0,0l0,0l0,0l0,0l0,0l0,0l0,0l0,0l0,0l0,0l0,0l0,0l0,0l0,0l0,0l0,0l0,0l0,0l0,0l0,0
			l0,0l0,0l0,0l0,0l0,0l0,0l0,0l0,0l0,0l0,0l0,0l0,0l0,0l0,0l0,0l0.1-0.1l1.8-0.2l0.3-0.2l0.5,0.1l0.1,0.4l-0.2,5.5l-0.2,2l4.2,2.9
			l6,4.1l5.2,3.6l0,0l1.7,1l4,2.8l1.1,0.7l0.3,0.3l-0.1,0.2l-3.4,5l-2.6,4.1l-2.9,4.9l-3.7,3.8l-5.1,6l-5.2,7.1l-1.2,1.6l-0.2,0.3
			l-2.4,3.4l-2.1,3l-4.6,9.2l-3.4,5.8l-2.6,9.2l-1.7,2.2l-7,5.4l-1.4,0.3h-6.8l-1,2l-0.8,1.7h-0.3l-1.4-0.3l-5.9,3l-1.7,0.9
			l-1.7,1.2l0.2,0.8l0.8,1.5l6.1,5.6l7.2,6.5l5.8,3.9l2.8-0.6l2.6-1.3l3.8-1.5l5.1,2.3l5.2,2.3l4.5,0.7l9.1-2.9l8.4-2.2l9.2,3.7
			l1.3,0.4l0.3-0.3l4.5-3.7l8.2-4l9.5-3.4l6.4-2.4l0,0l0,0l0,0l38.4-30.5l3.2-2.7l3.6-0.5l5.6,2l2,0.8l4.9-2l3.4-3.1l5.1-13.2
			l6.8-11.4l8-11.3l10.7-8l9.3-9.4l13.3-3l12.4-4.7l5.2-4.9l1.1-1.5l0.9-0.2l0.6,0.4l1.6,1.6l4,3.2l3.3,2.1l5,2.1l0.8,0.2l0.1-0.1
			l-0.1-0.2l-0.2-0.1l-3.5-1.7l-2.3-1.4l-1.4-0.9l-0.1-0.2l0,0l0,0l0,0l0,0l0,0l0,0l0,0l0,0l0,0h-0.1l-0.4-0.1l-3.9-3.3V529l0.4-0.7
			l2.2-2.2l-0.1-0.6l-0.6-0.7l-1-0.1l-5.4,2.8l-9.5,8.8l-12.7,3.8l-10.2,2.8l-8.9,9l-10.6,7.8l-6.6,7.1l-4.5,8.7l-5.4,11.1
			l-4.3,10.2l-3.3,2.2l-3.7,0.2l-8.1-1.3l-4.9,1l-3.1,3l-1.1,1.8l0,0l0,0L341,632.6l-12.8,4.5l-10.3,4.5l-1.3,0.6l-2.4,2.7L314,645
			h-0.3l-0.5-0.3l-1.2-3l-0.5-0.1l-3.8,1.6l-0.6,0.1l-6-1.4l-2,0.4l-3.2,1.3l-7.3,2.4l-2.8,0.6L285,646l-1.4-1.4l-1.1-1.4l-1-3.4
			l-5.5-4.3l-1.7,0.2l-0.2,0.4l-0.9,3.4l-0.7,1.9l-0.3,0.1l-1.6-0.1l-3.7,1.9l-4.6,1.4l-3-1.6l-6.9-6.2l-2.9-2.7l0.1-0.3l2.8-3.2
			l-1.7-3.5l-0.6-1.2l-0.3-0.8l0.2-0.2l5.9-2.8l4.5-2.4l2.1-1.1l6.1-3.4l4.5-2.9l0.1-1.1l-0.1-0.1l-0.2-0.1l-0.2,0.1l-0.1,0.2v0.2
			v0.3l-0.8,1l-0.2,0.1v0.2l0.1,0.1l0.2,0.1l0.2-0.1l0.1-0.3l0.4-0.8l0,0l0,0l0,0l0,0l0,0l0,0l0,0l0,0l0,0l0,0l0,0v-0.1l0,0l0,0l0,0
			l0,0l0,0l0,0l0,0l0,0l0,0l0,0l0,0l0,0l0,0l0,0l0,0l0,0l0,0l0,0l0,0l0,0l0,0l0,0l0,0l0.4-0.6l0.4-0.3l-0.1-0.1h-0.2l-0.1,0.1
			l-1.1,1.9l0.1,0.3h0.3l0.7-0.3l0.5-0.8l0.3-1.6l0,0v-0.5l-0.3-0.3l-0.3-0.1l-0.3,0.2l-4.7,5.5l-1.7,0.9l-3.2,1.8l-7.6-0.1
			l-0.8,1.4l-1.1,2.3h-0.2h-1.9l-2.5,1.2l-4,2.1l0,0l-2.5,1.5l0.1,0.4l3.3,4.2l3.7,3.3l5.9,5.3l2.3,2.1l2.8,2.2l1.2,0.7l1.5,0.2l3-1
			l5.4-2.4l4.8,2.2l0.2,0.1l0,0l3.2,1.4l2.5,1.1l4.2,0.7l3.8-1.3l5.3-1.7l2.2-0.9l5.2-1.4l1.6,0.4l3.8,2.9l2.3,0.6l2.5-0.1l0,0l0,0
			l0,0l0.9,0.4l0.3-0.1l0.1-0.1l0,0l0,0l1.2-1l5-3.7l7.6-3.5l9.8-3.4l6.2-2.4l0,0l0,0l0,0l36.9-29.5l2.8-3l3.8-1l5.2,1.2l3.2,1.4
			l5.8-2.3l2.8-3.2l5-13.4l6.4-10.2l7.9-11.4l10.8-8l9.2-9.5l13.4-2.6l11.2-3.8l6.9-6l1.3-1.5h1.1l0.5,0.7l3.5,3l4.6,3.2l2.1,1.1
			l4.3,1.5l0.1-0.2l-0.1-0.2l-0.2-0.1l-3.7-1.8l-0.1-0.1l-3.4-2l-0.4-0.4l0,0l0,0l0,0l0,0l0,0l0,0l0.4,0.2l0.1,0.1l0.1,0.1l0,0l0,0
			l0,0l0,0v-0.2l-0.1-0.1l-0.1-0.1l0,0l0,0l0,0l0,0l0,0l0,0l0,0l0,0l0,0l0,0l0,0l0,0l0,0l0,0l0,0l0,0l0,0l0,0l0,0l0,0l0,0h-0.2
			l-0.2-0.1l-1-0.7l-2.8-2.6l-0.1-1l0.5-0.9l2.1-2.4l-0.3-0.7l-0.8-0.4l-1.2,0.2l-6,3.8l-7.3,7.1l-11.2,3.7l-10.7,2.2l-7,5.4
			l-9.7,9.1l-10.1,8.3l-4,8.9l-5.7,9.1l-4.3,11.4l-2.7,3.9l-3.8,1.5l-8.2-1.1l-6.3,0.5l-3.2,2.9l-1.2,2l0,0l0,0l0,0l-40.1,29.8
			l-11.4,3.8l-10.2,4.6l-1.2,0.4l-3.1,3.1l-0.4-0.2L314,645l-0.4-2.2l-1.1-0.8l-4.8,1.5l-2.6-1.4l-4.3,0.5l-1.1,0.4l-1.5,0.7l-8,2.7
			l-2,0.6l-1.5,0.1l-1.6-1.4l-0.9-0.9l-0.8-1l-0.9-3.4l-2.2-1.8l-3.7-2.6l-1.5,0.2l-0.2,0.3l-0.4,2l-0.6,2.1l-0.6,1.5L273,642
			l-0.4-0.2h-0.7l-1.8,0.9l-2.7,1.4l-4.4,1.1l-3-1.8l-3.6-3.2l-3.9-3.5l-1.2-1.2l-0.9-0.9l0.2-0.3l1.9-2l0.8-1l-0.1-0.3l-1.6-3.2
			l-0.9-2.2l0.3-0.2l2-0.9l5.8-3l7.8-4.2l3.9-2.3l0,0l3.3-2.1l0.2-1.2l-0.1-0.2l-0.2-0.1l-0.2,0.1l-1.1,2v0.1l0.1,0.1h0.2l0.2-0.2
			l0.4-1l0,0l0,0l0,0l0,0l0,0l0,0l0,0l0,0l0,0l0,0l0,0l0,0l0,0l0,0l0,0l0,0l0,0l0,0l0,0l0,0l0,0l0,0l0,0l0,0l0,0l0,0l0.6-0.9
			l-0.1-0.1l-0.1-0.1h-0.2l-0.1,0.1l-0.7,1.5l-0.3,0.5l0.1,0.1l0.2,0.1l0.5-0.2l0.6-0.6l0.4-2.4v-0.1l0,0l-0.1-0.1l-0.2-0.2h-0.4
			l-0.5,0.4l-1.7,2.1L268,616l-4.4,2.4l-7.6,0.2l-1.4,3l-0.3,0.4H254l-1.5-0.3l-2.8,1.4l-4.3,2.3l0,0l-0.4,0.4l-1.7,1.1l0.1,0.3
			l3.3,4.3l0,0l0.8,0.7l1.4,1.2l0.3,0.2l3.9,3.5l0.8,0.7l1.5,1.4l1.5,1.5l3.7,3.1l1.6,0.9l0.3,0.2l1.1,0.3l3-0.8l1.4-0.7l0.6-0.3
			l1.4-0.7l0,0l0.6-0.3l0.9-0.5l1-0.2l2.5,1.1l0.8,0.3l1.8,0.8l0,0l0,0l2.3,1l0.6,0.2l0,0l0.3,0.1h0.1l0.2,0.1l0,0l0.2,0.1l0.7,0.4
			l0.6,0.2l0,0l1,0.5h0.2l2.6,0.4l0,0l0.9,0.1l4-1.3l3.3-1l3.4-1.2h0.1l0.7-0.3l1.5-0.8l0,0l0.6-0.1l2.9-0.6h0.8l2,0.9l2.8,2.1
			l0.4,0.3l0.5,0.3l0.9,0.2l2.1-0.1h0.1l0.9,0.1l0.9,0.4h0.1l0,0l1.6-1.3l5.2-3.7l8.1-3.8l9.3-3.2l4.7-2.4l0,0l0,0l0,0l38.5-29.9
			l2.9-2.8l3.8-0.6l7.4,2.6l2.8-0.6l5.4-3.6l5.3-13.2l6.5-11.1l7.9-11.7l10.8-8l9.2-9.5l11.9-3l5.9-1.5l2.3-0.6l2.2-0.8l3.8-2.1
			l5.6-5.2l1.1-1.4l1.1-0.2l0.6,0.5l2.5,2.2l5.5,4.1l0.4,0.2l0.6,0.3l5.4,2.3l0.1-0.1v-0.1l-0.1-0.1l-0.2-0.2l-0.3-0.1l-1-0.2
			l-2.4-1.5l-3.1-2l-0.6-0.5l0,0l0,0l0,0l0,0l0,0l0,0l0,0l0,0l0,0l0,0l0,0l0,0l0,0l0,0l0,0l0,0l0,0l-3.5-2.4l-0.9-1.4l0.2-0.9l2.4-3
			l-0.3-0.7l-0.7-0.4l-1.3,0.2l-6.1,4l-9.9,8.2l-12.7,3.2l-9.3,3l-8.5,8.8l-5.7,4.4l-7,5.1l-4.4,6l-2.8,6.3l-5.2,8.5l-4.3,11.5
			l-2.6,3.7l-3.8,1.6l-7.2-1l-7.4,0.4l-3.4,3.1l-0.8,1.3l0,0l0,0l0,0l0,0l0,0l-59.2,37.5l-6.1,3.4l-0.3,0.6l0,0l-0.5,0.7l-0.4-0.1
			l-0.3-0.2l-0.1-0.4l-0.5-2.1l-0.9-0.7l-0.7,0.1l-4,1.6l-1.7-1l-2.8-0.7l-3.8,1l-0.2,0.1l-2.9,1.1l-4.6,1.5l-2.8,1l-2.1,0.5
			l-0.6-0.3l-1.9-1.8l-1-1.2l-0.8-3.3l-1.4-1.2l-2-1.7l-2.6-1.5l-1.4,0.2L275,636l-0.3,1.6l-0.2,0.8l-0.9,2.9h-0.1l-0.5-0.1
			l-0.8-0.1l-1.7,0.8l-3.2,1.6l-2.6,1l-1.8-0.2l-2.2-1.3l-3.9-3.5l-0.7-0.6l-2.9-2.7l-2.1-1.9l0,0l-0.3-0.4l0.1-0.2l2.7-3.1
			l-0.1-0.3l-1.8-3.6l-0.2-0.5l-0.6-1.1l0.2-0.2l2.4-1.2l1-0.5l0,0l0.9-0.3l0.4-0.2h0.1l0,0l0.8-0.4l0,0l0,0l0,0l0,0l0,0l1.2-0.7
			l0.3-0.2l2-1.1l1.2-0.6l0,0l1.9-1l1.9-1l1.6-0.9l0,0l1.8-0.9l0.5-0.3l0.6-0.4l0.4-0.3l0,0l0.3-0.2l2.5-1.3l1.3-1l0.2-1.1l-0.2-0.3
			h-0.1l-0.2,0.1l-1,1.9v0.2l0.3,0.1l0.2-0.2l0.4-1l-0.1-0.1h-0.1h-0.1l0,0l0,0l0,0h0.1l0,0l0,0h0.1l0,0h-0.1l0,0l0,0l0,0l0,0
			l0.1-0.1l0.4-0.4l0.2-0.2v-0.2l-0.1-0.1l-0.2,0.1l-0.6,0.9l-0.5,1.1l0.1,0.1l0.1,0.1h0.3l0.8-0.5l0.5-1.7v-0.4l0,0V610l-0.3-0.2
			h-0.5l-0.1,0.1l-2.3,2.9l-0.4,0.4l0,0l0,0l-1.8,2.1l-2.1,1.1l-3.6,1.7l-6.9-0.1l-0.3,0.3l-1.2,2.5l-0.5,0.8h-0.3l-1.5-0.2
			l-3.1,1.6l-0.3,0.2l-2,1l0,0l-1.1,0.5l-0.2,0.2l-0.6,0.3l-0.2,0.1l-0.8,0.5l-0.9,0.7v0.3l1.3,2.5l1.3,1.2l0.3,0.3l0.2,0.1l0.9,0.8
			l0,0l1.6,1.5l0,0l0,0l0.1,0.1l1.3,1.1l1.4,1.3l0.3,0.2l1.4,1.2l1.8,1.7l1.2,1.1l2.5,2.2l3.4,2.4l0.1,0.1l0.5,0.2h1.7l1.7-0.6
			l1-0.5l0.2-0.1l1.1-0.6l1.5-0.7l0.3-0.1l0.9-0.5l0.9-0.3l3.7,1.6l1.2,0.5l0,0l0,0l1.1,0.5l3.8,1.8l0.5,0.2l0.7,0.3l4.2,0.6
			l3.5-1.2l1.2-0.4l2.7-0.9l3.4-1.2l1.2-0.6l0.5-0.2l1.1-0.3l4.2-0.3l4.1,3l0.8,0.4l2,0.2h2.1l0.6,0.3l0,0l0.2,0.1l0.5-0.1l3.9-3.4
			l7.2-3.5l8.1-3.2l9.4-3.4l0,0l0,0l0,0l38.3-30.6l3-2.8l3.9-0.6l9.6,2.5l6.4-4.3l5.2-13.4l6.2-10.3l1.5-3.7l1.1-2.7l1.2-1.9
			l1.5-1.7l1.9-1.5l0.2-0.2l2.5-1.9l2.3-1.7l1.4-1.1l3.2-2.3l3.4-2.8l1.6-1.8l2.1-2.9l0.4-0.5l1-1l1.5-1.2l0.4-0.3l1.7-1l4.4-1.5
			l2.5-0.3l3.8-0.6l3.3-0.8l3.3-0.9l4.4-1.5l3.8-2.2l3.5-3l3.2-3.4l0.7,0.1l0.5,0.5l6.1,5l2.2,1.4l0,0l3.2,1.5l2.9,1.1h0.1v-0.2
			l-0.1-0.1l-0.3-0.2l-2.4-1l-1.8-1.2l-3.1-2.1l0,0l0,0h-0.1l-1.4-0.7l-2.9-2.8l0.1-1.1l0.5-0.7l2-2.1l-0.2-0.8l-0.7-0.5l-1.2,0.1
			l-6.6,4.3l-10.2,8.2l-12.4,3.1l-9.8,3.4l-9.4,9.7l-10.7,7.9l-4.6,6l-4.8,8.8l-4.5,9.4l-1.8,4.8l-1.9,4.8l-2.6,3l-3.2,1.1l-0.8,0.1
			l-1.6-0.2l-2.8-0.6h-9.3l-3.2,2.8l-1,1.9l0,0l0,0l0,0l-40.3,29.7l-11.9,4.2l-9.6,4.3l-1.5,0.5l-1.8,1.5l-0.7,1.1l-0.5,0.5
			l-0.4-0.1l-0.3-0.2l-0.1-0.4l-0.7-2.3l-0.8-0.5l-1,0.2l-3.6,1.4l-2.5-1.5l-1.9-0.2l-4,1l-7.1,2.5l-3.2,1l-1,0.4l0,0l-1.4,0.3
			l-0.9-0.5l-1.5-1.6l0,0l-1-1.2l-0.9-3.3l-2-1.8l-3.9-2.7l-1.5,0.2l-0.2,0.2l-0.6,2.5l-1,3.1H273l-1.5-0.1l-3.2,1.7l-3.3,1.6
			l-2.3-0.1l-2.4-1.4l-3.8-3.4l-3.6-3.3l-2.1-1.9l0,0l-0.3-0.3l0.1-0.3l2.7-3.3l-1.9-4l0,0l-0.6-1.6l3.9-1.9l2.2-1l2.2-1.2l1.2-0.6
			l1.2-0.7h0.1l0.2-0.1l2.2-1.1l1.8-1.1l2.8-1.5l0.6-0.4l0,0l2.2-1.3l2.5-1.5l0.2-0.6l-0.2-0.9l-0.2-0.1h-0.1l-0.1,0.2l-0.6,1.4
			l-0.4,0.4v0.2l0.2,0.1l0.2-0.1l0.1-0.2l0.4-0.9l0,0l0,0l0,0l0,0l0,0l0,0l0,0l0,0l0,0l0,0l0,0l0,0l0,0l0,0l0,0l0,0l0,0l0,0l0,0l0,0
			l0,0l0,0l0,0l0,0l0,0l0,0l0.1-0.2l0.4-0.4l0.1-0.1v-0.2l-0.2-0.1l-0.2,0.1l-0.1,0.3l-0.1,0.1l-0.9,1.6l0.2,0.1h0.3l0.9-0.6
			l0.4-1.1l0.1-1.2v-0.4l-0.2-0.2l-0.4-0.1l-0.4,0.3l-2.7,3.3l-1.2,1.5l-4.8,2.8l-1.2,0.5h-0.3H263l-4.3-0.3l-2.3,0.2l-1.3,2.7
			l-0.5,0.9h-0.3l-1.6-0.2l-2.6,1.3l-0.3,0.2l-2.7,1.4l-1.2,0.6h-0.1l-0.5,0.3l-0.5,0.2l-1.4,1l0.1,0.4l0.1,0.3l2.5,3.3l0.7,0.7l0,0
			l2.4,2.2l0.1,0.1l0,0l3.8,3.3l0.2,0.2l1.7,1.6l2.1,1.9l2.6,2.3l2.3,1.5l0.7,0.4l0.8,0.2l4.3-1.4l2.6-1.3l2-0.8l5,2.3l0,0l3.1,1.4
			l1.5,0.7l2.7,0.7l1.3,0.3l0.2,0.1h1.4l3.4-1.1l3.4-1.1l3.9-1.3l1.5-0.7l5.2-0.8l4,2.6l0.2,0.3l1.3,0.7h3.2l0.6,0.1l0.8,0.4h0.1
			l1.7-1.3l5.2-3.7l8.2-3.7l8.5-3l5.6-2.3l0,0l0,0l0,0l38.6-30.6l3.1-2.6l4.3-0.4l6.2,2.6l4.6-1.3l4.3-3.2l5-12.5l5.8-10.2l7.3-12.1
			l10.9-8l8.8-9.4l7.9-3.4l13.5-2.8l10.3-6.3l3.1-3.4l0.9,0.2l2.3,2.1l5.2,4l1.1,0.7l2.6,1.2l3.5,1.3l0.1-0.1v-0.1l-0.1-0.2
			l-0.3-0.1l-0.9-0.2l-4.3-2.7l-1.1-0.7l-0.2-0.2l-0.2-0.1l-0.5-0.3l-3.3-2.4L482,529l0.1-0.7l2.4-3.3l-0.6-0.6l-1.5-0.1l-6,3.6
			l-2.8,3.9l-8.4,5.1l-7.9,2.2l-7.4,1.2l-6.2,2.8l-8.1,8.6l-8.7,6.6l-7.9,8.1l-3.7,7.9l-5.9,11l-4.3,10.3l-3.5,2.8l-3.8,0.4
			l-3.3-0.7l-9.1,0.1l-3.4,3l-1.2,2.2l0,0l0,0l0,0l-38.5,28.8l-11.5,4l-10.7,4.9l-4.2,2.4v0.1l-0.7,1.1l-0.2,0.2h-0.2l-0.5-0.2
			l-0.2-0.5l-0.7-2.2l-0.9-0.6l-3.4,1.4l-1,0.3l-3.2-1.7l-4.4,0.7l-1.2,0.4l-5.7,2l-4.9,1.7l0,0l-2,0.3l-3.2-3l-0.2-1.1l-0.4-2.2
			l-3.1-2.6l0,0l-3-2.2l-1.5,0.1l-0.2,0.2l-1.4,5.2l-0.2,0.4l-0.3,0.1h-1.8l-4.4,2.2l-3.1,0.9H263l-4.2-2.9l-3.9-3.6l-2.8-2.4
			l-1.1-1l0,0l-0.5-0.5l0.1-0.3l2.4-2.6l0.1-0.2l0.2-0.4l-0.7-1.5l-0.2-0.4l-1.4-2.9l-0.1-0.1l-0.1-0.1l-0.1-0.5l0.1-0.1l2.9-1.5
			l2.6-1.2l2.7-1.5l4.7-2.4l5.4-3l1-0.7l0,0l3.7-2.2l0.3-1.3L274,611l-0.2-0.1l-0.2,0.1l-1,1.9l0.1,0.2l0.2,0.1l0.2-0.1l0.2-0.7l0,0
			l0,0l0,0l0,0l0,0l0,0l0,0l0,0l0,0l0,0l0,0l0,0l0,0l0,0l0,0l0,0l0,0l0,0l0,0l0,0l0,0l0,0l0,0l0,0l0,0l0,0l0.2-0.4l0,0l0,0l0,0l0,0
			l0,0l0,0l0,0l0,0l0,0l0,0l0,0l0,0l0,0l0,0l0,0l0,0l0,0l0,0l0,0l0,0l0,0l0,0l0,0l0,0l0,0l0,0l0,0l0,0l0,0l0,0l0,0l0,0l0,0l0,0l0,0
			l0.6-0.9l-0.1-0.2h-0.2l-0.2,0.2l-1,1.9l0.1,0.2h0.3l0.9-0.6l0.3-0.8l0.1-1v-0.9l-0.2-0.1h-0.3l-0.3,0.1l-2.6,3.2l-1,1.4l-5.8,3.4
			l-0.8,0.1l0,0l-0.4-0.1l-5.6-0.2l-1,0.2l-1.7,3.5l-0.2,0.1l-4,0.9l-2,1.1l-0.2,0.1l-1.1,0.7l-0.5,0.2l-1.1,0.5l0,0l-0.3,0.2
			l-1.8,1.1v0.3l0,0l1.4,2.5l2.2,2l0.7,0.7l2,1.8l0,0l0,0l1.9,1.7l1.9,1.7l1.5,1.4l3.3,2.9l3.7,2.8l1,0.5l2.5-0.2l3.3-1.6l0.5-0.2
			l0.2-0.1l0.6-0.3l0.9-0.5l0,0l1.1-0.5h0.2l3.6,1.5l1.5,0.7l3.5,1.6l1.1,0.5l0.6,0.2l3.6,0.8l0,0l0,0l1,0.1l3.7-1.2l4.7-1.6
			l2.9-1.1l1.1-0.5l4.1-1l1.7,0.4l3.8,2.7l0.7,0.4l2.1,0.3h2.2l0.4,0.3l0,0h0.3l1.7-1.2l2-2l3.6-2l4.3-2l4.6-2l5.4-1.8l7.2-2.6
			l0.2-0.1l0,0l0,0l38.5-30.2l2.7-2.8l4.3-0.7l5.2,1.8l2.5,1.1l5.2-2.2l3.3-3.3l4.9-12.8l6.2-10.2l7.1-11.3l10.7-7.9l8.7-9.3
			l8.4-3.2l12.9-2.7l10.7-6.8l2.7-2.8l0.7,0.1l0.9,1l0.9,0.6l5.1,4l2,1.3l2.5,1.2l3.6,1.3l0.1-0.1h-0.1l0,0l-0.1-0.2l-0.3-0.1
			l-1.5-0.5l-1.7-1.1l0,0l-3.5-2.3l0,0l-0.4-0.3l0,0l0,0l0,0l0,0l0,0l0,0l0,0l0,0l0,0l0,0l0,0l0,0l0,0l0,0l0,0l0,0l0,0l0,0l0,0l0,0
			l0,0l0,0l0,0l0,0l0,0l0,0l-4-2.8l-0.5-1.1l0.3-1l2.1-2.8l-0.5-0.6l-0.8-0.2l-2.9,1.1l-4.9,4l-8.2,6.8l-12,3.4l-9.5,2.3l-8.1,8.2
			l-10.4,8l-8.3,8.5l-4.1,8.2l-4.4,7.8l-3.8,10.1l-3.1,4.7l-3.7,1.4l-4-0.8l-5.8-0.5l-4.5,0.6l-3.2,2.7l-1.3,2.2l0,0l0,0l0,0l0,0
			l-38.6,29l-11.5,4.1l-10.1,4.6l-4.7,2.6l-1,1.5l-0.4-0.2l-0.2-0.3l-1.1-2.8l-0.6-0.3L309,643l-1,0.3l-1.5-0.9l-3.4-0.8l-3.5,0.9
			l-2.9,1.2l-3.6,1.2l-3.7,1.2l-1.5,0.5l-1.1,0.1l-0.6-0.4l-2-2l-0.7-1l-0.7-3.2l-2.4-2l-2.3-2.1l-1.2-0.5l-1.5,0.1l-0.2,0.2
			l-0.7,2.7l-0.9,2.8l-0.1,0.1h-0.1l-0.3-0.1l-0.9-0.2l-4.3,2.1l-3.2,1.3H264l-1.6-0.3l-5.6-4.5l-3-1.4l-3-2.7l-0.8-0.9v-0.3
			l2.5-2.6l0.3-0.6l-1.2-2.6l-1.1-2.2l-0.3-0.8l0.2-0.2l1.9-0.9l5.8-2.9l6.8-3.5l4.8-2.8l0,0l1.6-0.8l2.2-1.5l0.2-1.2l-0.1-0.2
			l-0.1-0.1l-0.2,0.1l-0.1,0.2l-1,1.6v0.3l0.1,0.1h0.2l0.2-0.2l0.3-0.7l0,0l0,0l0,0l0,0l0,0l0,0l0,0l0,0l0,0l0,0l0,0l0,0l0,0l0,0
			l0,0l0,0l0,0l0,0l0,0l0,0l0,0l0,0l0,0l0,0l0,0l0,0l0,0l0,0v-0.1l0.9-1.1l0,0v-0.1l-0.2-0.1h-0.1l-1.2,1.8v0.3l0.2,0.1h0.2l0.9-0.7
			l0.5-2.4l-0.1-0.4l-0.2-0.1h-0.3l-0.3,0.2l-3.3,4.1l-5.3,3.4l-1.3,0.6l-6.4-0.2l0,0l0,0l-0.8,0.2l-2,3.6l-1.9-0.1l-3,1.5l-1.2,0.6
			l0,0l-2.4,1.3l-0.8,0.5l-0.9,0.4l0,0l-0.7,0.5v0.2l0.3,0.7l0,0l0.6,1.3l2.6,2.6l3.5,3.2l2.5,2.3l1.5,1.4l2,1.8l0.3,0.4l0.2,0.2
			l2.5,2.2l1.5,1.1l0.6,0.3l1.5,0.7l2.6-0.3l4.5-2.3l1.2-0.6l0.9-0.2l4.7,2l2.2,0.9l2.3,1.1h0.1l0.7,0.2l4.9,1.2l3.8-1.1l3.5-1.2
			l3.4-1.1l1.1-0.5l5.4-1.3l3.6,1.7l2,1.7l1.7,0.4h2.6l0.6,0.4l0.3,0.1l0.4-0.1l1.9-1.8l2.6-2.1l3.8-2l5.3-2.3l5-1.8l5.1-1.7
			l4.7-2.4l0,0l0,0l0,0l0,0l41.2-32.5l4-0.9l5.1,1.5l2.9,1.4l5.3-2.4l3.1-3.2l4.5-11.6l5.6-9.8l6-11.3l10.8-8l9-9.4l7.9-4.3
			l12.9-2.5l10.8-5.3l4.9-4.9l0.7,0.1l6.1,5.1l2.9,1.9l5.4,2.3l0.5,0.1v-0.1V538v-0.1l-0.3-0.2l-2.9-1.3l-2.8-1.8l-1.6-1.1l0,0l0,0
			l0,0l0,0l0,0l0,0l0,0l0,0l0,0l0,0l0,0l0,0l0,0l0,0l0,0l0,0l0,0l0,0l0,0l0,0l0,0l0,0l-4.1-3l-0.3-1l0.4-1l2.1-2.8l-0.5-0.6
			l-0.9-0.2l-3.3,1.3l-5,4.5l-7.7,6.1l-12.1,3.4l-9.6,2.5l-8.1,8.2l-10,7.7l-8.2,8.3l-3.7,7.8l-5.5,9.7l-4.2,10.8l-2.6,3l-3.7,1.2
			l-3.7-0.8l-7.9-0.6l-3.9,1.7l-3,4.1l0,0l0,0l0,0l0,0l-44.4,30.9l-10.3,4l-7.8,3.3l-2.5,2.2l-0.5,0.8l0,0l-0.3,0.3l-0.4-0.1
			l-0.2-0.2l-0.1-0.5l-0.6-2.1l-0.9-0.6l-1,0.3l-3.5,1.4l-2.2-1.3l-1.9-0.5l-4.4,1l-4.4,1.7l-5.6,1.8l-1.6,0.5l0,0l-0.5,0.1
			l-0.9-0.2l-2.2-2.1l-0.8-0.8l-3-5.3l-1.1-0.9l-2.6-1.8l-1.6,0.1l-0.3,0.2l-0.6,2.4l-1,3.2h-0.2l-0.3-0.1l-2,0.4l-3.1,1.6l-4.3,1.3
			l-0.9-0.2l-5.7-4.5l-3.4-3.1l-2.3-2.1l-0.2-0.2l-0.5-0.5v-0.1l0.1-0.2l0.8-0.8l0.3-0.3l1.7-2l-1.4-2.9l-0.8-1.6l0,0v-0.1l-0.4-1
			l0.1-0.2l2.3-1.2l3.4-1.5l3-1.6l4.7-2.4l5.6-3.2l4.2-2.6l0.1-1.2l-0.2-0.2l-0.3,0.1l-0.1,0.2L273,612l0,0l-0.7,1.3l0.1,0.2h0.2
			l0.2-0.2l0.4-0.9l0,0l0,0l0,0l0,0l0,0l0,0l0,0l0,0l0,0l0,0l0,0l0,0l0,0l0,0l0,0l0,0l0,0l0,0l0,0l0,0l0.2-0.4l0.4-0.6l-0.1-0.1
			h-0.2l-0.2,0.2l-1,1.9l0.1,0.2h0.3l0.7-0.3l0.4-0.6l0.3-1.6l0,0v-0.7l-0.1-0.2l-0.3-0.1l-0.4,0.1l-3.8,4.6l-3.2,2l-2.6,1.4
			l-0.7,0.2h-0.2l0,0l-2.9-0.2l-3.9,0.2l-0.2,0.2l-1.6,3.4h-0.3l-1.7-0.2l-2.9,1.5l-1.5,0.8l-2.5,1.3h-0.1l0,0l-2.1,1.3v0.2l0.4,0.9
			l0,0l0.5,1.2l2.4,2.3l0.2,0.1l0,0l2.4,2.1l0,0l0.4,0.4l2.9,2.6l1.7,1.6l2,1.8l5.5,4.5l0.8,0.5l0.9,0.2l3-0.7l3.8-1.9l2.2-0.8
			l2.8,1.2l2.1,0.9l0,0l1,0.4l3.7,1.6l0.8,0.4l1.1,0.3l3.2,0.5l3.7-1.2l2.5-0.9l1.1-0.3l2.6-0.8l2-0.9l5.2-1.2l3.5,1.8l1.5,1.4l0,0
			l1.3,0.6l3.2-0.1l1.5,0.5l0.2-0.2l0,0l0,0l0,0l2-2l2.6-1.9l3-1.4l4-1.9l3.8-1.6l4.4-1.5l6.3-2.3l2.1-1.1l0,0l0,0l0,0l38.5-29.9
			l2.8-3l4.1-0.8l5.2,1.7l2.5,1.2l5-2l3.5-3.3l4.9-12.8L416,573l5.7-10.4l10-7.3l8.4-8.6l7-4.9l12.6-2.4l11.1-4.5l6.8-6.3l0.6,0.3
			l6.3,5.3l2.2,1.4l1.6,0.9l4.7,1.7v-0.3l-0.1-0.1h-0.2l-3-1.4l-0.3-0.1l-3.2-2l-0.4-0.4l-0.3-0.3l-0.1-0.1l0,0l0,0l0,0l0,0l0,0l0,0
			l0,0l0,0l0,0l0,0l0,0l0,0l0,0l0,0l0,0l0,0l0,0l0,0h-0.2l-3.1-2l-1.2-1.6l0.1-1l1.1-1.2l1.2-1.4l-0.2-0.7l-0.6-0.4h-1.1l-5.8,3.2
			l-6.5,6.9l-5.9,2.8L456,540l-7.3,1.2l-6.1,2.7l-3.9,3.9l-3.8,4.5l-5.3,4l-7.6,5.5l-4.4,5.8l-2.7,6.3l-5.1,7.8l-4,10.8l-3.5,5.6
			l-2.6,1.3l-1.9,0.2l-1.2-0.1l-5.7-1l-6.5,0.3l-3.2,2.6l-1.2,2.2l0,0l0,0l0,0l0,0l-40.4,29.7l-9.2,3.3l-6.6,2.9l-1.5,0.5h0.1
			l-0.1-0.3l-0.3-0.4v0.1l-0.1,0.6l-2.2,1.5l0,0l0,0l-0.2,0.1l-2.4,0.7l0,0l0,0l-0.8,0.5l-1,0.8l-0.1,0.1l0,0l-1.5,2l-0.4-0.1
			l-0.2-0.2l-0.7-2.5l-0.9-0.7l-0.7,0.1l-0.4,0.2l-3.3,1.3l-1.7-1l0,0l-2.3-0.7l-4.4,1l-0.1,0.1l-3.2,1.3l-4.8,1.6l-1.9,0.7
			l-2.8,0.6l-1.5-1.3l-0.7-0.7l-1.1-1.3l-0.8-3.3l-1.3-1.1l-1.9-1.5l0,0l-2.4-1.8h-1.7l-0.2,0.1l-0.5,1.8l-0.7,2.4l-0.5,1.5h-0.4
			l-0.5-0.2l-0.7,0.1l-2.2,1.1l-1.9,0.9l-2.9,1.3l-1.3,0.1l-0.6-0.2l-1.2-0.7l-3.6-2.8l-1.4-1.2l-3.7-3.4l-1.3-1.2l-0.7-0.6l0,0l0,0
			l-0.3-0.4l0.1-0.2l2.1-2.2v-0.1l0.7-1l-0.7-1.4l-0.5-1.2l-0.3-0.7l-0.8-1.5l-0.3-0.7l0.1-0.1l1.9-1l2.7-1.2l2.6-1.4l3.5-1.8
			l2.5-1.3l4-2.2l2-1.3l0.5-0.3l3.5-2.2l0.2-1.2l-0.2-0.2h-0.1l-0.2,0.1l-0.2,0.4l-0.9,1.5l0.1,0.2l0.1,0.1l0.2-0.1l0.4-0.7l0,0l0,0
			l0,0l0,0l0,0l0,0l0,0l0,0l0,0l0,0l0,0l0,0l0,0l0,0l0,0l0,0l0,0v-0.1l0.6-0.8l0.3-0.4l-0.1-0.1l-0.2-0.1l-0.2,0.1l-1.1,1.9l0.1,0.2
			h0.3l0.9-0.5l0.4-0.9l0.2-1.8l0,0l0,0v-0.2l-0.2-0.2l-0.4-0.1l-0.4,0.3l-3.5,4.5l-1.9,1.4l-2.8,1.5l-1.7,0.7l-0.5-0.1l0,0
			l-3.4-0.3l-3.1,0.2l-0.3,0.2l-1,2.3l-0.7,1.2h-0.3l-1.5-0.2l-2.6,1.3l-2.3,1.2l-1.7,0.9l0,0l-0.4,0.1l-0.7,0.4l-0.4,0.2l0,0
			l-1.1,0.8v0.3l0.4,0.8l0,0l0,0l1,1.7l2.1,1.9l0,0l0,0l0.2,0.1l2.2,2l0.5,0.4l2.8,2.6l0.9,0.8l2.4,2.1l1.8,1.7l4.3,3.3l0.3,0.1
			l1.6,0.5l3.2-0.9l3.2-1.6l0.8-0.4l0.3-0.2l1.1-0.4l1.4,0.6l3.3,1.5l0,0l3.4,1.5l1.2,0.5l0,0l0.4,0.2l3.3,0.8l0.2,0.1l0.8,0.3h1.4
			l3.1-1.1l2.1-0.7l5.5-1.9h0.1l3.3-1.1l3.4-0.2l3.1,1.9l1,1l0.9,0.5l3.7,0.1l1.1,0.5h0.2l0.2-0.2l1.9-2l2.6-1.9l5.1-2.5l5.4-2.4
			l5.8-2l7.7-2.8l0,0l0,0l0,0l0,0l38.3-30.2l3.2-3l4.2-0.7l6.9,2.6l3.1-0.7l5.3-3.6l4.5-11.2l5.7-10.5l3.9-8.2l8.6-8.1l7.6-5.7
			l6.9-7.8l7.5-3.8l12.2-2.3l10-4.5l6.3-6l0.5,0.2l1.5,1.6l3.9,3.2l2.7,1.8l0,0l0,0l1.2,0.7l4.6,1.9l0,0l0.7,0.2l0.2-0.1l-0.1-0.2
			l-0.3-0.2l-0.7-0.1l-1.9-0.9l-3-1.9l-1.8-1.2l-0.2-0.1l0,0l0,0l0,0l0,0l0,0l0,0l0,0l0,0l0,0l0,0l0,0h-0.1l-2.4-1.6l-1.5-1.9v-1.2
			l1-1.1l1.4-1.5v-0.7l-0.5-0.5l-1-0.3l-4.4,2.1l-8,8l-11.1,4.3l-10.4,2l-7.7,4.5l-7.7,8.2l-6.8,5l-3.6,2.8l-4.4,5.6l-2.8,6.5
			l-5.8,9.7l-4.5,11.4l-2.7,3.4l-3.4,1.2l-3.9-0.7l-8.1-0.7l-3.9,1.7l-2.9,4l0,0l0,0l0,0l-45.9,31.5l-12.1,5.1l-4.8,1.8l0,0h-0.1
			l-0.2,0.2l-1.5,1.3l0,0l0,0l-0.2,0.3l-0.9,1.3h-0.3l-0.5-0.3l-1.3-3.1h-0.5l-3,1.3l-0.8,0.4h-0.3l-1.3-0.7l-0.4-0.3l-1.9-0.8
			l-2.6,0.4l-1.3,0.3l-1.6,0.6l-3.7,1.4l-5.7,1.9h-0.1l-2.8,0.5l-1.4-1.2l-0.8-0.8l-1-1.2l-1-3.6L281,639l-1.7-1.5l-0.2-0.2
			l-2.4-1.6l-1.6,0.1l-0.2,0.2l-0.6,2.2l-1,3.3l-0.5,0.8l-5.7,2l-2.8,1.1l-2-0.2l-2.6-1.6l-3.3-3l-4.2-3.8l-1.3-1.2l-0.8-0.8
			l0.1-0.3l2.2-2.3l0.5-0.8l-0.1-0.3l-0.9-1.7l-0.8-1.9l-0.8-1.8l0.2-0.2l1.6-0.7l3.9-1.9l5.7-3.1l0.3-0.2l0,0l3.8-2.1l2.6-1.3
			l1.9-1.2l0,0l1.2-0.6l2.1-1.4l0.2-1.1l-0.2-0.4l-0.2-0.1l-0.1,0.1l-1,1.8v0.3l0.1,0.2h0.2l0.2-0.2l0.4-0.9l0,0l0,0l0,0l0,0l0,0
			l0,0l0,0l0,0l0,0l0,0l0,0l0,0l0,0l0,0l0,0l0,0l0,0l0,0l0.4-0.6l0.1-0.3l-0.1-0.2h-0.3l-0.2,0.2l-1,2l0.1,0.2h0.2l0.8-0.5l0.5-1.1
			l0.3-1.2l0,0v-0.6l-0.1-0.2l-0.4-0.1l-0.4,0.2l-3.6,4.7l-4.7,2.9l-1.8,0.8l-6.2-0.2h-0.2h-0.1l-0.6,0.2l-2,3.6l-4.6,1.3l-1.6,0.8
			l0,0l-1,0.5l-1.8,0.8l-0.4,0.2l-1.2,0.6L243,627v0.3l0.4,0.6l0,0l0.1,0.2l2.7,3.3l1.4,1.3l4.9,4.4l2.3,2.1l1.3,1.2l1.5,1.4l3.9,3
			l1.4,0.7l2.5-0.4l2.4-1.1l2.8-1.4l1.6-0.5l2.5,1.1l0.9,0.4l4.5,2l1.2,0.5l1.8,0.9l2.1,0.1l0,0l1.4,0.4l4.1-1.2l2-0.7l2.9-0.9
			l2.9-1.1l5.1-1.4l1.7,0.4l3.7,2.8l1.8,0.7h3.1l0.6,0.2h0.2l0,0h0.2l2.3-2.1l3.3-2.3l4.7-2.2l5.1-2.3l5.9-2l7.4-2.8l0,0l0,0l0,0
			l0,0l38.6-30.6l3.1-2.6l4.1-0.6l6.3,2.5l1.8,0.1l6.8-4l5-11.8l5.8-10.7l5.1-10.2l9.5-7.6l8.8-7.7l7.7-6.9l12-2.4l4.8-1.3l1.7-0.3
			l0,0l-0.1,0.1"/>
	</g>
	<g transform="matrix(0.999873,0,0,0.999873,0,0)">
	</g>
	<g transform="matrix(11.8095,0,0,11.8095,0,0)">
	</g>
	<g transform="matrix(11.8095,0,0,11.8095,0,0)">
	</g>
	<g transform="matrix(11.8095,0,0,11.8095,0,0)">
	</g>
	<g transform="matrix(1,0,0,1,0,0)">
	</g>
	<g transform="matrix(11.8095,0,0,11.8095,0,0)">
	</g>
	<g transform="matrix(11.8095,0,0,11.8095,0,0)">
	</g>
	<g transform="matrix(1,0,0,1,0,0)">
	</g>
</g>
<g id="Map_1:_br_x5F_clip_x5F__x5F_geoname__x28_Labels_x29_" inkscape:label="Map 1: br_clip__geoname (Labels)" inkscape:groupmode="layer">
	<g transform="matrix(1,0,0,1,0,0)">
	</g>
	<g transform="matrix(1,0,0,1,0,0)">
	</g>
	<g transform="matrix(11.8095,0,0,11.8095,0,0)">
	</g>
	<g transform="matrix(11.8095,0,0,11.8095,0,0)">
	</g>
	<g transform="matrix(0.999873,0,0,0.999873,0,0)">
	</g>
	<g transform="matrix(0.999873,0,0,0.999873,0,0)">
	</g>
	<g transform="matrix(0.999873,0,0,0.999873,0,0)">
	</g>
	<g transform="matrix(0.999873,0,0,0.999873,0,0)">
	</g>
	<g transform="matrix(0.999873,0,0,0.999873,0,0)">
	</g>
	<g transform="matrix(0.999873,0,0,0.999873,0,0)">
	</g>
	<g transform="matrix(0.999873,0,0,0.999873,0,0)">
	</g>
	<g transform="matrix(0.999873,0,0,0.999873,0,0)">
	</g>
	<g transform="matrix(0.999873,0,0,0.999873,1346.3,879.666)">
		<text transform="matrix(1.0001 0 0 1.0001 -926.5236 -376.5683)" class="st1 st2">Engenho da Rainha</text>
	</g>
	<g transform="matrix(0.999873,0,0,0.999873,0,0)">
	</g>
	<g transform="matrix(0.999873,0,0,0.999873,0,0)">
	</g>
	<g transform="matrix(0.999873,0,0,0.999873,0,0)">
	</g>
	<g transform="matrix(0.999873,0,0,0.999873,0,0)">
	</g>
	<g transform="matrix(0.999873,0,0,0.999873,0,0)">
	</g>
	<g transform="matrix(0.999873,0,0,0.999873,0,0)">
	</g>
	<g transform="matrix(0.999873,0,0,0.999873,0,0)">
	</g>
	<g transform="matrix(0.999873,0,0,0.999873,0,0)">
	</g>
	<g transform="matrix(0.999873,0,0,0.999873,0,0)">
	</g>
	<g transform="matrix(0.999873,0,0,0.999873,1037.22,967.412)">
		<text transform="matrix(1.0001 0 0 1.0001 -691.5924 -443.2643)" class="st1 st2">Engenheiro Leal</text>
	</g>
	<g transform="matrix(0.999873,0,0,0.999873,0,0)">
	</g>
	<g transform="matrix(0.999873,0,0,0.999873,0,0)">
	</g>
	<g transform="matrix(0.999873,0,0,0.999873,1591.01,1071.93)">
		<text transform="matrix(1.0001 0 0 1.0001 -1112.5267 -522.7083)" class="st1 st2">Maria da Graca</text>
	</g>
	<g transform="matrix(0.999873,0,0,0.999873,0,0)">
	</g>
	<g transform="matrix(0.999873,0,0,0.999873,0,0)">
	</g>
	<g transform="matrix(0.999873,0,0,0.999873,580.263,1693.45)">
		<text transform="matrix(1.0001 0 0 1.0001 -344.2611 -995.1233)" class="st1 st2">Cidade de Deus</text>
	</g>
	<g transform="matrix(0.999873,0,0,0.999873,0,0)">
	</g>
	<g transform="matrix(0.999873,0,0,0.999873,0,0)">
	</g>
	<g transform="matrix(0.999873,0,0,0.999873,0,0)">
	</g>
	<g transform="matrix(0.999873,0,0,0.999873,0,0)">
	</g>
	<g transform="matrix(0.999873,0,0,0.999873,0,0)">
	</g>
	<g transform="matrix(0.999873,0,0,0.999873,0,0)">
	</g>
	<g transform="matrix(0.999873,0,0,0.999873,0,0)">
	</g>
	<g transform="matrix(0.999873,0,0,0.999873,593.036,1019.13)">
		<text transform="matrix(1.0001 0 0 1.0001 -353.9692 -482.5748)" class="st1 st2">Vila Valqueire</text>
	</g>
	<g transform="matrix(0.999873,0,0,0.999873,0,0)">
	</g>
	<g transform="matrix(0.999873,0,0,0.999873,0,0)">
	</g>
	<g transform="matrix(0.999873,0,0,0.999873,680.525,840.088)">
		<text transform="matrix(1.0001 0 0 1.0001 -420.4694 -346.4855)" class="st1 st2">Bento Ribeiro</text>
	</g>
	<g transform="matrix(0.999873,0,0,0.999873,0,0)">
	</g>
	<g transform="matrix(0.999873,0,0,0.999873,815.572,906.333)">
		<text transform="matrix(1.0001 0 0 1.0001 -523.1185 -396.838)" class="st1 st2">Osvaldo Cruz</text>
	</g>
	<g transform="matrix(0.999873,0,0,0.999873,0,0)">
	</g>
	<g transform="matrix(0.999873,0,0,0.999873,0,0)">
	</g>
	<g transform="matrix(0.999873,0,0,0.999873,0,0)">
	</g>
	<g transform="matrix(0.999873,0,0,0.999873,0,0)">
	</g>
	<g transform="matrix(0.999873,0,0,0.999873,0,0)">
	</g>
	<g transform="matrix(0.999873,0,0,0.999873,1776.08,997.337)">
		<text transform="matrix(1.0001 0 0 1.0001 -1253.1973 -466.01)" class="st1 st2">Manguinhos</text>
	</g>
	<g transform="matrix(0.999873,0,0,0.999873,0,0)">
	</g>
	<g transform="matrix(0.999873,0,0,0.999873,0,0)">
	</g>
	<g transform="matrix(0.999873,0,0,0.999873,0,0)">
	</g>
	<g transform="matrix(0.999873,0,0,0.999873,0,0)">
	</g>
	<g transform="matrix(0.999873,0,0,0.999873,0,0)">
	</g>
	<g transform="matrix(0.999873,0,0,0.999873,0,0)">
	</g>
	<g transform="matrix(0.999873,0,0,0.999873,0,0)">
	</g>
	<g transform="matrix(0.999873,0,0,0.999873,0,0)">
	</g>
	<g transform="matrix(0.999873,0,0,0.999873,1177.58,1319.29)">
		<text transform="matrix(1.0001 0 0 1.0001 -798.2795 -710.7259)" class="st1 st2">Agua Santa</text>
	</g>
	<g transform="matrix(0.999873,0,0,0.999873,0,0)">
	</g>
	<g transform="matrix(0.999873,0,0,0.999873,0,0)">
	</g>
	<g transform="matrix(0.999873,0,0,0.999873,0,0)">
	</g>
	<g transform="matrix(0.999873,0,0,0.999873,0,0)">
	</g>
	<g transform="matrix(0.999873,0,0,0.999873,809.122,1183.85)">
		<text transform="matrix(1.0001 0 0 1.0001 -518.2155 -607.7779)" class="st1 st2">Praca Seca</text>
	</g>
	<g transform="matrix(0.999873,0,0,0.999873,0,0)">
	</g>
	<g transform="matrix(0.999873,0,0,0.999873,0,0)">
	</g>
	<g transform="matrix(0.999873,0,0,0.999873,0,0)">
	</g>
	<g transform="matrix(0.999873,0,0,0.999873,1279.46,1146.41)">
		<text transform="matrix(1.0001 0 0 1.0001 -875.718 -579.3202)" class="st1 st2">Encantado</text>
	</g>
	<g transform="matrix(0.999873,0,0,0.999873,0,0)">
	</g>
	<g transform="matrix(0.999873,0,0,0.999873,984.006,1062.31)">
		<text transform="matrix(1.0001 0 0 1.0001 -651.145 -515.3956)" class="st1 st2">Cascadura</text>
	</g>
	<g transform="matrix(0.999873,0,0,0.999873,0,0)">
	</g>
	<g transform="matrix(0.999873,0,0,0.999873,0,0)">
	</g>
	<g transform="matrix(0.999873,0,0,0.999873,745.937,1419.8)">
		<text transform="matrix(1.0001 0 0 1.0001 -470.1894 -787.1227)" class="st1 st2">Pechincha</text>
	</g>
	<g transform="matrix(0.999873,0,0,0.999873,0,0)">
	</g>
	<g transform="matrix(0.999873,0,0,0.999873,806.345,1035.03)">
		<text transform="matrix(1.0001 0 0 1.0001 -516.105 -494.6609)" class="st1 st2">Campinho</text>
	</g>
	<g transform="matrix(0.999873,0,0,0.999873,0,0)">
	</g>
	<g transform="matrix(0.999873,0,0,0.999873,901.676,993.294)">
		<text transform="matrix(1.0001 0 0 1.0001 -588.5657 -462.9372)" class="st1 st2">Madureira</text>
	</g>
	<g transform="matrix(0.999873,0,0,0.999873,0,0)">
	</g>
	<g transform="matrix(0.999873,0,0,0.999873,0,0)">
	</g>
	<g transform="matrix(0.999873,0,0,0.999873,1485.2,1120.69)">
		<text transform="matrix(1.0001 0 0 1.0001 -1032.1008 -559.7704)" class="st1 st2">Cachambi</text>
	</g>
	<g transform="matrix(0.999873,0,0,0.999873,0,0)">
	</g>
	<g transform="matrix(0.999873,0,0,0.999873,0,0)">
	</g>
	<g transform="matrix(0.999873,0,0,0.999873,825.196,1577.67)">
		<text transform="matrix(1.0001 0 0 1.0001 -530.4339 -907.1193)" class="st1 st2">Freguesia</text>
	</g>
	<g transform="matrix(0.999873,0,0,0.999873,0,0)">
	</g>
	<g transform="matrix(0.999873,0,0,0.999873,0,0)">
	</g>
	<g transform="matrix(0.999873,0,0,0.999873,0,0)">
	</g>
	<g transform="matrix(0.999873,0,0,0.999873,0,0)">
	</g>
	<g transform="matrix(0.999873,0,0,0.999873,0,0)">
	</g>
	<g transform="matrix(0.999873,0,0,0.999873,0,0)">
	</g>
	<g transform="matrix(0.999873,0,0,0.999873,0,0)">
	</g>
	<g transform="matrix(0.999873,0,0,0.999873,0,0)">
	</g>
	<g transform="matrix(0.999873,0,0,0.999873,1280.22,1034.81)">
		<text transform="matrix(1.0001 0 0 1.0001 -876.2964 -494.493)" class="st1 st2">Abolicao</text>
	</g>
	<g transform="matrix(0.999873,0,0,0.999873,0,0)">
	</g>
	<g transform="matrix(0.999873,0,0,0.999873,0,0)">
	</g>
	<g transform="matrix(0.999873,0,0,0.999873,0,0)">
	</g>
	<g transform="matrix(0.999873,0,0,0.999873,0,0)">
	</g>
	<g transform="matrix(0.999873,0,0,0.999873,0,0)">
	</g>
	<g transform="matrix(0.999873,0,0,0.999873,0,0)">
	</g>
	<g transform="matrix(0.999873,0,0,0.999873,496.424,1439.14)">
		<text transform="matrix(1.0001 0 0 1.0001 -280.5353 -801.8228)" class="st1 st2">Taquara</text>
	</g>
	<g transform="matrix(0.999873,0,0,0.999873,0,0)">
	</g>
	<g transform="matrix(0.999873,0,0,0.999873,0,0)">
	</g>
	<g transform="matrix(0.999873,0,0,0.999873,1259.21,1094.59)">
		<text transform="matrix(1.0001 0 0 1.0001 -860.3265 -539.9315)" class="st1 st2">Piedade</text>
	</g>
	<g transform="matrix(0.999873,0,0,0.999873,0,0)">
	</g>
	<g transform="matrix(0.999873,0,0,0.999873,0,0)">
	</g>
	<g transform="matrix(0.999873,0,0,0.999873,0,0)">
	</g>
	<g transform="matrix(0.999873,0,0,0.999873,0,0)">
	</g>
	<g transform="matrix(0.999873,0,0,0.999873,0,0)">
	</g>
	<g transform="matrix(0.999873,0,0,0.999873,0,0)">
	</g>
	<g transform="matrix(0.999873,0,0,0.999873,724.782,1338.2)">
		<text transform="matrix(1.0001 0 0 1.0001 -447.4413 -727.4323)" class="st1 st2">Tanque</text>
	</g>
	<g transform="matrix(0.999873,0,0,0.999873,0,0)">
	</g>
	<g transform="matrix(0.999873,0,0,0.999873,0,0)">
	</g>
	<g transform="matrix(0.999873,0,0,0.999873,0,0)">
	</g>
	<g transform="matrix(0.999873,0,0,0.999873,0,0)">
	</g>
	<g transform="matrix(0.999873,0,0,0.999873,0,0)">
	</g>
	<g transform="matrix(0.999873,0,0,0.999873,0,0)">
	</g>
	<g transform="matrix(0.999873,0,0,0.999873,0,0)">
	</g>
	<g transform="matrix(0.999873,0,0,0.999873,0,0)">
	</g>
	<g transform="matrix(0.999873,0,0,0.999873,0,0)">
	</g>
	<g transform="matrix(0.999873,0,0,0.999873,0,0)">
	</g>
	<g transform="matrix(0.999873,0,0,0.999873,0,0)">
	</g>
	<g transform="matrix(0.999873,0,0,0.999873,0,0)">
	</g>
	<g transform="matrix(0.999873,0,0,0.999873,0,0)">
	</g>
	<g transform="matrix(0.999873,0,0,0.999873,1480.62,1249.57)">
		<text transform="matrix(1.0001 0 0 1.0001 -1028.6193 -657.7317)" class="st1 st2">Meier</text>
	</g>
	<g transform="matrix(0.999873,0,0,0.999873,0,0)">
	</g>
	<g transform="matrix(0.999873,0,0,0.999873,0,0)">
	</g>
	<g transform="matrix(0.999873,0,0,0.999873,0,0)">
	</g>
	<g transform="matrix(0.999873,0,0,0.999873,0,0)">
	</g>
	<g transform="matrix(0.999873,0,0,0.999873,0,0)">
	</g>
	<g transform="matrix(11.8095,0,0,11.8095,0,0)">
	</g>
	<g transform="matrix(11.8095,0,0,11.8095,0,0)">
	</g>
	<g transform="matrix(11.8095,0,0,11.8095,0,0)">
	</g>
	<g transform="matrix(1,0,0,1,0,0)">
	</g>
	<g transform="matrix(11.8095,0,0,11.8095,0,0)">
	</g>
	<g transform="matrix(11.8095,0,0,11.8095,0,0)">
	</g>
	<g transform="matrix(1,0,0,1,0,0)">
	</g>
</g>
<g transform="matrix(0.999873,0,0,0.999873,1710.35,1818.29)">
	<text transform="matrix(1.0001 0 0 1.0001 -1224.365 -1316.8499)" class="st3 st1 st4">5 de novembro de 2024, h 20:37</text>
</g>
<g transform="matrix(0.999873,0,0,0.999873,1710.35,1818.29)">
	<text transform="matrix(1.0001 0 0 1.0001 -1224.365 -1305.7233)" class="st3 st1 st4">Av. Governador Carlos Lacerda - Inhaúma</text>
</g>
<circle class="st5" cx="461" cy="538.1" r="3"/>
</svg>
