<?xml version="1.0" encoding="utf-8"?>
<!-- Generator: Adobe Illustrator 19.0.0, SVG Export Plug-In . SVG Version: 6.00 Build 0)  -->
<svg version="1.1" id="Layer_1" xmlns="http://www.w3.org/2000/svg" xmlns:xlink="http://www.w3.org/1999/xlink" x="0px" y="0px"
	 viewBox="0 0 795 595" style="enable-background:new 0 0 795 595;" xml:space="preserve">
<style type="text/css">
	.st0{fill:none;stroke:#000000;stroke-width:0.1417;stroke-linecap:square;stroke-linejoin:bevel;}
</style>
<g id="Map_1:_line_x5F_A29064_x5F__x5F_474_x5F__x5F_7settembre2022" label="Map 1: line_A29064__474__7settembre2022" groupmode="layer">
	<g id="XMLID_640_" transform="matrix(1,0,0,1,0,0)">
	</g>
	<g id="XMLID_639_" transform="matrix(1,0,0,1,0,0)">
	</g>
	<g id="XMLID_638_" transform="matrix(11.8095,0,0,11.8095,0,0)">
	</g>
	<g id="XMLID_637_" transform="matrix(11.8095,0,0,11.8095,0,0)">
	</g>
	<g id="XMLID_636_" transform="matrix(0.999873,0,0,0.999873,0,0)">
	</g>
	<g id="XMLID_634_" transform="matrix(0.999873,0,0,0.999873,0,0)">
		<path id="XMLID_635_" vector-effect="none" class="st0" d="M287.4,141.7L287.4,141.7L287.4,141.7L287.4,141.7L287.4,141.7
			L287.4,141.7l-0.2,0.1l0,0l0,0l0,0l0,0l0,0l0,0v0.2l0,0l0,0l0,0l0,0l0,0l-0.3-0.4h-0.4l-1.3,0.4l-0.1,0.5l0.1,0.4l0.6,1l0,0
			l-0.5,0.4l-8.2-3l-6.3-2.4l-4.7-1.8l-2.8-1.3l-0.1-0.5l-0.2-1l-6.4-0.2l-3.7-0.4l-0.8-0.5l0.1,1.2l0.7,1.1l1.5,0.8l0.9-0.2
			l1.8-0.8l10.8,3.5l0.4,0.1l10.9,4.4l9.7,4.8l7.8,9.1l2,2.3l6.9,2.3l8.8,1.4l9.9,6.2l9.6,6.8l9,4.4l3.1,3.9l0.1,1l-0.3,1.6l2.3,4.8
			l-0.3,0.3l-3.5,1.9l-3.6,5.5l0.5,0.5l6.7,3.6l3.6,2.5l0.3,1l0.2,7.1l-0.2,0.3h-0.5l-2.9-1l-0.8-0.5l0,0l0,0l0,0l-0.2-0.1l0,0l0,0
			l0.1,0.2l0,0l0,0l0,0l0,0l0,0l0,0l-0.5,0.6l0.4,1.4l1.9,0.7l2-1.1l0,0l2.2-1.3l1-0.8l1.6-0.8l3.7,1.3l1.5,1.1l1.4,0.8l-0.2,5.1
			l-0.4,0.6l2.5,11.6h5.3l5.9-0.1L387,232l2.7-0.6l1.3-0.6l0.2-0.6l0.4-1.1l7.7-7.8l0.8,0.2l1,0.6l0.2,0.2v0.4l-1.4,6.8l0.4,0.3
			l1.4-0.2l1.2-0.6l1.5-0.2l4.6,1.1l0.7,0.5l1.4,0.5l2.4,2.3l4.8,1.5l3.1-0.1l3.3-0.8l6-0.4l4.5,2.2l1.2,0.5l0.8,1.5l0.3-0.1
			l0.7-0.9l3.7-3.4l8.1-1.9l0.4,0.4l0.4,1.3l0.2,0.7l2.7,5.5l-0.1,0.2l-2.9,3.1l-1.2,3.2l0.4,2.5h0.5l0.4-0.3l1.7-0.8l6.3-2.1
			l7.9-2.9l1.9-0.7l0.2,0.3l0.3,7.2l-0.2,8.5l-0.1,0.1l0.4,5.4l1.5,1.3l2.4,0.4l4.5-1l0,0l0,0l0,0l-0.1-0.2l0,0l0,0h0.1l5.5-1.4
			l7.3-1.7l0.4,0.3l1.7,7.6l-0.5,5.9v0.3l0.2,0.7l2.6,0.6l7.1-0.5l0.3,0.6l1.2,5.6l-0.1,0.4l-0.8,6l1.4,4.2l18.9,35.1l1.2,7.1
			l0.2,0.1l0.9,5.2l0.7,4.6l0.7,4.5l-4.3,7.1l-0.2,0.8l-0.2,1.1v0.6l0.4,0.1l2.5,0.2l0,0l0.3-0.1l0.5,0.3l-0.3,3.1v2.1l2.6,7.7
			l0.4,0.7l-0.5,0.9l-1.5,1.3l-1.1,0.8l0.1,0.6l1.4,3.8l0.8,1.1l0.9,2.7l0.5,0.3l4.2,0.3l1.2,0.4l0.3,1l1.9,8.6l1.9,5.6l-1.3,2
			l-2.2,1.1l-0.5,0.3l-1.3,1.3l-1.6,0.8l-2.3,1.6l-5.5,2.5l-2.7,1.6l-1.5,1.3l-1.9,0.8l-0.2,0.5l-4.4,2.4l-0.3,0.3l-1.1,1.4h-0.2
			l-1.4,0.4l-0.2,0.4l-5.6,4.3l-1.9,2.3l-0.8,0.8l-1.6,3l-0.5,0.7l-1.2,2.1l-1.2,2.3l-0.4,0.4l0,0l-0.4,2l-0.5,10.9l0.5,2.4l0.2,1.8
			l-0.2-0.2l0.2,0.1l1.2,5.4l0.6,3.9l0.5,0.6l2.2-0.5l-0.2-1.4l-0.4-2.4l-1.1-5.8l-0.6-2.1l0.4-4.5l1.1-5l-0.2,0.2l0.3-0.4l1-3.4
			l0.4-1.7l1.2-2l0.7-1.1l0.9-1.3l2-2.6l2.2-3.2l4.5-4.7l2-1.8l0.1,0.3l4.1-2.6l7.2-3l2.8-1.3l2.8-1.2l2.3-1.2V408l6.1-2.2l1.5-0.6
			l-0.1-0.4l-1-2.6l-0.7-1.8l-1.3-3.6l-3.4-10.4l-0.2-4.2l2.9-4.2l1.4-1.8l1.7-2.6l-0.4-1l-3.9-2.8l-2.2-0.2l-7,1.8l-0.8-1.1l-1.5-8
			v-1.9l0.4-1.6l1.9-7.2l-1.4-5.8l-1.3-7.1l-1.4-8l-0.5-4.1l-1.7-5.7l-3.6-6.1l-14.9-28l1-9.6h-0.6l-0.6,0.6l-0.1,0.8l0.3,3.7
			l-0.3,0.4l-0.5,0.1l-0.6-0.3l-0.4-0.6l-0.9-2.9l-0.7-3.3v-0.5l0.4-0.2l1.2-0.5l0.3-0.9l0.1-5.9l-3.3-8.5l-0.9-4.8l0.8-0.9l1-0.2
			l0.7,0.2l0.5,0.7l-0.2,0.9l-0.8,0.7l-10.1,3.1l-6.9,1.8l-4.1,0.9l-1,0.3l-3.8,0.9l-3.1-1.1l-0.4-1.1l0.5-4.9l-0.1-2v-1.2v-0.3
			v-0.7l-0.1-0.7l0.1-0.6v-0.7v-0.3V249v-0.7v-0.4l0,0v-0.4l0,0l0,0l0,0v-0.2l0.1-1l-0.1-0.3l0.1-0.6h0.1l0.1-0.3l-0.1-0.2v-0.3l0,0
			l-0.1-0.4v-0.4v-0.2v-1v-0.9l0,0v-0.5v-1v-0.1v-1.6l0.3-0.6l2.8,0.3l0.1,0.4l-0.2,7.5l-0.2,0.7l0.1,3l-0.3,1l-2.2,2l-10.1,0.6
			l-0.4-0.4l-3.3-7.3l-2.8-5.7l-0.3-1.4l1.8-2.7l-3-5.9l-0.2-0.4l0,0l-1.9-3.7l-1.5-2.8l-0.9-1l-0.6,0.1l-6.4,7.1l-1.8,2.3l0.2,0.7
			l0.6,1.4l-0.4,0.2l-2.8,0.7l-2.7,0.1l-3.6-1.6l-1.1-0.4l-1.4-0.2l-8.1,1.6l-4.4-0.5l-4.5-2.2l-3.2-4.6l0.4-3.1l-0.4-2.1l-3.8-4.3
			l0,0l0,0l0,0l-1.1-2.8l-0.5-2.6l0.7-1.3l-0.3-0.2l-0.3,0.2l-0.7,0.9l-0.5,1l-0.8,1.2l-2,7l-5.3,5.5l-2.7,2.5l-2.8-0.1l-2.5-0.2
			l-2.5-4.5l-1.2-1.5l-0.4,0.1l-7.1,2.8l-2.2,0.5l0.2,4.3l-0.2,1.8l-7.9,0.1l-1.9-0.3l0.3-3.3l-0.2-7.4l0.5-2.5l1.6-3l-0.1-0.4
			l-0.3-0.3l-4.9-2.4l-1.2-0.5l-2.6-0.4l-2.8,1.9l0,0l-2,0.4l-3.1-1.3l0,0l0.1-0.2v0.1l-0.1,0.2l0,0l0,0l0,0l0,0l-0.4,0.1l-0.6,1.4
			l0.3,0.2l2.4,0.9l2.2-1.1l0,0l0.5-0.3l2.6-1.7l1.6-0.7l4.8,2.1l1.6,1.2l-0.3,5.1l-0.3,0.5l0.5,6.6v0.4l-0.3,0.1l-4-0.1l-0.1,0.4
			l0.2,4.4l0.3,0.2l4.2-0.2h6.6l4.2-0.2h10.9l5-0.9l1.4-0.7l3.6-5.4l4.6-4.3l0.7,0.1l1.3,1v0.4l-1.2,5.6l-0.1,1.4l0.5,0.2l2-0.6
			l1.8-0.5l2.9,0.4l1.8,0.6l0.1-0.1l0.4,0.1l1.6,0.7l5.7,3.6l2.2,0.5l5-0.8l3-0.6l3.4-0.3l3.8,1.7l1.5,1h0.3l0.6,0.2l1.1,1.7
			l3.1-3.1l1.8-1.2l6.8-1.7l1.2-0.1l0.2,0.5l0.6,0.9l0.2,0.4l1.6,4.1l0.7,1.4l-0.1,0.6l-4,5.4l0.2,1.9l0.2,0.3v0.3l-0.2,0.7l0.4,0.3
			l0.5-0.2l4.7-1.9l4.9-1.9l8.5-2.8l0.3,0.4l0.1,7.7l-0.3,8l0.1,1.7l0.4,3.6l1,1.1l2.5,0.6l5.5-1.2l2.6-0.9l9.5-2.3l0.4,0.3l0.3,1.8
			l0.8,2.9l0.7,3.9l-0.1,0.6l-0.1,2.4v3.1l0.6,0.2l6.5-0.1l1.8-0.3l0.6,0.1l0.4,0.5l1.2,5.9l-0.6,3.5l0.1,4.9l19,33.3l2.1,9.5
			l0.2,1.4l0.8,5.5l0.6,4.6l1.1,4.2l-4,4.7l-0.6,3.4l-0.2,1.6l0.2,0.2l3.1,0.3v0.2l-0.3,3l0.4,1.4l2.1,7.6l0.9,1.6l-0.8,0.9
			l-2.3,1.9l0.2,0.6l1,2.2l0.8,2.4l0.5,1.4l1.3,2.1h0.4l4.2-0.2l0,0l0.7,0.4l0.3,0.6l1.6,8.8l2.2,5.9l-1.3,1.9l-2.6,1.3H533
			l-3.6,2.1l-3.9,3.2l-3.5,1.9l-2.3,1.2l-0.5,0.2L519,411l-0.6,0.5l-5.8,3.3l-0.5,0.5l-0.7,0.4l-0.1,0.2l-0.3,0.2l-5.6,4.1l-1.6,1
			l-2,3.5l-0.5,0.6l-1.8,2.9l-0.2,0.5l-1.7,3.3l-1.4,3.8l-0.1,0.7l0,0l-0.2,0.7l-0.1,9.7l0.4,0.9v0.5l0.8,5.2v0.4l1,3.7l0.2,0.2v0.1
			l0.4,1.1l0.6,2.1l1.2,0.1l0.5-1.4h-0.2l-0.1-1.2v-2.3l0,0l-0.6-2.4l-0.7-3.2l-0.4-2.3l0.1-3.9l1.4-4.4l0.4-0.5l-0.1-0.2v-0.5
			l1.6-5.3l0.9-2.2l-0.2-0.2l1.6-1.9l0.4-0.6l3.7-3.7l0.3-0.2l2.9-4.3l0.6-0.1l-0.2-0.3l4.2-3.1l5-3l4.1-1.5l4.4-1.4l0.7-0.1
			l2.7-1.8l6.2-2.7l2.8-1.1l-0.2-0.3l-1.9-4.2l-0.4-1l-4.3-12l-0.1-4.1l0.6-2.7l5.5-7.8l-0.4-0.7l-4.2-2.8l-2.1-0.2l-6.4,2.1
			l-0.5-0.4l-1.9-6.5l-0.4-3.3l0.2-2.5l0.3-0.1l1.8-6.4l-1.9-8.8l-1.9-10.1l-1.1-7.2v-0.1v-0.4l-2.1-6.1l-17.6-32.7l1.1-9.6
			l-0.6-0.3l-0.6,0.3l-0.2,0.8l0.4,4l-0.4,0.3h-0.5l-0.4-0.3l-1.1-3l-0.7-2.9l-0.1-0.5l0.1-0.5v-0.6l0.5-0.1l0.8-0.4l0.5-1.2
			l0.2-5.3l-2.9-7.3l-1.3-6.3l0.6-0.7l1.3-0.2l0.7,0.3l0.3,0.5l-0.1,0.7l-0.6,0.6l-8.9,2.8l-10.8,2.8l-3.9,1.2l-2.9,0.5l-3.4-1.4
			l-0.2-0.8l0.4-10.9l0.1-3.2l0.1-6.7V239v-0.8l0.2-0.3h0.4l2.7,0.2l0.1,0.5l-0.3,6.7v0.5l-0.4,4.9l-2.2,2.1l-10.1,0.6l-0.5-0.3
			l-0.3-0.6l-2.9-7.3l-0.4-0.2l-0.4-0.3l-2.6-5.8l1.8-3l-3.2-6v0.1l-2.4-5l-1.8-2.8l-0.7,0.2l-5.1,5.8l-3.1,3.9l0.4,0.8l0.6,1.1
			l-0.2,0.2l-2.7,0.9l-1.5,0.2l-3.8-1.2l-4.3-1.2l-7.5,1.5h-2.8l-0.3-0.1l-2.4-0.7l-3.2-1.5l-2.2-3.1l-1.3-1.4l0.1-5.2l-0.6-1.1
			l-3.3-3.6l0,0l-1.3-2.8L403,212l0.6-1.1l-0.3-0.2l-0.4,0.1l-0.6,1.1l-0.5,1l-0.9,1.5l-2.3,6.9l-5,5.2l-2.7,2.6l-3.2-0.2l-2-0.3
			l-3.7-5.9l-0.8,0.4l-8.5,3l-0.4,0.1l0.1,1.7l0.1,4.3l-0.1,0.1H372l-8.6-0.1l-0.8-0.2v-7l-0.1-3.5l0.3-2.4l1.8-3v-0.8l-0.4-0.2
			l-4.8-2.4l-0.7-0.4l-2.7-0.5l-5.6,2.4l-2.5-1.3l0,0l0,0l0,0l0,0l0,0l0,0l0,0l0,0l0,0l0,0l0,0l0,0h-0.2l-0.4,0.4l-0.4,1.3l0.4,0.3
			l2.5,0.6l6.1-3.6h0.9l5.1,2.5l0.9,0.7l-0.1,4.9l-0.2,0.3l-0.2,0.3l0.1,0.4l0.4,6.5l-0.1,0.1l-0.4,0.1h-3.7l-0.1,0.4l0.1,4.3
			l0.4,0.2l6.7-0.2l9.8-0.2h1.9l10.7-0.5l1.8-0.3l0.6-0.1l0.2-0.1l0.6-0.4l3.4-5.1l4.8-4.6l0.6,0.1l0.5,0.4l0.3,0.3l0,0l0.5,0.8
			l-1.6,7l0.2,0.2l0.7-0.1l2.3-0.7l1.6-0.2l4.3,0.9l0,0l2,0.8l2.8,2.6l4.7,1.4l2,0.1l2.4-0.6l1-0.1l3-0.6l3.9-0.2l4.6,2.3l0,0
			l0.1,0.1l0.3,0.1l0.8,0.3l1.1,1.6l3.7-3.7l1.2-0.7l7.8-2.1l0.5,0.5l2.8,7l0.1,1l-4,4.9v1.8l0.2,1l-0.2,0.6l0.2,0.4l0.5,0.1
			l0.4-0.5l7.1-2.8l9.2-2.9l1.6-0.5l0.2,0.4l0.2,6.8v4.6l-0.2,4.1l0.5,5.7l1.8,1.2l2.4,0.2l4.5-1.2l0,0l1.3-0.4l8.3-2l2.9-0.5
			l0.3,0.3l0.6,3l1.1,5.6l-0.6,4.6l-0.1,0.8l0,0l0.2,0.4l0.6,0.2l4.6,0.1l2.2-0.1l2.5-0.1l0.3,0.7l0.4,9.3l0.4,5.3l19.6,34.7l1,5.3
			l0.4,3.3l0.4,3.5l1.2,6.6l1.1,4l-0.2,0.5l-2.8,2.6l-0.7,0.8l-1.4,5.4l-0.1,0.5l0.3,0.2l2.6,0.1l0.2-0.2l0.7,0.5l-0.6,3l0.2,1
			l1.6,6.4l1.2,2.5l0.5,0.7l-0.3,0.5l-2.8,3.2l2.5,5.7l0.6,1.7l0.5,0.5l0.4,0.1l3.9-0.1l0.5,0.1l0.7,0.3l0.4,1.3l1.8,8.8l1.9,5.3
			l-1.8,2.6l-1.7,0.1l-2.3,1.7l-1.2,0.4l-2.7,2l-5.4,3.4l-1.5,0.7l-0.5,0.1l-2,1.2l-2.1,1.1l-1.8,1v0.2l-0.4,0.1l-2.2,1.8l-4.5,2.5
			l-1.4,0.7l-3,3.4l-0.4,0.4l-1.9,2l-0.3,0.3l0.1,0.3l-0.3,0.1l-0.6,0.9l-0.7,1.5l-0.6,0.6l-0.6,1.4l-0.9,1.8l-0.8,1.4l0,0l-0.2,1
			l-0.3,1.2l-0.3,0.2l0.1,0.3l0.2,0.2v0.6l-0.6,1.1l0.1,8.6l0.1,0.6l0.3,1.6v0.3l0.1,2.4l0.7,1.9l0.5,2.8h-0.2l0.6,1.5v1.3l-0.2,0.8
			l0.8,1.5l0.8,0.1l0.7-0.4l0,0l0,0l0.2,0.1l0,0h0.2l0.5-0.3l-0.3-0.4l-0.3-0.6l0.3-0.3l-0.1,0.1l-0.2-2.3l-0.8-2.8l-0.2-0.1
			l-0.1-0.2l-0.3-2l-0.7-1.9l0.1-0.9l0.4-2.2l-0.2-0.2l0.5-0.3l-0.1-0.9v-0.5l0.1-1.2l0.2-0.8l-0.1,0.1v-0.8l0.3-0.6v-0.6l0.1-0.6
			l0.4-0.7h-0.1l0.1-0.4l0.3-1l0,0l0,0l0.5-1.1l1.2-3.5l1.3-2.2l0.3-0.5l0.3-0.5l0.7-1.3l0,0l0.1-0.4l1.5-1.4l0.6-0.9l1.6-2.2v-0.1
			l0.1,0.2l1.1-1.4l0.1-0.2l0.2-0.5l1.1-1.3l0.8-0.7l-0.2-0.1l1.8-1.2l2.3-2l2.1-1.4l5.7-3l5.9-1.5l0.2-0.2l1.9-0.9l2-1.1l3.3-1.6
			l1-0.2l0.1-0.3l0.7-0.7l1.2-0.3l2-0.7l-2.7-7.5l-3.7-10.9l-0.1-4.1l0.9-2.2l5.1-7.4l-0.5-1.2l-3.4-1.8l-2.9-0.4l-6.6,1.6l-0.8-1.4
			l-1.2-5.2l-0.5-3.2l0.4-2.4l1.1-4.5l0.8-3.8l-2-8l-0.6-3.8l-0.6-3.9l-1.3-7.8l0.1-0.9l-1.6-5.2l-18.3-32.8l0.8-11l-0.6-0.3
			l-0.5,0.2l-0.2,0.7l0.1,4.4l-0.5,0.2l-0.5-0.2l-0.5-0.6l-0.7-2l-1-3.9l-0.1-1l0.4-0.2l1.2-0.5l0.3-0.6l0.3-5.7l-3.1-7.7l-1.2-6.1
			l0.6-0.6l1.4-0.3l0.8,0.4l0.2,0.7l-0.3,0.8l-3.5,1.5l-10.9,3l-0.4,0.1l-10.6,2.8l-2.5-0.1l-2.4-1.1l-0.3-1.1l0.6-5.2l0.1-8
			l0.3-7.3v-0.4l0.1-1.3l0.3-0.1l2,0.1l0,0l0,0l0,0l0,0l0,0l0,0l0,0l0,0l0.2,0.1l0.4,0.1l0.1,0.4l-0.3,6l-0.1,2.2l-0.2,3.8l-2.1,2
			l-9.4,0.7l-1.2-0.2l-0.5-0.7l-3-7.4l-2-3.8l-1.2-2.5l0.2-0.5l1.6-2.2l-0.1-0.5l-1.5-2.8l-3.8-7.3l-1.2-2.3l-0.7-1.1l-0.6-0.1
			l-0.7,0.6l-4.3,4.6l-2.8,3.2l-0.6,0.9l0.4,1l0.6,1.3l-0.1,0.1l-2.4,0.7l-5-0.5l-2.2-1.2l-2.2-0.4l-7.5,1.6l-4.9-0.4l-4.4-1.9
			l-3.6-4.9l0.4-4l-0.6-1.6l-4.2-4.5l-0.6-1.5l-1.3-4.2l-6.1-5.1l-0.6-0.3l-0.2,0.3l0.3,0.4l5.4,4.4l1.3,1.3l-0.1,0.4l-2.7,7
			l-2.1,2.6l-5.1,6l-1.3,0.8l-5-0.2L385,228l-2.4-4.4l-1.1-1.2l-7.3,2.8l-2.4,0.6l0.1,4.2l-0.2,1.9h-8.1H362l-0.1-0.4v-7.2v-3.2
			l0.3-2.4l1.9-3.1l-0.2-0.7l-4.9-2.4l-1.6-0.6l-2.5-0.4l-1.9,1.4l-2.5,1.1l-3.1-1.3l-0.3-0.1l0,0l0,0l0,0l0,0l0,0l0,0l0,0l0,0l0,0
			l-0.6,0.4l-0.4,1l0.1,0.2l2.5,1.1l4.9-2.8l0.4-0.3l1.3-0.9l2.6,0.8l0.4,0.2l0,0l0.4,0.2l2.2,1.4l1,0.6l-0.3,5.1l-0.3,0.7l0.3,2.5
			l0.1,2.3v2l-0.3,0.1l-3.9,0.1l-0.1,0.6l0.5,4.2l4.1-0.1h1.5l5.3-0.1l5.6-0.1l9.4,0.1l4.8-0.9l0.6-0.1l0.9-0.4l0.1-0.3l0.4-1.3
			l3.9-4.7l3.8-3.4l0.7,0.1l0.3,0.5l0.3,0.1l0.7,0.5l-0.1,0.4l-1,3.8l-0.4,2.8l0.3,0.3l1.3-0.1l2.7-0.9l4.8,1.1v0.1l1.9,0.7l2.7,2.5
			l4.3,1.3l0.9,0.3l4.7-0.6l0,0l3.2-0.7l1.6-0.3h1.9l3.6,1.5l1.5,0.9l1.2,0.5l0.7,1.5l0.4-0.1l2.1-2.2l2.7-2.2l3.5-0.6l4-1.3
			l0.4,0.5l-0.9-0.1l0.2,0.3l2.4,3.1l1.5,3v0.7l-1.6,4.5l-1.1,2.8l0.4,1.6l-0.1,0.4l-0.2,0.5l0.2,0.4h0.5l7-2.9l9.2-3.2l2.1-0.6
			l0.3,0.2l0.1,1l0.1,8.4l-0.1,5.4v0.9l-0.1,1.1v0.2l0.6,4.1l1.6,1.3l2.3,0.3l4.6-1.1l0,0l0,0l0.2,0.1l0,0l5.3-1.6l6.5-1.6h0.5
			l0.4,0.4l1.3,5.2l0.6,2.6l-0.1,0.7l-0.2,1.4l-0.3,3.3l0.1,1.1l0.4,0.3l3.7,0.5l1.5-0.2l1.5-0.2l0.8-0.1l1-0.1l0.7,0.2l0.4,0.8
			l0.9,3.3l0.1,2.1l-0.2,2l-0.1,0.9l-0.2,1.3l-0.2,1.5l0.1,0.3l0.1,0.8l1.1,3.4l17.2,28.8l0.7,2.1l1.2,4.5l0.4,2.7l0.4,0.8l0.4,0.7
			l-0.1,2.6l0.3,2.1l1.1,6.4l0.7,2.4l0.6,3.9l-0.5,0.5l-2.7,2.7l-1.6,4.5l-0.3,1.9l0.2,0.2l3,0.1l0,0l0.6,0.3l-0.4,2.5l0.2,1.1
			l1.1,5.7l1.7,4.6l-1.5,1.6l-1.4,1.2l1.7,4.1l0,0l0.7,1.5l0.9,2.3l0.4,0.5l4.3-0.2l0,0l0.8,0.2l0.6,0.7l1.1,7.4l2.7,7.5l-1,1.6
			l-2.4,1.5L535,403l-1.7,1l-1.3,0.6l-2.9,1.4l-0.2,0.5l-1.2,0.9l-1.4,0.9l-4.7,2.8l-5.3,3l-0.5,0.3l0,0l-1,0.7l-1.8,0.7l-1,0.6
			l0.2,0.5l-0.1-0.2l-0.1,0.2l0.1,0.3l0,0l0,0l0,0l0,0l0,0v0.1l0,0l0,0l0,0l0,0l0,0l0,0l0.2,0.2l0,0l0,0l0,0l0,0l0,0h0.2l-0.1,0.1
			l0,0l0,0l0,0l0,0l-0.2-0.2l0,0l0.2,0.2l-0.6,0.2l-4.7,2.5l-1.3,1.3l-1.1,0.9l-0.3,0.3l-0.5,0.6l-0.1,0.6l-0.6,0.1l-0.2-0.2
			l0.1,0.2l0,0l0,0l-0.1,0.2l0,0l0,0l0.1,0.1l0,0l-0.3,0.2l-0.4,0.6l-1.5,1.7v0.8l0,0v0.3l0,0l-0.3-0.2l0,0v-0.1l0.1,0.1l0,0h0.1
			l0,0l0,0l0.1-0.1l-0.1,0.1h-0.1v0.1l0.1-0.1l-0.3,0.1v0.1h0.3l0.2,0.1l0,0l-0.3-0.1h0.2l0,0l-0.1-0.3l-0.3-0.1h0.2l0,0l0,0
			l0.2,0.2l-0.1-0.1l0,0l0,0v-0.1l0,0v0.3l-0.1,0.1l0.1-0.3l-0.2-0.1l0.4,0.1l0.2,0.1l0.2,0.1l0,0h-0.3l0,0l0,0l-0.5-0.2l-0.1-0.1
			l0.3,0.1l-0.3-0.1l0.2,0.1l0.2,0.1l0,0l0,0l0,0l-0.4,0.2h0.2l0,0v-0.1l0,0l0,0l0,0l0,0l-0.2,0.2l-1.1,1.6l-0.2,0.5l-0.2,0.4
			l-0.5,0.9l0,0l-0.4,0.8L497,435l-0.2,0.9v0.1l-0.2,0.1l-0.2,0.8v0.3l-0.2-0.2l0.2,0.1l-0.5,10l0.5,1.4l0.3,1.2l0.8,3.8l0.6,2
			l0.1,0.5v-0.2l0.2,0.5l0.6,4.4l0.3,0.4v0.1l0.2,0.6l1.7-1.1l-0.4-0.9l-0.1-0.1l0.1-0.8l-0.5-1.6l-0.2-0.9l-0.2-1.5l-0.5-0.5
			l0.4-1.6v-0.4v-0.3v-0.4l0,0l0,0l0,0l-0.4-1.1l-0.1-0.8l-0.3-0.1l-0.3-1l0.5-0.9l-0.1-0.3l0.2-0.1v-0.6l0.1-1l0.3-3.1l0.6-0.4l0,0
			v-0.7l0.6-1.8l0.5-1.5l0.7-1.8l0.4-0.7l-0.2-0.7l0.7-1.9l0.2-0.3l0,0l0,0l1.5-2.1l1.1-1.3l1.8-2.2l2.5-3.4l0.1-0.4l1-1.5l-0.2-0.1
			l1-1.1l3.8-2.1l1.7-1.8l0.9-0.5l4-2.4l3.5-1.1l1.8-0.4l1.7-0.8l0.3-0.6l1.9-1l2-0.9l1.1-0.9h0.1l0,0l0.8,0.1l2.7-0.9l2.3-1
			l0.5-0.5l-0.1-0.2l1,0.1l0.5-0.1v-0.3l-1-2.3l-0.7-2l-1.6-3.4l-3.3-10.4l0.3-0.6l0.2-4.4l3.7-5.1l2-3l-0.2-0.7l-3.7-2.6l-2.4-0.6
			l-7.2,1.8l-0.7-1.5l-1.4-6.7v-0.8l0.1-2.2l1.9-7.5l-1.6-7.8l-0.4-3.2l-0.7-3.2l-0.2-0.6l-0.7-5l-1.1-5.9l0.1-0.1l-1.5-5.3
			l-18.4-33l0.8-5.1l0.4-5l-0.7-0.9l-0.8,0.1l-0.2,0.6l0.1,4.4l-0.6,0.2l-0.6-0.2l-0.3-0.5l-0.2-0.6l-1.5-5.9l0.1-0.4l0.3-0.2
			l1.5-0.8l0.1-1l0.1-2.4l0.1-2.2l-2.8-6.9l-1.6-7.3l0.6-0.7l1.2-0.3l0.7,0.3l0.6,0.7l-0.4,0.8l-3.6,1.6l-3.7,0.8l-5.3,1.5l-9.3,2.5
			l-1.1,0.3l-4,1l-3.1-1.2l-0.4-1l0.4-8.4l0.2-10.6l0.1-2.1l0.1-1.2l0.4-0.1h2l0.8,0.2l-0.3,6.3v1.2l-0.3,4.8l-2.1,2.1l-9.3,0.7
			l-1.2-0.2l-0.4-0.7l-2.7-6.9l-3.2-6l-0.3-0.9l0.2-0.4l1.7-2.1l-0.7-1.5l-1.6-2.8l-1-2.1l-0.8-1.5l-1.7-3.3l-1.6-2.7h-0.6l-2.5,2.4
			l-5.9,7.2l0.7,1.2l0.2,0.8l-2.7,0.9l-0.7,0.2l-1.2,0.2h-0.7l-2.5-1.2l-1.5-0.7l-2.9-0.5l-8.1,1.7l-4.5-0.6l-3.3-1.3l-2.1-2.8
			l-1.1-1.3l-1-1l0.4-2.4l-0.5-3l-0.1-0.1l-0.4-0.6l-2.9-3.1l-1.5-2l-1.3-4.7l-0.6-0.4l-5.2-4.4l-1.1-0.6l-0.2,0.2l0.3,0.3l6.3,4.9
			l0.6,0.8l-0.2,0.4l-1.2,1.4l-1.5,5.7l-3.5,3.7l-4.6,5.4l-0.9,0.2l-2-0.2l-2.8-0.3l-3.8-5.9l-1.4,0.7l-4.7,1.7l-3.3,1l0.2,4.2v1.8
			l-0.5,0.1h-7.8l-1.5-0.2v-0.3l-0.2-6.7l0.1-4.4l0.4-1.7l1.6-2.6l-0.2-1l-5.1-2.8l-0.1-0.3l-3.3-0.7l-1.6,1l-1.8,1.3l-1.5,0.4
			l-2.9-1.3l0,0l0,0l0,0l0,0l0,0l0,0l-0.1,0.1l-0.2-0.1l0,0l0,0l0,0l0,0l0,0l-0.5,0.5l-0.4,1.2l0.3,0.2l1.4,0.7l0,0l0,0l0,0l0.9,0.1
			l2.2-1.2l0,0l0.3-0.1l4.8-2.5l4.9,2.4l1,0.9l-0.2,4.9l-0.3,0.6l0.5,6.7l-0.3,0.2h-4l-0.1,0.4l0.3,4.4l0.2,0.1l6.9-0.1l9.1-0.1h2
			l8.9-0.1l3.9-0.8l0.4-0.1l1-0.5l3.6-5.4l4.7-4.3l0.7,0.2l0.7,0.6l0,0l0.5,0.5l-0.1,0.6l-1.3,6.4l0.5,0.2l2.1-0.6l1.8-0.5l5.5,1.4
			l1.2,0.4l2.9,2.7l7.7,1.3l7.2-1.6l3,0.7l4.1,2.1l0,0l0.7,0.2l0.9,1.7l0.4-0.2l0.5-0.7l3.6-3.4l3.9-0.7l3.1-1l1.4-0.5l0.3,0.5
			l1.4,2.9l1.9,4.4l-3.4,4.1l-0.5,2.2l0.2,2.9l0.5,0.1l0.3-0.3l0.5-0.5l6-2l3-1l4.7-1.7l3.8-1.1l0.2,0.4l0.2,6.4l-0.1,5.3l-0.1,3.8
			l0.4,5.4l1.4,1.2l2.4,0.4l4.6-1l0.7-0.2l7.3-1.9l4.9-1l0.2,0.5l0.7,3.3l0.9,6.2l-0.4,3.5l-0.1,0.4l0.1,0.1l0.1,0.4l0.3,0.3
			l3.6,0.5l3.1-0.5h0.2h2.4l0.4,0.5l1,6.1l0,0l-0.3,2l-0.2,5.7l18.7,32.4l2.5,10.6l0.2,1.4l0,0l0.6,4.1l1.6,8l0.5,2.4l-0.7,0.6
			l-2.9,3.3l-1.4,4.7v0.7v0.7l3.3,0.2v0.5l-0.1,2.8l0.2,2.4l2.3,7.1l0.6,1.1l-1.8,1.4l-1.1,0.7v0.5l1.4,3.4l1.1,3.1l0.6,1.9h0.7
			l3.9-0.7l0.1,0.3l0.9,0.5l0.4,0.5l1.5,8.1l2.3,6.7l-0.8,1.6l-3.1,1.4l-3.2,2l-3.8,2.7l-2.4,1.7l-6.8,4.2l-0.1,0.4l-0.9,0.5
			l-1.9-0.1l-1,1.8l-0.2,0.3h-0.1h0.1l-0.8-0.3h-0.7l-0.1,0.3l0.1,0.6l-0.6,0.1l-1,0.6l-3,1.8l0,0l-0.2,0.2l-1.2,0.9l-0.7,0.6h-0.4
			l0.1,0.2l-0.2,0.2l-0.9,1h-0.1l-0.3,0.1l-0.4,0.9l-0.5,0.2l-0.2,0.4l-0.3,0.1l-0.6,0.6l0,0l-0.4,0.5h-0.1l0,0l0,0l-0.1,0.4v0.1
			l-0.1,0.1l-0.2,0.2l-0.4,0.5l-0.6,0.6l-0.3,0.3l0,0l0,0l0.2,0.1l-0.4,0.4l-0.1,0.3l0,0v0.2l-0.5,0.7l-0.2,0.2v0.2l-0.2,0.1
			l-0.2,0.6l0.3,0.1l-0.1,0.1l-0.8,1.4h-0.6l-0.2-0.1l0.1,0.1l-0.6,1.9l0.1,0.3l0.2,0.2l-0.8,1.6l-2,5.3l1.7,5.5l0.2,0.4l-0.3,0.3
			l-0.1,0.2l0.2-0.1l0.1,0.1l0.1,0.3l0.2,0.6l0,0l0.4,0.5l0.2,0.5l0.7,3.3l0.2,0.8l0,0v1l0.7,3.4h0.2l-0.3,0.3l0.2,0.3l0.5,2.1
			l-0.2,0.2l0.6,0.7l1-0.2l0.9-1.2l-0.7-1.4l-0.3-2.2l0,0l0,0l-0.4-1.4v-0.3l0,0h-0.3v-0.3l-0.2-0.3l0,0l0,0l0,0l0,0l0,0l0,0l0,0
			l0,0h0.2l0,0v-0.3v-0.6v-0.2V453h-0.1l0.1-0.1l0.5-0.4l-0.3-0.1l-0.3-0.7v-0.6h0.1l0,0l-0.3-0.4l0,0l-0.1-0.4v-0.4l-0.1-0.2
			l-0.2-0.1l0.1-0.3l-0.1-0.3l0.1,0.1V449h-0.1h0.1l0.1-0.2l0.6-0.1l-0.8,0.4l0,0l0.3-0.1l-0.2-0.1L499,449l0.3-0.1l0,0l-0.1-0.2
			l0.5-0.3l0,0l0,0V448h0.3l0.2-0.6v-0.1l0.3-0.1l0.1-0.3l-0.3-0.7l-0.6-0.2l0.3-0.4l0.2-0.3l0,0l-0.1-0.2V445l0,0l0,0l-0.1-0.1
			l0.2,0.2l0,0l-0.1-0.4l0,0v-0.3l0.1-0.1v-0.2v-0.4h-0.1l0.5-0.5l-0.1-0.4l0.4-0.1l0.2-0.2l-0.2-0.3l0.1,0.1l0,0l-0.3-0.2l0.2-0.1
			v0.1V442l0.2-0.2l-0.1-0.2l0,0h-0.2l0.1-0.1l0.2,0.2l0.4-0.2l0,0l0.2-0.1v0.1l-0.2-0.1l-0.1-0.6l0,0l0.1-0.4v-0.3l-0.3-0.1
			l0.4-0.1l0.2-0.2l-0.2-0.5l-0.5-0.3l0,0h0.3l0.3-0.3l0.2-0.1l0.2-0.2l0,0h-0.3l0.3-0.1v-0.3v-0.2l0.2-0.3v-0.3l0.2,0.1l0.1-0.6
			l0.4-0.7l0.1-1.1l0.2,0.1l0.4-0.8l0.6-1.9l0.5-0.7l1.2-1.8l0.1-0.3l1.4-2l0.6-0.6l0.8-1.7l0,0l0.8-0.6l0.4-0.9v-0.3l0.7-0.5l3-2.4
			l0.1-0.1l-0.1-0.3l3.1-2.6l0.2-0.2l1.7-0.9l0.3,0.2l0.8-0.1l5.4-3.4l2.1-0.2l3.2-1.5l1.3-0.9l3.2-1.1l5.3-2.2l2.7-1.2l-0.2-0.5
			h-0.6l-0.1-0.1l0,0l-1.3-3.1l-2.2-5.9l-2.2-9.4h-0.2v-0.4l0.5-4.5l3.3-4.4l2.5-3.5l-0.2-0.7l-3.5-2.5l-2.3-0.6l-6.2,1.9l-1.1-0.1
			l-0.4-0.5l-1.5-5.6l-0.4-3.9l0.1-1.8l0.3-1.7l0.3-1.3l0.3-1l0.5-1.5l0.6-1.5l0.1-0.8l-0.1-1.3l-0.5-1.3l-0.1-0.7l-0.5-1.9l-0.5-2
			l-0.1-1.6l-0.7-1.8l-0.7-4.7l-1-5.7l-1.4-8l-18.7-33.2l0.9-8.9l0.1-2.8l-0.6-0.6l-1.5-0.3l-0.5,0.2l-0.2,0.6l0.3,4.2l-0.5,0.4
			l-0.5-0.2l-0.8-1.2l-1.2-3.7l-0.3-2.6l0.3-0.2l1.4-0.6l0.2-0.9l0.4-4.4l-1-2l-2.5-7.3l-1-5.4l0.6-0.7l1-0.3l0.8,0.3l0.5,0.8
			l-0.1,0.6l-0.5,0.5l-2.7,1l0,0l-5.2,1.4l-10.5,3l-3.5,0.7l-4.5,1.3l-3.2-1.2l-0.4-1.3l0.5-4.5l0.1-5.4l0.1-8.7l0.1-1.7l0.1-1.8
			l0.2-0.1h2.4l0,0l0.5,0.3l-0.2,7l-0.4,5.5l-2,1.8l-10.2,0.7l-0.7-0.6l-2.6-6.6l-2.7-5.2l-1-2.1l0.2-0.2l1.9-2.7l-2.9-5.3l-2.9-5.8
			l-1.8-2.9h-0.6l-0.4,0.5l-5.7,6.5l-2.1,2.7l0.2,0.6l0.7,1.4l-0.2,0.3l-3.1,0.8l-1.2,0.2l-1.6-0.3l-6.4-2l-4.2,0.8l-6,0.7l-2.9-0.6
			l-3.2-1.4l-1.6-2.6l-2.1-2.5l-0.2-5.7l-4.9-6.2l-1.3-4.2l-0.2-0.2l-1.2-1l-2-1.5l-3.2-2.5v0.6l4.8,3.9l1.3,1.1l0.6,0.7l-0.1,0.4
			l-2.6,7.1l-0.7,1.4l-5.7,5.8l-1.8,1.8h-2.5l-3.1-0.1l-3.7-5.8l-0.3-0.1l-5.8,2.3l-3.6,1l-0.1,0.4l0.2,4l-0.5,1.8h-5.8h-3.2
			l-0.7-0.1l0.1-6.2v-5.6l0.4-1.4l1.3-3.8l-1.1-0.2l-3.3-1.9l-3-1.1l-1.2-0.1l-2.6,1.8l-1.5,0.7l-1.8-0.4l-0.9-0.4l0,0l-0.5-0.3l0,0
			l0.1,0.1l-0.3-0.4h-0.1h-0.3l0,0l-0.5,0.2l-0.5,1.3l0.3,0.3l2.3,0.8l6.4-3.9l0.8,0.1l4.1,1.8l1.9,1.4l-0.2,2.5l-0.1,2.6l-0.4,0.6
			l0.5,6.9l-0.4,0.1l-3.8-0.2l-0.1,0.4l0.6,4.5l8.4-0.1l7.1-0.1l4.7,0.1l10.9-1.1l0.6-0.2l0.5-0.3l4.2-6.1l4-3.6h0.8l1.3,1l-0.1,0.8
			l-1.4,6.7l0.5,0.2l3.9-1.1l4.4,1l2.4,0.8l4.5,3.2l8.5,0.2l4-0.9l2.6,0.2l6.1,2.8l0.6,1.4l0.4-0.1l5.3-4.4l7.7-1.7l0.4,0.9l0.2,0.5
			l0.3,0.4l2.5,5.3l-4,4.7l-0.4,2.4l0.2,2.2v0.5h0.6l6.6-2.8l6.5-2.3l5.3-1.7l0.3,0.4l0.1,9.3l-0.2,8.1l0.7,4.4l1.7,1h2.6l7-2.1
			l8.7-2l1-0.1l0.2,0.5l2,7.8l-0.2,1.1l-0.4,4.8l0.1,0.6l0.4,0.3l5.3,0.1l1.5-0.1h2.3l0.4,0.6l1.1,5.8l-0.7,6.7l3.6,7.9l15.1,25.4
			l3,12.2l2.2,11.7l0.5,3l-4.8,7.7l-0.6,2.2h0.4l3.8,0.3l-0.1,0.5v3.2l1.4,7l1.1,2.4l0.2,0.5l-0.3,0.4l-3.1,2.6l1.6,3.9l0.4,0.4
			l1.4,3.6l0.5,0.3l5.7,0.8l0.3,1.3l2.5,9.9l1.3,4l-0.9,1.4l-1.8,0.7l-2.4,1.3l-4.5,2.9l-4.9,3l-0.1,0.4l-4.9,2.7l-6.6,4.2l-5.9,3.7
			l-5.3,5.3l-0.2,0.3l-2.3,4.1l-1.4,2.4v0.1l-1.1,1.9l0.4,0.3l0.1,0.2l-1,12.9v1.1l0.6,2.8l1.7,8.6l0.6,1.4h0.4l1.7-0.6l0.2-0.9
			l-0.2-1.2l0.1-0.4l-0.5-1.8l0.1-0.3l-1.7-6.9v-0.7l0.3-4.2l1.9-7l2.1-5.1l4.6-6.2l3.2-4.6l-0.2-0.1l0,0l4.2-3.2l3-2.1l6.9-3.6
			l3.4-0.8l2.3-1.2l1-0.3l4.3-2l2.3-0.7l0.6-0.1v-0.3l1.5-0.7l2-0.7l0.1-0.4l-3.4-7.9l-3.2-8.5l-0.1-2.3v-0.6l0.4-4.4l2.5-3.3
			l1.9-2.7l1.1-2l-0.4-1l-5.1-2.8l-3.5,0.8l-4.3,1.2l-0.8-0.8l-1.6-6.8l-0.1-4.1l1.7-10.6l-2.7-11l-0.9-7.4l-0.8-4.3l0.2-0.2v-0.3
			l-3.1-7.3l-16.7-31.5l0.4-3l0.7-5.7l-0.6-0.9l-0.8-0.1l-0.4,0.7l0.2,4.5l-0.8,0.1l-0.7-0.5l-1.1-3.4l-0.5-3.7l0.2-0.2l1.4-0.7
			l0.2-1l0.3-4.1l0.1-0.2l-2.3-5.5l-2.3-8.6l0.4-0.7l1.1-0.6l0.9,0.1l0.8,0.7v1l-1,0.5l-10.3,3l-10.6,2.7l-1.4,0.5l-3.9,1.1
			l-3.6-1.5l-0.2-0.8l1.3-10.6l0.2-11.2l0.1-1.1h0.5l2.6,0.3l-0.3,8.2l-0.4,4.4l-2.3,1.9l-9.3,0.6l-0.8-0.3l-0.5-0.7l-2.9-7.1
			l-2.6-5.2l-0.7-1.5l1.8-2.9L453,230l-0.4-0.5l-2-4l-0.3-0.3l-1.3-2.4l-0.5-0.2l-0.6,0.3l-2.7,2.7l-5.3,6.5l0.2,0.4l1,1.5l-0.3,0.2
			l-0.6,0.4l-0.8,0.2l-3.3,0.6l-3.4-1.4l-3.7-1.1l-4.2,0.7l-6.1,0.9l-2.4-0.6l-4.2-1.9l-2.1-2.8l-1.2-1.5l-0.5-6.2l-3.5-3.7l-1-1.8
			l-1.2-4.7l-1.1-0.8l-5.4-4.3l-0.3,0.1l0.1,0.5l5.8,4.7l1.3,1.1l-0.2,0.3l-1.2,1.1l-2.9,7.9l-6.1,6.8l-1.2,0.6l-4.9-0.2l-0.3-0.3
			l-3.7-5.8l-0.4,0.1l-7.4,2.8l-1.9,0.7l0.3,4.8l-0.3,1.1h-7.7l-2.1-0.1l0.2-5v-6.2l0.4-1.9l1.8-3.4l-0.2-0.3l-5.4-2.6l0,0l-3.3-1
			l-1.4,0.5l-1.9,1.6l-1.5,0.5l-3.4-1.3h-0.2l-0.5,0.4l-0.4,1.1l0.3,0.3l2.3,1l2.9-1.8l-0.6-7.8l-1.2-1.4l-3-1.8l-6.5-3.7l-0.1-0.3
			l0.6-0.8l3.4-5l3.6-1.8l0.3-0.3l0.2-1.2l-2.3-4.7l-2.8-4.3l-5.8-4l0,0l-1.4-0.6l-8.9-5.1l-7.1-6.5l-10.5-4.4l-8.7-1.7l-4.1-2.5
			l-5-7.1l-6.6-4.9l0.1-1l0.8-0.8l0,0l0,0l0,0l0.7-0.2l0,0l0.3,0.1l0,0h-0.2l0,0l0,0l1.1-0.4l0.2-0.3l-0.1-0.4l-0.3-0.2h-1.1
			l-0.1,0.3l0.6,0.4l0,0h0.3l0.3-0.5l0,0l0,0"/>
	</g>
	<g id="XMLID_633_" transform="matrix(0.999873,0,0,0.999873,0,0)">
	</g>
	<g id="XMLID_632_" transform="matrix(11.8095,0,0,11.8095,0,0)">
	</g>
	<g id="XMLID_631_" transform="matrix(11.8095,0,0,11.8095,0,0)">
	</g>
	<g id="XMLID_630_" transform="matrix(11.8095,0,0,11.8095,0,0)">
	</g>
	<g id="XMLID_629_" transform="matrix(1,0,0,1,0,0)">
	</g>
	<g id="XMLID_628_" transform="matrix(11.8095,0,0,11.8095,0,0)">
	</g>
	<g id="XMLID_627_" transform="matrix(11.8095,0,0,11.8095,0,0)">
	</g>
	<g id="XMLID_626_" transform="matrix(1,0,0,1,0,0)">
	</g>
</g>
</svg>
