<?xml version="1.0" encoding="utf-8"?>
<!-- Generator: Adobe Illustrator 19.0.0, SVG Export Plug-In . SVG Version: 6.00 Build 0)  -->
<svg version="1.1" id="Layer_1" xmlns="http://www.w3.org/2000/svg" xmlns:xlink="http://www.w3.org/1999/xlink" x="0px" y="0px"
	 viewBox="0 0 795 595" style="enable-background:new 0 0 795 595;" xml:space="preserve">
<style type="text/css">
	.st0{fill:none;stroke:#000000;stroke-width:0.1417;stroke-linecap:square;stroke-linejoin:bevel;}
</style>
<g id="Map_1:_line_x5F_B27129_x5F__x5F_905_x5F__x5F_21marzo2023" label="Map 1: line_B27129__905__21marzo2023" groupmode="layer">
	<g id="XMLID_560_" transform="matrix(1,0,0,1,0,0)">
	</g>
	<g id="XMLID_559_" transform="matrix(1,0,0,1,0,0)">
	</g>
	<g id="XMLID_558_" transform="matrix(11.8095,0,0,11.8095,0,0)">
	</g>
	<g id="XMLID_557_" transform="matrix(11.8095,0,0,11.8095,0,0)">
	</g>
	<g id="XMLID_552_" transform="matrix(0.999873,0,0,0.999873,0,0)">
	</g>
	<g id="XMLID_550_" transform="matrix(0.999873,0,0,0.999873,0,0)">
		<path id="XMLID_551_" vector-effect="none" class="st0" d="M378.8,246v-0.3h-0.1l0,0l0,0l0,0l0,0l0,0l0,0l0,0l0,0l0,0l0,0l0,0l0,0
			l0,0l0,0l-0.4,0.7l0.1,0.1h0.1l0,0l0,0l0,0l0,0l0,0l0,0l0,0l0,0l0,0l1.1,0.1l0.1-4.6l0.1-1.3l-2.2-0.4l-5-0.3l-2,3l-4.3,2.2
			l-5.4,2.8l-6.6,2.7l-7.8-0.4l-8.2-0.5l-6.5,1l-0.7-4.4l2.5,3.3l0.2,5.8l-5.6-0.9l-6.4,6.6l-0.6,6.3l-0.6,6.2l-6.3,3.2l-2.6-3.1
			l-1-4.3l-0.6-2.3l-1.1-1.8l-0.7-2.1l-1.2-1.7l-1.4,0.3h-0.2l0,0l0,0l0,0l0,0l0.6,2.1l2.3,4l1.6,5.2l2.5,3.8l0.7,4.9l1.3-5.1
			l6.2-3.2l7.2-3.6l4.4,0.2l3.4,0.1l3.9-0.9l3.9-2.3l6.2-1.7l1.3-0.4l2.8,2.7l0.2,1l2.4,1.4l3-1.2l3.5-1.5l2.1-0.9l3.5-1.4l3.5-1.5
			l2-0.9h3.4l4.1-1.5l4.3-3.1l0,0l0.7,0.1l3.2,6.5l-0.5,6.9l2.8,0.7l2.1,5.5l3.5,5.4l0.6,2.1l0.1,0.8l2-0.2l2-1.6l3.9-2.8l1.3-2.8
			l-0.3-5l-2.3-4l-1.1-0.6l3.4-2.2l1.8-1.2l2.6-1.4l4.3,1.5l4.9,1.5l3.2,1l4.2,2.6l3.5,3.1l-1.1,2.5l-2.1,3l1.4,1.1l1.3,2.8
			l-2.5,3.1l-2.6,2.7l-4.8,4.6l-6,4.9l-0.4,1.4l3.3-1.1l2.1,0.7l3.7,5.8l1.1,1.8l4.6,2.2l2.3,0.9l6.3,2.5l6.1,3l3.6,0.1l1.9,2.3
			l0.8,4l2.5,4.2l2.4,3.7l2.9,4.6l2.3,3.7l3.9,6.5l2.5,3.7l2.2,2.4l2.9,4.6l0.2,0.4l3.1,5.7l3.2,7l0.6,3.9l-1.6,3.5l-2,3.3l1.2,3.8
			l1.1,5.8l1.1,4l-1-4.6l-1.4-6.2v-0.1l12.8-1.8l-0.1,0.3v0.1h-0.1h-0.1l0,0l0,0h0.1l0,0l0,0v-0.1l0,0l0,0l-0.7,0.6l-3.7,1l-5.9,1.4
			l-2.2-0.8l-0.9-3.7l0,0v0.1l3.6-1.6l0.8-0.1l1.8-1l-0.6-5.7l-1.3-3.6l0.7-3.6l2.8-4.9l1-2.9v-0.2l0.2-1.4l0.1-0.9l0.4-1.6
			l-0.1-3.7l-2-1.9l-3.9-2.8l-2.3-3.2l-2.9-4.4l-1.5-1.5l-4-4.3l-1.1-2.5l-2-1.1l-0.8-2.6l-0.6-3.2l-2.4-1.9l-1.7-2.8l-2.3-3.4
			l-1.9-2.9l-3.9,3.4l-3.8,2.4l-1.1-0.4l-2-2.9l-1.9-1.5l-5.6-4.2l-3.3-2.3l-1.8-1.1l-2.1-1.3l-2.4-1.7l-0.8-0.5l3-5.1l4.2-6.3
			l1.3-4.9l-1.3-0.5l-1.2-1l0,0l-3-2.3v0.1l0.1-0.2l-3.6-3l0.9-3.8l-1.2-2.3l-3.7-1.9l-2.9-0.9l-5.5-1.7l-2.1-0.7l-1.6-0.5l-1.8,1
			l-3.4,2.2l-2.7,2.9l-0.1,4.3l-1.8,5.7v1.9l0.6,1.2l-3.3,0.3l-0.5-0.3l-3.4-3.1l-1.3-3.5l-2.1-6.9l-1-3.3l-0.8-2.6l-0.1-0.2
			l-1.9-3.6l-3.1-1.8l-3.5,2.6l-2.3,1.7l-2.3-0.8l-3.4-1.6l-2.8,1.2l-4.5,2l-3.7,1.5l-2.2,0.9l-4,1.8l-1.9,0.5l-1.1-2.8l-1.9-0.8
			l-3.8,1.6l-3.3,0.5l-1.2,0.3l-4.8,2.7l-2.3,0.3h-0.2l-2.1-0.2l-3.9-0.4l-4.8,0.6l-1.6,0.4v0.1l-2.3,2.4l-3.1,2.4l-1.8,0.7l-2,0.6
			l-1.4-1.4l-1-3.9l-1.1-4.3L308,264l-0.7-2.5l-1.7,0.1l0,0l0,0l0,0l0,0l0,0v-0.1l0,0l0,0l0,0l-0.2,0.1l0,0l0,0l0,0l0,0l0,0l0,0l0,0
			l-0.5,0.2l0,0l0,0l0,0l0,0l0,0l1.4,3.4l1.3,2.3l1.7,4.9l1.9,4.3l1.1,1v3.8l0.5-1.5l1.6-3.3l1.5-0.4l0.4-0.1l4.4-3.3l2.8-2.1
			l2.4-0.5l3.8-0.2l2.4,0.5l0.5,0.1l1.7,0.1l4.4-0.9l1-0.8l1.5-1.1l1-0.5l0.7-0.2l0.3-0.1l6.3-1.7l0.6-0.1l2.8,2.2l0.3,0.6l0.7,1.8
			l0.3,0.7l3.1-1.1l1.7-0.6l3.6-1.6l2.7-1.1l1.6-0.7l3.8-1.6l1.8-0.8l3.4-0.9l2.8,0.5l2.8-1.9l3-2.3l3.1,2.3l1.5,4.3l-0.2,1.2
			l0.8,5.2l3.4,5.1l1,3l2.3,3l1.3,2.2l-0.1,0.8l1.8,0.3l3.3-3l3.8-3.2l0.5-2.9l-0.4-3.1l-1.2-0.3l-1.8-2.2l1.7-3.5l2.2-1.4l2.4-1.5
			l4.1,0.4l3.4,1.1l4.3,1.4l0,0l1.9,0.6l2.9,1.4l3.2,2.8l1.3,1.2l-0.9,3l-1.9,1.6l2.6,3.7l0.7,0.5l-0.8,1.2l-0.8,0.8l-3,3.4
			l-2.3,2.5l-1.6,1.4l-0.2,0.2l-3.8,3.1l-3,2.5l0.2,0.7l2.3,0.5l1.6,0.4l2.4,2.6l1.9,3.4l2.1,2.2l0.7,0.3l2,0.8l0,0l5.2,2l7.7,3.8
			l4,0.6l2.7,0.7l1.2,3.2l0.2,1.5l0.2,0.3l0.7,1.3l0.5,0.7l0.2,0.4l1.4,2.5l0.4,0.7l1.3,2.1l0.7,1.1l0.6,0.9l0.7,1.1l1.3,2l1.1,1.7
			l1.1,1.8l1.2,2.1l0.7,0.9l0.4,0.7l0.3,0.6l0.5,0.6l0.4,0.7l0.6,0.9l0.5,0.9l0.9,1.3l1.9,2.6l1.1,0.9l0.1,0.2l0.8,1.2l1.2,2
			l0.6,0.9l1.2,1.7l0.3,0.3l1.2,1.8l1.7,4.1l2.7,5.7l1,1.6l0.7,2.6l-2.5,4.5l-1.8,3.2l1,4l1.3,5.4l1.1,4.1l-0.8-3.9l-0.9-4l-0.2-1.8
			l1.5-2.6l2.2-0.4l5.1-1.4l3.3,1.7v0.2l0,0l0,0l0,0l0,0l0,0l0,0l0,0l-2.4,1l-3.4,0.8l-4,1l-2.7-1.8l1.3-3.8l3.2-0.8l0.7-2.2v-3.9
			l-0.5-0.1l-1.1-0.2l0.1-3.2l0.8-3.6l-0.1-1l3.3-5.3l0.7-3.4l-0.1-4.7l0.2-0.9l-1.5-2.3l-3.4-2.5l-1.2-1l-3-4.5l-3.4-4.1l-3.1-3.1
			l-3.3-4.7l-1.7-4l-0.1-0.5l-1.5-2.3l-1.4-1.4l-3.7-5.5l-3.7-1.8l-4.8,4.7l-1-0.2l-0.6-0.1l-1.8-0.4l-1.8-3l-5.1-3.7l-2.6-2
			l-0.6-0.5l-3.6-2.3h0.2l-1.8-1l-2.4-1.6l0.1-2.8l2.3-3.2l2-2.9l3-4.5l1.1-1.5l-0.6-1.6l-2.7-1.6l-3.4-2.8l-0.7-0.6l-3.7-3.2
			l1.9-2.6l-1.2-2.6l-2.8-1.6l-3.4-1l-3.7-1.2l-5.4-1.7l-1.7,0.7l-3.3,2.1l-3.4,2.6l0.3,4.8l-2,5.8l-0.2,2.3l0.2,2.4l-1.8-0.3
			l-0.7-0.5l-1.9-1l-3.4-5.2l-2.3-7.8l-0.9-3.3l-1-3l-2.6-4.5l-0.7-1l0,0l-1.5,0.4l-2,1.4l-1.8,1.3l0,0l-3.4,1.9l-2.8-2.6l-4.1,0.5
			l-4.5,1.8l-3.9,1.7l-0.8,0.3l-3.4,1.5l-3.9,1.8l0,0l-1.1-2.7l-0.9-2.6l-5.4,3.2l-3.9,0.5l-0.4,0.3l-1.9,1.1l-2.6,1.3l-1.2,0.2
			l-1.8,0.4v0.1l-1.9-0.2l-4-0.4l-5.7,0.9l-4.9,4.8l-2.3,0.6l-0.4,0.2l-1.8,0.5l-2-1.9l-0.7-2.7l-0.6-2.7l-0.6-2.2l-1.1-1.9
			l-0.9-2.6l-0.4-1.6l-0.9,0.1l0,0l0,0v0.1l0,0l-0.8,0.2l0,0l0,0l0,0v0.1v0.1l0,0l0,0l0,0l0,0l0,0l0,0l0,0l0,0l0,0l0,0l0,0l-0.8,0.1
			l0,0l0,0l0,0l0,0l0,0l0,0l0,0l0,0l1.6,3.5l2.4,4.6l1.3,5.5l0.7,1l0.2,0.1l1.2,0.8v4.1l0.6-1.7l1.1-2.9l6.8-3.9l8.1-2.9h2.3
			l1.8,0.3l1.5,0.2l5.2-1.4l0.8-0.6l0.4-0.3l4.5-1.3l5-1.7l2.9,2.5l2.8,2.3l5.2-2.3l3.3-1.3l2.7-1.1l4-1.7l2.2-1l4.2,0.5l2.9-1.9
			l4.7-3.2l0,0l0,0l2.9,3.8l-0.1,7.3l1.9,2.5l1.4,0.6l1.7,4.6l3.5,6.1l1.7,3.3l1-0.2l2.7-2.2l4-2.6l1.1-4.6l-1.5-3l-2-2.4l0.5-2.6
			l2.3-1.4l3.4-2.2l4.4,0.2l4.6,1.5l3,0.9l4.4,1.7l1.8,1.6l2.7,2.4l1.3,1.3l-1.8,2.3l-1.8,1.3l1.5,2.9v3.7l-0.3,0.3l-0.7,0.8
			l-1.2,1.2l-1,1.1l-2.6,2.6l-1.1,1.2l-0.6,0.5l-1.3,1.2l-3.1,2.2l-3.1,3.3l0.6,0.3l2.6-1l2.3,1l3,4.3l1.1,2l3.5,2.6l2,0.9l5.8,2.1
			l7.2,4h3.6l1.9,0.6l1.4,2.2l0.8,3.8l1.7,2.8l3,4.8l2.7,4.2l2.2,3.8l2.4,3.6l3.9,6.6l0.6,0.8l0.7,0.4l2.3,2.9l1.6,2.6l2.1,2.8
			l2.1,5.3l2.7,4.9v0.1l0.8,1.2l0.7,2.7l-1.9,4.1l-0.8,1.4l-0.4,0.6l-1.1,1l1.3,6.5l1.9,7.4l-0.2-2.9l-1.3-5.9l0.2-3.1l4.9-1l6-1.5
			h0.1h0.3l0.6,2.2l0,0l0,0l0,0l0,0l0,0l-1.5,0.8l-3.7,0.9l-3.2,0.8l-3.5,0.8l-0.6-1.6l-0.8-3.6l4.2-1.2l0,0l1.4-0.4l0,0l0.5-4.9
			l-2.1-1.9l0.2-2.8l0.5-3.1l0.8-3.5l2.8-3.6l0.3-1.3l0.7-4.3l-1.1-5.1l-3-1.9l-1.8-1.5l-2.5-3.4l-3-4.2l-2.3-2.1l-2.3-2.3l-2.7-4.8
			l-1.9-3l-0.5-2.4l-0.4-1.3l-3.7-3.4l-1.7-2.6l-2.9-4.1l-4.7,4.7l-2.9,1.1l-1.1-0.1l-1.9-3.2l-6.1-4.6l-5.1-3.6l-1.1-0.7l-1.5-0.9
			l-2.7-2l-1.1-0.5l3.1-5.7l3.7-5.4l1.7-5.1l-1.7-0.9l-4.2-3.4l-4.3-4.4l2.4-3.1l-0.8-0.8l-1.8-1.6l-3.7-1.3l-2.9-0.9l-4.4-1.5
			l-2.8-0.8l-0.4-0.1l-2.4,0.8L406,268l-1.3,0.9l-1.3,2.3v4l-2,5.7l-0.1,0.3l1,2.1l-2.2,2.6l-1.4-1.5l-1.3-0.7l-3.7-5.6l-2.3-7.8
			l-1.5-5.6l-0.3-0.7l-2.2-3.8l-1.7-1.9l-3.4,2.5l-4.8,2.7l-2.8-2.1l-3.5,0.5l-4.6,2l-3.9,1.6l-0.6,0.2l0,0l-1.7,0.8l-4.2,1.8
			l-2.1,0.4l-1.9-4.9l-5.9,3.5l-3.9,0.6l-1.9,1l-3.7,1.7l-1.3,0.2h-0.6l-5.5-0.6l-1.9,0.3l-3.9,0.6l-3.9,3.7l-2,1.4l-3.8,1.2
			l-1.9-2.1l-1.2-5l-1.3-3.6l-1.5-3.9l-0.2-1.1l-1.7,0.3l0,0l0,0l0,0l0,0v0.1l0,0l0,0h-0.3l0,0l0,0l0,0h-0.1l0,0l0,0l0,0V262
			l-0.4,0.1l0,0l0.6,1.8l0.9,1.5l1.2,2l1.9,5.6l1.3,3.7l0.9,0.3l0.8,2l0.1,1.5l0.3,1.4l0.1-0.8v-0.7l1.7-3.5l5.9-3.2l0.2-0.3
			l3.4-2.7l5.2-0.3l3.5,0.4l0,0l0.7,0.1l4.5-0.6l0.8-0.2l0.6-0.2l1.7-1.3l0,0l1.8-0.8l2.5-0.3l5-1.7l0.4-0.1l2.7,3.1l1,2.1l4.4-1.3
			l2.2-0.8l5.8-2.4l2.7-1.2l3.6-1.5l3.9-0.4l2.7-0.5l2.1-1.4l4.8-1.8l2.6,6.2l-0.4,2.4l1.6,4.2l2.3,2.8l1.2,3.8l1.4,2.8l0.4,0.5
			l1.6,1.4l0.8,0.8l-0.1,1.2v0.1l1.9,0.9l3.3-3l3.9-3.7l-0.1-5.5l-2.6-0.4l-0.7-4.6l3.4-2l3-1.9l1.9-0.4l5.2,1.7l4.4,1.3l3,1
			l3.6,2.3l3.7,3.3v0.9l-3.5,3.4l2.9,3.4l0.1,0.1l0.6,0.5l0,0l-0.5,0.7l-1.3,1.4l-0.5,0.6l-0.9,1l-1.6,1.7l-2.5,2.6l-1.7,1.5
			l-4.3,3.4l-2.9,2.6l0.8,0.3l2.6,1.4l2,0.1l2.6,4.4l0.7,1.1l4.2,3.1l1.1,0.6l5.6,1.9l7.1,4l4.7,0.3l1.1,0.4l1.2,0.8l0.9,4.6l1.9,3
			l2.9,4.7l0.2,0.3l1.8,3.1l2.8,4.4l0.5,0.8l3.4,5.5l3,4.8l1.3,1.4l1.8,2.2l2.3,3.5l0.6,0.9l2.7,4.9l1.1,3l2.7,4.6l0,0l0.6,0.9
			l-0.5,3.3l-1,2.4l-0.6,0.6l-2,2.8l0.9,4l1.4,6l1.1,4.4l0,0l-0.7-3.5l-1-4.4l0.8-4.5l6-1.4l4.1-0.9l0.7,0.4l0.2,1.7h-0.3h0.1h0.2
			h0.1l0.1-0.1v0.4h-0.1H490l0,0h0.1l0,0l0,0l0,0l0,0l-0.6,0.4l-3.9,0.9l-4.7,1.1l-2.5,0.6l-1.3-5.5l4.1-1l1.1-0.3l0.6-1.2l-0.5-5.1
			l-1.5-0.6l0.5-3.3l0.9-5.3l3.7-7.7l0.5-2.3l-0.5-2.1l0.5-2.1l-1.9-1.1l-2.2-1.6l-1.5-1.3l-3-4.1l-0.8-1.2l-4.3-4.8l-1.4-1.4
			l-2.8-4.8l-2.1-1.8l-0.8-3.6l-0.8-2.2l-3.1-2.6l-4.3-6.7l-4.3,3l-3.9,2.2l0.1-0.1l-2.5-1.5l-4-4.1l-5.4-4l-1.5-1.1l-2.2-1.5
			l-3.2-3l-1.2-2.4l2.7-3.8l4.5-6.7l0.8-1.3l-0.8-2.3l-2.3-1.3l0,0l0,0l-0.7-0.7l-2.8-2.5l-2.6-2.2l-0.3-2.8l0.9-2.5l-2.9-2.2
			l-3.6-1l-2.2-0.8l-5.3-1.6l-3.7-0.7l-2.9,1.8l-2.5,1.7l-1.9,1.6l0.6,4.1l-2.1,5l-0.6,3.5l1,1.1l-1.4,2.3l-0.4-0.1l-1.8-1.8
			l-1.9-1.1l-3.8-7.5l-2.9-10.3l-3.6-6.3l0,0l-0.2-0.4l-2.8,1.3l-2.5,1.9l-2.4,1.8l-4-2.2l-3.4,0.5l-4.2,1.8l-4.3,1.8l-2.1,0.8
			l-2.9,1.3l-2.8,1.3l-0.2,0.1l-1.2-1.5l-1.8-3.2l-4.4,2.9l-3.7,0.4l-1,0.3l-4.1,2.5L336,271l-0.6,0.1l0,0l-1.3-0.1l-7.3-0.1
			l-3.3,0.7l-0.3,0.1l-1.3,0.9l-2.3,2.9l-3.1,1.4l-3.9,0.2l-1.4-6l-0.8-3.2l-1.1-1.8l-1-3.2l-2.1-0.5H306l0,0l0,0l0,0l0,0v-0.1l0,0
			l-0.4,0.1l0,0l0,0l0.9,2.7l2.4,4.4l1.5,5.3l2.2,3.1l0.4,3.4l0,0l0.4,1.3l0.1-0.3v-1.4l2.1-3.6l1.6-0.4l3-1.8l5.2-4l6.3-0.2
			l1.6,0.3h0.3l4.4-0.5l1.3-0.3l0,0l1-0.6l1.2-0.9l0.3-0.2l1.6-0.7l2.4-0.3l4.8-1.6l2.7,1.7l0.6,1.5l0.9,2l0.2,0.1l4.3-1.8h0.1
			l3.7-1.5l0,0l1.9-0.8l2.5-1.1l0.2-0.1l4.5-1.9l2.9-1.3l2.1,0.6l0.1,0.2l3.1-1.2l1-0.7l2.9-2l1.1-0.9l0,0l-0.1,0.1l2.4,2.8l1.6,3.8
			l-1,4.9l2.4,2l0.7,0.3l2.1,5.1l3.6,6.1l0.9,2l1.7,0.7h0.5l3.5-3.1l3.1-3.1l0.5-3.1l-0.7-5l-3.2-2.2l3.4-2.4l1.9-1.2l1.3-0.8
			l3.3-0.1l2.6,0.8l5.7,1.7l0.3,0.1l0,0l4,1.3l2.5,2.3l3.5,3.2l-1.9,2.8l-1.4,0.8l2.5,3.7l-0.9,2.8l-0.4,0.5l-1.4,1.5l-1.4,1.5
			l-2.3,2.4l-1.6,1.2l-5,4.3l-2.5,2.3l1.6-0.5l2,1.9l2.6,1.1l2.6,4.1l1.5,2.2l3.5,1.6h0.1l4.4,1.7l5,2.1l6.2,2.8l5.2,3.3l3.5,7.5
			l2.4,3.9l3.6,5.8l2.3,3.6l4.5,7.3l1.9,2.2l0.1,0.1l4,6.1l2.6,3.6l1.8,5.2l2.3,4.1l1,2.6l-0.3,1l-2.2,4.2l-0.5,0.9l-1.3,1.4
			l1.5,6.7l1.6,6.8l0.2-0.8l-1.5-5.4l-0.3-2.5l2.7-3l6-1.3l3.3,1.1v0.2l0,0l0,0v0.1l0,0v0.2v0.1l0.1,0.1h0.1l0,0v-0.1v0.1l-3.5,1.1
			l-3.5,0.7l-1.8,0.3l-3.1,0.8l0,0l-1.3-3.9l1.2-2l3-0.8l0.7-0.2l0.6-3.2l-1.7-3.3v-1.4l0.2-1.6l0.3-1.3l0.4-2l0.1-1.1l3.4-5.7
			l1-5.4l-0.2-2.9l-1.4-3l-1.5-0.9l-2.2-1.6l-1-0.8l-1.7-2.7l-0.8-1.3l-3.3-4.1l-2.3-2.2l-3.2-4.8l-2.4-2l-0.7-3.4l-0.4-1.2
			l-2.4-2.4l-2-3.1l-1-1.7l-3.8-3.9l-1.9,2l-2.8,3.1l-3,0.2l-0.5-0.1l-1.9-3.2l-3.1-2.4l-5.4-3.9l-1.4-1l0.1-0.1l-2.2-1.5l-0.7-0.1
			l-1.1-0.8l-2.9-1.8l-0.7-0.5l1-2l0,0l2.6-3.9l5-7.3l0.3-0.4l0.2-2.2l0,0h-0.2l-0.9-0.6l-0.1-0.1l0,0l0,0l-0.9-0.5l-0.8-0.6l0,0
			l-1.3-1.1l-1.4-1.2l-0.4-0.2l-0.7-0.6L430,279l-0.6-0.5l-2.8-3.4l1.5-3.4L424,269l-4.7-1.4l-4.9-1.5l-3.1-1l-2.2,1.2l-2.2,1.4
			l-2.2,1.4l-0.5,3.9l-2,4.2l-1,4.4l1.2,2.2l-1.6,2.7l-2.2-1.9l-1.2-0.7l-3.6-5.4l-1.5-4.7l-1.4-4.9l-1.1-3.8l-0.8-2l-2.7-4
			l-0.2-0.4l-2.9,1.7l-2.1,1.5L381,262l-3.4,2l-4.9-2.5l-4.1,1.8l-2.1,0.9l-5,2l-2.5,1.1l-4.1,1.9l-0.9,0.2l-1.5-5.2l-4.2,2.5
			l-3.5,1l-2.4,0.4l0,0l-1.7,1.1l-4.2,1.8l-4.7-0.1l-1.6-0.1h-2.1l-4.4,0.5l0,0l-1.2,0.6l-4.3,4.5l-0.9,0.3l-1.4,0.4l-1.4,0.5
			l-1.8-0.1l-1.1-3.3l-0.9-4.1l-1.2-3.2l-1.2-2.4l-0.7-2.7L306,262l0,0l0,0l-0.4,0.2l0.9,3.3l2.2,3.6l1.7,6.8l2.2,2.6l0.3,1.6
			l0.2,2.3v-1.5l-0.1-0.5v-0.1l0,0v0.1v0.1l0.5-3l1.1-0.3l2.3-0.7l2.7-1.4l1.1-1.4l5.8-3.1l4.8-0.1l1.1,0.1l1.1,0.2l5.2-0.6l1.8-1.1
			l1.1-0.8l1.8-0.8l0.4-0.1l5.8-1.5l2.1-0.5l2.1,3.7l0.4,0.8l0.7,1.2l3.9-1.6l4.5-1.9l2.4-1l1.8-0.8l4.3-1.8l1-0.5l3.8-0.9l2,0.8
			l2.5-1.8l3.9-2.7l0,0l1.8,0.5l2.6,5.6l-0.8,4l1.5,2.8l2,1l1.6,5.4l0.8,2l2.7,3.3l0.8,1l-0.1,1l3.4,0.4l1.4-2.4l3.8-2.4l1-3.1
			l-0.1-1.2l-0.1,0.1l-0.6-3.9l-2.3-2.7l-1.1-0.7l3.9-2.4l3.2-2.1l3.3,0.4l3.9,1.2l4.1,1.4l3.4,0.9l3.3,2.6l3.5,3.8l-3.4,3l1.5,3
			l1.8,1.6l0,0l-0.9,1l0,0l-0.7,0.7l-0.1,0.2l-1.7,2l-1.1,1.2l-1.2,1.2l-1,0.9l-1.4,1.3l-0.7,0.7l0,0l-2.7,2.4L416,298l-1.5,1.6
			l0.3,0.6l1.8-1.7l2.1,1.2l1.7-0.1l2.9,4.1l0.7,1.3l1,1.8l1.8,1.4l0,0l0.5,0.2l2.6,1l7.2,2.8l6.8,3.5l4.3,0.2l1.5,3.9l1.7,3.4
			l3.8,6.2l0.5,0.9l4.1,6.5l3.2,5.1l3.6,5.9l1.2,1.2l2.3,3.2l1.8,2.8l1.3,1.7l2.1,4.6l1.8,3.9l2.2,4.1l0.5,2.1l-1.5,3.3l-0.6,1.3
			l-1.4,2l0.1,3.5l1.8,7.4l0.4,1.8l0.1,0.5l0.2,0.7l0,0l-0.1-2l-1-3.8l-0.6-3.1l1-2.4l2.5-0.6l5.9-1.5l2.9,2.1l0.1,0.1l0,0l0.1,0.1
			l0,0v-0.1l0,0l0,0l0,0l-0.2,0.3l-3.8,1l-1.3,0.2l-2.9,0.7l-3.6,0.8l0,0l-0.4-0.3l-0.9-3.6l2.7-2.3l1.4-0.2h-0.1l0,0l1.2-0.3h0.1
			l0.1-2.6l-0.4-3.7l-1.2-2.1l0.1-1l0,0l0.4-2.5l0.2-1.1l0.1-0.5l0.4-2l3-4.1l0.2-1.2l0.3-2l0.2-0.8v-3v-0.9l0.5-2.1l-1.8-1.3V346
			l-1-0.7l-2.1-1.6l-1.8-1.5l-2.4-3.7h0.1l-2.3-3.3l-3.7-3.5l-1.7-2.3l-1.2-2.5l-0.5-0.8l-2-2.4l-0.4-2l-0.4-1.5V320l-2.3-1.6
			l-1.4-2.3l-3.4-5.2l-3.8,0.5l-4.3,3.7l-0.5-0.1h-0.1l-1-0.2l-1.6-1.7l-3.1-3.2l-4.5-3.3l-0.5-0.4l-1.4-0.7l-1.4-1l-0.3-0.3l-2-1.3
			l0.1,0.1l-1.3-0.8l-1.9-2.2h-1.3l1.3-3.8l0.8-1.2l2.5-3.6l0.9-1.3l2.6-4l-1.3-3.3l-0.7-0.3l0,0l-3.2-2.7l-0.3-0.1l0,0l-1.1-1.1
			l-3.2-2.8l-0.6-0.5l2.6-3.1l-2.2-2.2l-4.1-1.7l-2.8-0.9l-2-0.7l-2.9-0.8l-3.2-1.1l-0.2-0.1l-2.8,1.5l-1.5,1l-2.3,1.4l-1.6,1.2
			l0.6,2.1l0.2,2.1l-1.2,1.4l-0.8,2.2l-0.7,3.5l-0.2,1.6l0.3,2.6l-1.4,0.2l-1.4-1.2l0,0l-2.5-1.7l-2.8-5.9l-1-3.2l-1.2-4l-1.6-5.3
			l-1.1-2.2l-2.3-3.7l-0.3-0.2l-2.7,1.8l-1.5,1l-1.5,1.1l-2.9,0.9l-2.8-2l-2.8,0.6l-2.2,0.9l-3.2,1.4l-1.1,0.5l-3.6,1.5l-4,1.7
			l-3.5,1.5l-1.2-2.3l-0.1-2l-4.1,1.5l-0.5,0.1l-3.3,1l-2.3,0.4l-0.7,0.3l-3.3,2l-2.3,0.5l-1.5,0.3l0,0l-1.8-0.1l-3.6-0.6l-3.9,0.4
			l-2.6,0.8l0,0l-1.2,0.8l-3.9,4l-1.9,0.5l-0.2,0.1l-1.7,0.5l-0.7,0.2l-2.1-5.2l-0.9-3.6l-1.3-2.8l-1-3l-0.4-1.1l-0.9,0.1l0,0l0,0
			l0,0l0,0l0,0l0,0l-0.4,0.2l0,0l0,0l0,0l0,0l-0.5,0.2l0,0l0,0l0,0l0,0l0,0l-0.4,0.1l-0.1,0.5l2.2,4.2l2.2,5.6l2.1,4.5l1,1.5v2.4
			l0.4,1.3l0.1-4l0.5-0.7l3.7-1.1l3.5-2.8l6.2-3l5.4,0.3h0.3l4.3-0.3l3.7-1.5l0.5-0.4l2.3-1l4.1-0.7l3.5-1.5l2.5,3.2l1.2,2.6l0,0
			l4.1-1.8l4.4-1.8l5.8-2.4l3.2-1.4l3.5-1.4l4.4-0.1l4.9-3.6h1.1l3.2,7.2l0.7,6.1l2.3,2l2.4,7l3.2,4.8l1.8,0.6l3.6-3.1l3.5-3.3
			l0.1-5l-1.9-4.4l0.1-2.1l3.3-2.1l3.4-1.4l5.4,1.7l3.9,1.3l4.5,1.5l3.7,3.2l1.9,3.4l-2.9,2.6l1.8,3v3.4l-3.6,3.9l-3.2,3.1l-2.9,2.6
			l-4.7,3.9l0.3,0.7l2.8,0.7l2.4,0.7l2.4,3.8l1.3,2.4l6.9,3.6l5.2,2l5,2.9l5.2,0.5l1.9,1.1l1.8,5.8l0.9,1.5l4.9,7.8l3.4,5.6l1,1.7
			l4.1,6.6l4.1,5.1l2.5,4.1l2.9,4l0.8,2.9l2.6,5.3l1.5,2.4l-1.3,6.3l-2.3,4.2l1.8,7.1l1.5,6l0,0l0.2-0.3l-1.4-5.9l-0.6-2.5l1.1-3.6
			l1.6-0.3l3.5-0.8l5.3-1.2l0.5,1.9l0,0v-0.1l0,0v0.1l0,0l0,0l0,0l0,0l0,0l0,0v0.1v0.1l0,0v0.1l-0.1,0.1l0,0l0,0l0,0l0,0l0,0
			l-0.6,0.7l-4.4,1.1l-3,0.7l-4,0.4l-0.7-5.4l3.5-0.7l0,0l0,0l1.5-0.4l0,0l0.3-2.5l-0.8-3.7l-1-3.1l0.2-1l2.7-7.2l2.5-7.2l0.4-4.7
			l-5.2-3.7l-2.6-3.1l-4.8-6.3l-4.5-5.2l-3.2-3.9l-1.7-6.2l-3.4-3.3l-2.2-3.3l-3.8-2l-5,4.8l-2.5-0.3l-2-3.5l-5.8-4.3l-4.9-3.5l-1-1
			l-0.5-0.3v-0.1l-0.1-0.1l-2.2-1.3l-2.6-1.6l-0.3-0.2l2.8-5.3l3.1-4.4l2.1-3l0.2-3.5l-2.3-1.4v-0.1l-2.7-2.2l-1.1-0.8l-3.5-3.2
			l2-3.5l-2.2-2.4l-4.9-2l-6-1.9l-4.2-1.4l-2.3,1.3l-2.4,1.5l-3.4,2.5l0.5,4.7l-1.5,2.2l-0.7,4l-0.1,0.6l0.9,2l-2.6,1.4l-0.9-0.7
			l-3.6-3.1l-3.2-8.8l-1.1-3.7l-1.3-4.5l-2.7-4.6l-2.1-0.9l-2.3,1.6l-2.3,1.8l-3.4,0.7l-4.2-1.8l-4.1,1.8l-2.9,1.2l-3.7,1.5
			l-4.3,1.8l-3.4,1.5l0,0l-1.4-3l-1.7-0.7l-3.9,1.6l-5.3,1.2l-2.6,1.7l-6.8,0.9l-6.3-0.2l-3.3,0.9l-0.1,0.1l0,0l-2.2,2l-3.5,2.9
			l-3.7,1l-2.2-5.5l-0.8-3.1l-1.1-2.5l-1-2.3l-1.1-2.3l-0.8,0.2v0.1v-0.1l0,0v0.2l0,0l0,0l0,0l0,0l-0.6,0.1l0,0v-0.1l0,0l-0.4,0.1
			l0,0l0,0l0,0l0,0l0,0l-0.1,0.2l2.5,4.8l2.2,5.6l2.4,4.5l0.4,4.6l0.6-1.9l1.6-2.7l2.1-0.5l1-0.5l4-3.7l0.2-0.2l6.4-1.9l4.4,0.4h0.4
			l1.7,0.1l4.6-1.1l1.6-1.2l4.4-1.2l7-1.6l1.5,3.5l0.8,1.9l2.3-1l6.2-2.7l4.7-1.9l4-1.7l3.9-1.4l4.4-0.3l4.8-3.4l0.2-0.2l0,0
			l1.2,0.7l2.4,7.8l2.1,5.3l2.4,5.5l4.3,6.2l0.2,2.6l1.8-0.3l1.9-1.3l1.7-1.7l2.9-2.1l0.9-4.6l-0.8-5.2l-2.3-2.4l3.5-2.1l2.7-1.8
			l3.5,0.3l7,2.3l0.8,0.2l2.3,0.6l4.3,2.9l3.7,3.8l-3.6,3.1l2.7,3.6l-2,4.1l-6.3,6.3l-6.6,5.6l0.2,0.7l2.8,1.4l1.4-0.5l3.5,5.1
			l2.4,3.2l1,0.5l1.5,0.6l0.3,0.1l3.6,1.4l8.1,3.7l4.1,1.5l3.7,0.3l1.2,3.2l3.6,7.2l2.4,3.8l3.8,6.2l2.1,3.4l5.1,8.2l5,6.6l0.6,1
			l2.4,3.3l2.2,6l2.4,3.7l0.4,0.9l-2.7,6.9l-0.6,6.2l1.9,8.3l0.7,0.9l-1.7-6.6l1.2-4.8l1.9-0.4l5.5-1.4l3.1,1.6l-0.4,0.7l-4,0.9
			l-5.8,1.5l-1.5,0.3l-0.4-0.8l0.5-5.3l2.5-0.3V377l2.3-1.7l-1.1-5.1l-0.8-3.3l0,0l0.7-3.8l0.2-0.7l3.5-6.2l0.5-2.5v-1.2l0.3-1
			l-0.4-2.4l-1.1-3.3l-4.2-2.9l-4-5.8l-5.3-5.6l-3.4-5.6l-2.7-4.9l-2.5-2.7l-2.3-3.5l-4.3-5.6l-4.7,5l-2.2,0.6l-2.7-2.3l-5.4-4.6
			l-5.3-3.9l-2.3-1.6l-2.4-2l-2.9-2.1l4.9-6.8l3.3-4.9l0.2-3.9l-4.2-2.9l-0.9-0.7l-1.2-0.9l-3.7-3.2l2.6-3.3l-2.6-2.7l-4.9-1.7
			l-1.3-0.4l-3.8-1.2l0,0l0,0l-3.8-1.1l-1.8-0.1l-2.2,1.5l-3.6,2.3l-1.2,0.8l-0.1,0.4l3,2.6l0.1,0.6l0.6,4.5l-0.8,3l-4.7,4.3
			l-1.7,1.2l0,0l0,0l0,0l-0.2-0.4l0,0l0,0l0,0l0,0l0,0l0,0l0,0l0,0l0,0l0,0v-0.1l0,0l0,0l0,0l0,0l0,0l0,0l0,0l0,0l0,0l0,0l0,0l0,0
			l0,0l0,0l0,0l0,0l0,0l0,0l0,0l0,0l0,0l0,0l0,0l0,0l0,0l0,0l0,0l0,0v0.1l0,0l0,0l0,0l0,0l0,0l0,0l0,0l0,0l0,0l0,0l0,0l-0.6-0.4
			l-0.2-0.1h0.1"/>
	</g>
	<g id="XMLID_549_" transform="matrix(0.999873,0,0,0.999873,0,0)">
	</g>
	<g id="XMLID_548_" transform="matrix(11.8095,0,0,11.8095,0,0)">
	</g>
	<g id="XMLID_547_" transform="matrix(11.8095,0,0,11.8095,0,0)">
	</g>
	<g id="XMLID_546_" transform="matrix(11.8095,0,0,11.8095,0,0)">
	</g>
	<g id="XMLID_545_" transform="matrix(1,0,0,1,0,0)">
	</g>
	<g id="XMLID_544_" transform="matrix(11.8095,0,0,11.8095,0,0)">
	</g>
	<g id="XMLID_543_" transform="matrix(11.8095,0,0,11.8095,0,0)">
	</g>
	<g id="XMLID_542_" transform="matrix(1,0,0,1,0,0)">
	</g>
</g>
</svg>
