<?xml version="1.0" encoding="utf-8"?>
<!-- Generator: Adobe Illustrator 19.0.0, SVG Export Plug-In . SVG Version: 6.00 Build 0)  -->
<svg version="1.1" id="Layer_1" xmlns="http://www.w3.org/2000/svg"
	xmlns:xlink="http://www.w3.org/1999/xlink" x="0px" y="0px"
	viewBox="0 0 795 595" style="enable-background:new 0 0 795 595;" xml:space="preserve">
<style type="text/css">
	.st0{fill:none;stroke:#000000;stroke-width:0.1417;stroke-linecap:square;stroke-linejoin:bevel;}
</style>
<g id="Map_1:_line_x5F_C47621_x5F__x5F_610_x5F__x5F_20marzo2024" label="Map 1: line_C47621__610__20marzo2024" groupmode="layer">
	<g id="XMLID_184_" transform="matrix(1,0,0,1,0,0)">
	</g>
	<g id="XMLID_183_" transform="matrix(1,0,0,1,0,0)">
	</g>
	<g id="XMLID_182_" transform="matrix(11.8095,0,0,11.8095,0,0)">
	</g>
	<g id="XMLID_181_" transform="matrix(11.8095,0,0,11.8095,0,0)">
	</g>
	<g id="XMLID_176_" transform="matrix(0.999873,0,0,0.999873,0,0)">
	</g>
	<g id="XMLID_174_" transform="matrix(0.999873,0,0,0.999873,0,0)">
		<path id="XMLID_175_" vector-effect="none" class="st0" d="M204,163.7l-1-1.5l-0.6-0.3l-0.2-0.5l0,0l0,0l0,0l0,0l0,0l0,0l0,0
			l0.4,0.1l-0.1-0.1h-0.1l0,0l0,0l0,0l-0.1,0.2l0.3,1l0,0l0,0l0,0l0,0l0,0l0,0l0,0l0,0l0,0l0,0l0,0l0,0l0,0l0,0l0,0l0,0l0,0l0,0l0,0
			l0,0l0,0l0,0l0,0l0,0l0,0l0,0l0,0l0,0l0,0l0,0l0,0l0,0l0,0l0,0l0,0l0,0l0,0l0,0l0,0l0,0l0,0l0,0l0,0l0,0l0,0l0,0l0,0l0,0l0,0l0,0
			l0,0l0,0l0,0l0,0l0,0l0,0l0,0l0,0l0,0l0,0l0,0l0,0l0,0l0,0l0,0l0,0l0,0l0,0l0,0l0,0l0,0l0,0l0,0l0,0l0,0l0.1-0.2l0.7-0.1l-1.4,0.8
			l-4.4,0.8l-3.9,4.1l-5.7,0.5l-3,1.3l-4.5,2.6l-2.8-0.3l-4.4,1.2l-4.5,1.7l-5,1.6l-3.3,1.9l1.3,1.5l3.9,4.7l2.5,3.7l2.9,4.3
			l-1.4,0.6l-3.5-5.5l-4-5.7l-4.6-4.3l-5.1-1.5l-3.4,1.8l2.4,3.2l2.6,3l2,2l0.2,0.2l0,0l0,0l0,0l0,0l0,0l0,0l0,0l0,0l0.1,0.1l0,0
			l0,0l0,0l0,0l0,0l0,0l0,0l0,0l0,0l0,0l0,0l0,0l0,0l0,0l0,0l0,0l0,0l0,0l0,0l0,0l0,0l0,0l0,0l0,0l0,0l0,0l0,0l0,0l0,0l0,0l0,0l0,0
			l0,0l0,0l0,0l0.2,0.2l0,0l0,0l0,0l0,0l0,0l0,0l0,0l0,0l0,0l0,0l0,0l0,0l0,0l0,0l0,0l0,0l0,0l0,0l0,0l0,0l0,0l0,0l0,0l0,0l0,0l0,0
			l0,0l0,0l0,0l0.2,0.7l-0.9,2.1l-1,3.3l-2.5-1.6l-1.7-1.6l-0.5-2l-2.8-3.2l-1.2-1.6l-2.3-1.8l-0.3,0.2l-0.4,0.2l-3,1.4l-0.5-0.2
			l-0.6-0.7l-0.9-1.2l-2,0.7l-2.3,1.1l-2.3,1.1l-1.5,0.7l-2.9,2.4l-0.8,0.9l-3.4,4l-1.5,2.6l0.9,1.1l2.5,3.4l1.7,2.3l4.4,6.2l2,2.9
			l1.6,2.3l4.3-0.6l6.1-1.7l2.4-1.8l0.4,1.5l0.8,3l1.4,3.6l0.7,1l-0.3,4.2l1.6,2.3l0.1,0.2l2.7-0.5l3.1-2.7l6.5-0.1l2.6,0.3l2.2,0.2
			l0,0l0,0l0,0l1.1,7.7l2.7,6.4l2.5,9.9l2.1,5.1l0.6,0.8l1.9,2.1l3.9,4.3l4.9,3.5l3.9,2.4l1.4,4l0,0l0,0l1.1,0.1l1.3-1.9l0,0
			l0.2-0.2l3.7-2.1l2.6-1.4l-2.6-3.2l1.7-0.3l2-3.2l-1.9-4.7l1.6-1.6l6-4.1l3.8-2.2l3.9-2.3l6.7-3.9l6.9-3.9l3.5-2l4-2.4l6-3.5
			l7.2-4.2l9.9-5.3l13.8-4.7l4.2-1.3l5-1.9l9.1-2.9l9.6-3.2l6.1-1.8l2.1-0.6l4-1.4l9.3-2.8l3.2-0.8l5.8-1.6l2.5-0.7l1-0.3l1-0.3
			l0.3-0.1l0.4-0.1l1.3-0.4l0.2-0.1l1-0.2l1.7-0.5l4.4-1.2l7.4-1.7l5.5-1.3l1.1-0.1h0.6l0.9-0.1l1.6,0.1h0.1l1.5,0.1l1.8,0.2
			l1.7,0.1l1.9,0.1l1.6,0.1l1.7,0.1l4.9-1l2.1-1l2.6-1.5l2.9-1.8l7.8-2.4l7-1.3l10.1-1.8l7.4,0.7l0.7,0.3l5,1.8l7.1,4.2l2.8,2.8
			l1.5,1.4l11,10.9l3.6,3.6l6.1,6.1l1.1,1.1l2.1,2l5.1,5.1l2.7,2.7l2.1,1.9l6.4,4.6l9.2,6.3l3.8,2.7l5.2,3.6l3.2,2.1l5.2,4l1.4,1.4
			l0.5,0.6l0.7,0.8l0.3,0.5l1.5,2l0.6,0.9l0.1,0.2l1,1.4l0.3,0.4l0.7,1l0.8,1.2l1.2,1.7l0.1,0.2l0,0l0,0l0.7,0.9l1.5,2.1l0.5,0.6
			l1.2,1.7l1,1.4l1.2,2.1l0.7,2.3l0.3,1l-0.7,4.9l-1.2,9.4l-0.6,5.1v0.4l-0.1,0.4l-0.1,0.3v0.4l-0.6,6l-0.5,4.9l-0.1,0.9l-0.6,5.7
			l-0.3,3.3l0,0l0.1,2.4l0.5,7.3l1.2,5.6l2,4l0.3,0.5l0.6,1l0.7,1l0.6,1l0.7,1.2l1,1.6l1.7,3l2.3,3.7l1.5,3.1l0,0l2,3.4l3.8,6.9
			l4,5.5l5.7,7.6l2,1.4l1.5,0.5l1.4,0.3l3-0.3l0.8-0.4l1.3-0.9l1.9-1.5l2.2-1.5l3.2,2.2l0.2,0.5l3.3,5l3.9,6.5l1.5,2.5l1.7,2
			l5.9-3.9l4.7,1.7l3.5,10.1l6.1,9.1l2.5,4.5l1.4,1.5l0.1,7.3l0.1,4.3l-0.1,1.5v3.6v1.2v1.8l1.4,6.2l6.6-0.2l0.9-0.3l6.8-1.8
			l8.8-2.4l8.4-2.3l4.9-1.6l0.5-0.2l0.6-0.2l4.3-1.1l5.4-1.4l1.5-0.5h0.1l4.8-1.3l2.7-0.7l3.2-1l4.4-1.2l0.5-0.2h0.2l0,0l4.3-1.2
			l0.5-0.1l0,0l0,0l2-0.6l2-0.1l2.5-2l-2.1,0.3l0,0l0,0l0,0l0,0l0,0l0,0l0,0l0,0l0,0l0,0l0,0l0,0l0,0l0,0l0,0l0,0l0,0l0,0l0,0l0,0
			l0,0l0,0l0,0l0,0l0,0l0,0l0,0l-0.2,0.2l-1.2,0.6l0,0l-2.7,1l-1.3,0.3l-0.4,0.1l-3.9,1.2l-8.4,2l-6.9,1.7l-4,1l-3.6,1.1l-0.8,0.1
			l-0.4,0.2l-1.6,0.5l-3.2,1l-9,2.4l-11.3,3.1l-8.6,2.2l-3.4,0.5l-3-6l0.2-9.5l-0.2-7.9l-3.2-7.9l-4.1-9.5l-0.4-1.2l-0.2-0.5
			l-0.2-0.5l-0.2-0.5l-0.7-2l-0.4-1.3l-1.9-5.8l-8.3-3.6l-10.3-4.5l-8.7-6.9l-6.6,4.2l-8.8-2.9l-7.5-10l-6.6-11.8l-6-10.2l-5.6-10.7
			l-1.2-10.8l0.3-7.5l1-10.7l0.7-7.4l0.6-6.2l1.8-9.6l-0.7-6.3l-1-2.1l-4.8-6.9l-2.2-3.1l-4.9-7l-2.3-2.7l-7.1-5.4l-9.8-6.7
			l-4.4-3.2l-7.1-4.9l-9.5-7.8l-9.6-9.5l-9.4-9.2l-6.7-6.7l-8.1-8.1l-8-4.9l-6.8-2.4l-11,0.6l-10.3,1.7l-8.6,2.3l-2.5,1.2l-7,3.9
			l-10.3,0.6l-7.1-0.5l-10.8,2.1l-11.4,3.2l-10.7,2.9l-6.5,1.8l-7.4,2.3l-3.8,1.2l-5.1,1.7l-5.6,1.8l-4.4,1.5l-10.3,3.4l-8,2.5
			l-0.9,0.3l-1.2,0.4l-0.1,0.1l-0.6,0.2l-1.2,0.4l-1.1,0.4l-0.7,0.2l-1.4,0.6l-1.6,0.6l-1.1,0.3l-1.5,0.5l-1.6,0.5l-1.7,0.5
			l-1.5,0.6l-0.4,0.2l-1.5,0.9l-2.5,1.3l-4.1,2.2l-7.4,4.2l-10.4,6l-10.6,6.1l-6.3,3.7l-6.6,3.8l-8.5,4.6l-0.6,6.4l-2.7,5.2l0,0
			l0.9,1.6l1.7,2.1l-5.5-0.2l-3.5,0.6l-5.8-3.5l-7.7-7.3l-1-0.9l-2.8-4.9l-5.4-17.2l-0.7-4.1l-0.2-1.4l-1.3-0.5l-3,0.1l-0.8-2.6
			l-2.6-0.3l-4.6,0.7l-2.9,2.4l-2,1l0.7-2.8l-1.3-2.6l-2.6-3.9l-1.8-4.7l0.3-2.3l-2.4,1.4l-3.8,0.7l-5,2.7l-2-0.5l-2.6-3.6l-2.4-3.4
			l-3.3-4.7l-3.2-4.5l-1.5-3.1l2.5-3.5l2.3-2.7l1.3-1.6l2.4-1.6l2.6-1.2l2.3-1.1l2.7,3.2l1.9-1.1l1.9-1.9l1.7-0.8l2.1,0.8l2.2,2.9
			l2.8,3.1l2-0.4l1.5-1.1l2-0.2l0.3,0.4l0,0l0,0l0,0l0,0l0,0l0,0l0,0l0,0l0,0l0,0l0,0l0,0l0,0l0,0l0,0l0,0l0,0l0,0l0,0l0,0l0,0l0,0
			l0,0l0,0l0,0l0,0l0,0l0,0l0,0l0,0l0,0l0,0l0,0l0,0l0,0l0,0l0,0l0,0l0,0l0,0l0,0l0,0l0,0l0,0l0,0l0,0l0,0l0,0l0,0l0,0l0,0l-0.6,2.7
			l-1.5,3.5l-2.5-2l-1-2.5l-1.8-2l-1.7-2v-0.1l-2.2-3l-2.1,0.2l-3,1.3l-2.5-2.1l-2.4,1.2l-1.9,0.9l-1.5,0.7l-1.6,0.8l-2.9,2.3l0,0
			l-1.3,1.7l-2,2.4l-1.9,4.2l3.4,4.6l4,5.6l1.6,2.3l2.6,3.7l1,1.4l3.1,0.4l1.6-1.3l2.6-1l1.6-0.2l4-2.1l0.4,2.7l1.4,3.6l0.9,2.2
			l1.3,6.4l0.6,0.7l0.7,1l2.7-1.8l2.3-2l6-0.4l1.7,0.1l3.8,0.3l0,0l0.5,0.8l0,0l-0.1,0.5l0.2,2.8l1.7,6.2l3,9.7l1.5,5.5l2.7,4.9
			l1.5,1.7l4.6,4.3l5.3,4.4l3.8,3.9l1.1,1.9l1.5-2.1l0,0l1.5-2.1l4.4-0.6l-2.1-4.3h3.9l0.1-3.2l-2.4-4.6l4.7-4.2l8.6-5l9.1-5.3
			l8.5-4.9l5.9-3.3l4.3-2.5l6.7-4l8.7-5l13.5-5.1l7.6-2.3l4.8-1.8l9.5-3.1l10.2-3.4l7.9-2.3l4.3-1.5l10.3-3.1l2-0.5l6.3-1.7l6.6-1.8
			l3-0.9l3.6-1l4.4-1.2l8-1.7l9.3,0.4h7.4l4-1.4l5-2.9l3.1-1.5l7.8-1.9l8.6-1.5l9.4-1.5l2.2,0.3l2.1,0.7l4.3,1.5l4.6,1.8l5.4,4.4
			l2.9,2.7l2,2l2,2l2.3,2.3l4.9,4.8l3.8,3.8l5.3,5.2l5.9,5.8l6.8,6.7l8.6,6.4l3,2.1l5.5,3.9l1.7,1.2l0.1,0.1l2.5,1.7l1.7,1.2
			l0.1,0.1l0.1,0.1l1.5,1l2.5,1.9l3.1,2.2l1,0.8l1.2,0.9l1.8,1.7l2.8,3.6l0.8,1.2l0.3,0.3l0.7,0.9l1.3,2l1.3,1.8l1.2,1.7l2,2.7
			l1.8,2.5l1.2,1.7l1.3,2.3l0.7,2.3l-0.3,4.1l-1.1,5.8l-0.4,4l-0.6,5.8l-0.1,1.1l-0.1,2l-0.2,1.8l-0.3,2.9v0.3l-0.2,1.9l-0.2,2.4
			l-0.2,1.7l-0.1,1l-0.2,1.9l-0.1,1.2l-0.4,4.1v2.7l0.4,5.4l1.9,9.1l2.8,5l0.6,1l1.7,2.7l1.9,3.3l3.5,6l2.4,4.5l3.5,6.3l5.9,8.4
			l5.7,6.3l0.9,0.5l2.7,0.6l2.1-0.2l2-1l2.1-1.6l1.3-0.9l3.4-0.2l2.9,4.8l2.7,4l4,6.4l2.2,3l5.4-3.7l4.9,1.1l3.5,9.9l6.1,9.1
			l3.5,5.7l0,0l0,0l0.5,2.9v0.8l0.2,6.3l-0.1,8.4l-0.1,2.6l2.4,5.9l6.2-0.7l3-0.9l8.8-2.4l9.9-2.7l7.5-2.3l1.6-0.4l4.1-1.2l0.4-0.1
			l1.7-0.4l7.2-2l4.5-1.2l5.9-1.6l1.6-0.7l1.1-0.2l0,0l3.5-0.9l0,0l0,0l0,0l0,0l0,0l7.8-3.1l-1.6,0.4l0,0l0,0v0.1l0,0l0,0l0,0l0,0
			l0,0l0,0l0,0l0,0l0,0l0,0l0,0l0,0l0,0v0.1l0,0l-0.1,0.1l-0.2,0.1h-0.1l-2.9,1.4l-3.6,0.9l-0.1,0.1l-2.6,0.8l-6.8,1.5l-4.5,1.1H650
			l-5.9,1.5l-2.4,0.6l0,0l-0.3,0.2l-1.6,0.3l-1.9,0.5l-1.4,0.5l-0.6,0.2l-4.5,1.2l-8.3,2.2l-8.2,2.2l-10.5,2.7l-7.6-1.5v-7l0.1-8.7
			l0.1-7.8l-5-7.9l-3.6-9.7l-3.7-10.1l-10.9-2.9l-9.9-8.6l-7.7-1.6l-5.3,3.5l-8.1-3.8l-2.5-3.4l-5.8-7.7l-5.7-11l-3.1-5.4l-3.6-5.8
			l-4.6-8.9l-1.2-11.4l0.2-6.3l0.7-6.9l0.9-8.8l0.5-4.8l0.6-6.2l1.7-8.6l-1.4-6.6l-5.9-8.6l-7.5-10.4l-9.7-8l-11-7.4l-11-7.6
			l-10-8.9l-8.9-8.9l-7.8-7.8l-3.7-3.6l-6-5.9l-6.6-6.3l-7.6-3.8l-10.9-2.3l-11.4,1.9l-12.8,3l-9,4.8l-10.3,0.9l-9.6-0.6l-12.1,2.9
			l-12.4,3.4l-10.6,2.9l-6.5,1.9l-5.4,1.7l-0.1,0.3l-1.6,0.5l-4.8,1.7l-7.4,2.5l-11.3,3.7l-7,2l-5.7,2l-11.6,3.9l-10.2,5.2l-9.8,5.7
			l-8.9,5l-3.5,2l-4,2.2l-4.3,2.5l-6.6,3.7l-2.3,1.3l-6.8,4l-6.3,5.5l-0.2,7.4l2.3,3.6l-3.7,0.9l-2.6-0.1l-1.9,0.3l-5.3-1.8
			l-1.9-1.8l-4.9-4.4l-2.6-2.7l-3-3.5l-2-7.1L173,234l-3.1-9l-0.9-2l-1.5,0.7l-2.6-2.1l-1.6-0.9l-4.2-0.3l-1.6,0.7l-2.8,2.4
			l-2.8,0.8l-0.1-1.2l1.2-2.4l-1.4-1.8l-2.1-3.2l-1.3-3.3l-0.5-1.2l-0.9-2.3l-4.3,1.6l-3.3,1l-4.2,1.9l-3-4.3l-2.1-2.9l-3-4.2
			l-2-2.7l-2.8-3.8l1.1-4.5l2-2.4l2.6-3.1l3.6-1.9l4-1.8l3.5,2.7l4.3-3.1l3,2.3l0.4,0.6l2.1,2.3l2.7,2.1l2.2-1.7l1.9-0.7l0.6,0.7
			l0,0l0,0l0,0l0,0l0,0l0,0l0,0l0,0l0,0l0,0l0,0l0,0l0,0l0,0l0,0l0,0l0,0l0,0l0,0l0,0l-0.8,3l-0.6,1.9l-1,1l-3.2-2.6l-0.8-2.7
			l-2.7-3l-2.2-2.9l-4.3,0.8l-2.5-1.3l-2.3,0.3l-2.4,1.1l-1.1,0.5l-2.2,1l-2.4,1.5l-0.8,0.9l0,0l-0.9,1.2l-2.6,3.1l-1.7,3.9l2.4,3.3
			l1.7,2.3l2.8,3.9l2.1,2.9l2.4,3.3l2.4,3.4l5-3l3.6-0.6l3.1-1.9l0.4,2.3l0.7,1.8l0.7,2.1l1.3,2.7l0.7,3.8l-0.7,0.9l1.5,1.9l1.9,0.5
			l6.9-3.9l4.1,0.4l0,0l2.6,0.2l1.8,0.1l0.2,0.2l0.2,0.5v1.7l1,6l3.1,8.1l1.9,8.2l1.9,4.5l1.2,1.4l4.5,4l1.9,2.1l4.2,3.8l4.3,3.3
			l0.5,2.6l0,0v0.2l3.4-3.6l2.1-1.2l2.1,1l0.7-2.7l-2.3-2.5l1.4-0.4l2.5-3l-1-0.7l-0.5-4.9l5.9-4.5l5.1-2.9l3.8-2.2l2.4-1.3l2.5-1.5
			l2.1-1.1l6.5-3.7l6.7-3.9l1.7-1l5.8-3.5l7.9-4.4l3.3-2l10.2-4.7l13.1-4.1l12.7-4.3l12.6-4.2l10.2-3.2l10.6-3.2l4-1l7.5-2.1
			l8.2-2.2l3.9-1l5.5-1.2l8.3-1.5l10.5,0.8l8.5-2l5.8-3.4l3.8-1.6l7.7-1.5l8.6-1.6l11.8,0.1l7.1,2.5l6.4,4.6l7.8,7.5l9.1,9l8.6,8.7
			l3.1,3l7.1,7.1l9.6,7.2l11.2,7.7l11,7.6l6.4,6.6l5.4,7.6l2.2,3l4.3,6.6l0.2,8.5l-1.3,9.8l-0.5,5l-0.2,3.4l-0.7,6.8l-0.8,7.5
			l-0.4,4.4l0.1,2.8l0.6,7.6l2.7,8.2l1.3,1.8l0.6,1.1l0.5,0.8l0.5,0.8l0.5,0.9l0.8,1.3l0.7,1.2l3.3,5.7l1.3,2.5l2.5,4.4l4.9,8.3
			l7.1,9.7l9.5,3l8-3.3l4.6,7.5l3.6,5.7l3.3,5l4.6-3.1l4.9-1.9l3,8.2l4.5,9.1l5.1,8.3l1.5,1.5l0.3,4.8v4.4l-0.2,6.4l0,0v1.9v3.8
			l2.5,5.4l6.7-0.8l4.1-1.2l9.2-2.3l9.9-2.8l8.3-2.5l4-1.2l9.3-2.5l5-1.2l3.4-0.8l5.3-1.7l1.7-0.5l0,0l0,0l3.4-1l5.1-0.8l-1.7-0.8
			l-0.1,0.1v0.1l0,0l0,0l0,0v-0.1l0,0l0,0l-1.6,0.8l-2.2,0.9l-0.8,0.3l-0.7,0.2l-1,0.4l-0.3,0.1l-0.3,0.2l-5.1,1.3l-7.6,1.7
			l-8.1,1.9l-1.8,0.4l0,0l-3.5,1l-0.1,0.1l-5,1.4l-0.2,0.1l-3.5,0.9l-8.4,2.4l-3.9,1l-6.2,1.7l-6.4,1.4l0,0l-3,1l-4.6-3.5v-2.9v-0.4
			v-2.7l0.1-7.9l0.2-5.5l-0.2-4.9l-5-6.3l-3.9-10.7l-5.2-10.4l-6.3-0.9l-4.5-0.6l-5.3-4.7l-3.7-4.6l-6.3-1l-1.2,0.8l-5.3,3.3
			l-7.5-3.8l-0.7-0.9l-2.6-3.5l-5.1-7l-5.3-9.8l-4.4-7.8l-4.7-7.5l-3.6-10l-0.5-9.6l0.1-0.4l0,0l0.2-1.6l0.5-6.5l0.4-3.9l0.7-6.5
			l0.2-3.2l0.6-5.2l0.2-3.1l1.6-7.7l-0.4-6.2l-1.4-3.1l-3.5-5l-0.1-0.1l-1.7-2.3l-4.4-6.1l-3.3-4.3l-4.2-4l-2.4-1.9l-4.8-3.3
			l-5.9-4.1l-3.9-2.7l-7.6-5.3l-8-6.2l-7.5-7.4l-7.3-7.2l-6.7-6.8l-2-2l-5.7-5.5l-7.5-7.3l-4.3-3l-5.4-2l-3.9-1.5l-0.6-0.2l-6.5-0.2
			l-7.7,1.3l-9,1.6l-7.8,2.5l-1.9,1l-5.7,3.1l-3.1,1.1H370l-1.6-0.1l-3.1-0.1l-6.8-0.3l-10.3,2.7l-1.9,0.6l-5.7,1.5l-5.3,1.4
			l-5.1,1.4l-2.8,0.8l-4.9,1.3l-4.7,1.4l-6.1,1.9h-0.2l-0.2,0.1l-3.9,1.4l-6,1.9l-3.5,1.3l-6.8,2.3l-9.9,3l-2.3,0.8l-7.5,2.5
			l-11,3.9l-8,4.3l-0.3,0.2l-2.4,1.5L247,222l-5.4,3.1l-2,1.1l-3.9,2.3l-2.8,1.6l-4.5,2.7l-2.8,1.6l-3.6,2l-2.4,1.4l-4,2.2l-4.6,2.6
			l-4.7,2.8l-2.9,1.7l-2.4,4.5l0.8,3.4l-2.4,3.9l-0.1,0.5l2.2,1.7v2.5l-6.6-0.9l-3.3,0.5l-4.8-4l-6.8-6.3l-0.6-0.6l-2.9-3.4
			l-1.8-6.1l-2-8.3l-3.2-9.3l-0.3-2.2l0,0l-1.2,0.2l-2.9,0.6l-0.5-2.5l-2.7-0.7l-3.1-0.2l-3.1,1.9l-2.6,2.2l-1.7-0.4l1.1-2l-0.6-2.3
			l-2.3-2.9l-0.8-2l-1.3-3.3l-1-3.2l-3.4,1.9l-2.3,0.2l-2.6,1.2l-2,1.4l-2.3-0.8l-2.8-4l-1.7-2.4l-1.6-2.3l-3.1-4.4l-3.5-4.6l2-4.2
			l1.9-2.3l1.3-1.5l1.3-1.6l2.5-1.3l2.8-1.3l3.5,1.2l3.2-1.1l2.8-1.3l2.3,0.4l1.8,2.4l1.8,2l2.1,2.4l1.6-1.4l1.7-1.4l1.4,0.2
			l0.5,0.6l0,0l0,0l0,0l0,0l0,0l0,0l0,0l0,0l0,0l0,0l0,0l0,0l0,0l0,0l0,0l0,0l0,0l0,0l0,0l0,0l0,0l0,0l0,0l0,0l0,0l0,0l0,0l0,0l0,0
			h0.1l-0.9,3.5l-1.5,2.3l-3.3-2.6l-0.6-2.3l-2.8-3.1l-1.4-1.8l-2.5-1.3l-3,1.3l-2.8-1.9l-4,1.8l-2.6,1.2l-3.7,2.6l-2.3,2.7
			l-2.9,3.7v2.3l2.9,3.9l1.6,2.3l3.1,4.3l1.8,2.4l2.4,3.5l3.6,1.3l1.2-0.9l3.4-1.4l0,0l3.8-0.9l1.8-1.6l0.4,3.9l1.3,3.2l1.1,2.3
			l1.5,2.8l-0.3,3.4l0.7,0.9l0.6,0.5l1.7-1.6l1.9-1.6l3.5-1.5l2.3,0.2l4.8,0.4l1.8,0.2l0,0l0.5,0.5l0.1,0.2l0.1,0.1l0.3,6.4l0.8,1.5
			l1.9,4.6l2.1,8.5l1.5,4.7l1.9,3.6l0.7,0.7l2,2.1l3.5,3.5l0.8,0.2l3.7,3.5l4.4,2.6l2,3l0.8-1.1l0.2-0.1l3.3-2.9l2.9-0.5l-1.4-1.8
			l-1-1.6l0,0l3.1-0.3l0.4-3.6l-0.7-0.5l-0.2-4.6l4.4-3.5l2.4-1.5l3.6-2.1l0,0l0.6-0.4l3.6-2.1l4.1-2.4l0.5-0.3l3.4-2l3.8-2.2l5.2-3
			l4.3-2.4l0,0l2-1.2l6.1-3.4l7.3-4.3l5.3-3l11.9-4.5l12.4-4.1l12.5-4.1l3.1-1.1l6-1.9l6.3-1.9l5.2-1.7l9.2-2.7l2.4-0.7l5.5-1.4
			l7.8-2.2l6.2-1.8l5.3-1.3l7.9-1.7l9.6,0.5l9.8-1l0.2-0.1l2.5-1.4h0.1l3.2-2l8.3-2.9l8.4-1.5l10.5-1.8l5.7,1l3.4,1.1l6.9,2.8
			l6.7,6.4l2.7,2.6l0.7,0.7l1.4,1.4l5.1,5l1.9,1.8l4.5,4.4l5.2,5l4.3,4.4l5.9,5.9l0.8,0.8l4.8,3.9l7.9,5.4l8.1,5.6l2.7,1.9l6.2,4.3
			l4.2,3.1l4.2,4.8l1.5,2l4.1,5.7l0.7,1.1l2.4,3.3l3.8,6.4l0.6,3.2L518,276l-0.6,5.5l-0.5,4.8l-0.1,1.2l-0.3,3.8l-0.6,6.6l-0.4,4.4
			l-0.2,1.7l-0.3,3.6l0,0l-0.1,1.9l0.2,3.2l0.4,4.8l0.9,6.3l1,2.6l4.6,7.6l2.1,3.6l3,5.1l1.2,2.1l3.2,6l5.4,8.7l4.7,6.4l2.3,2.6
			l7.6,1.4l3.3-2l1-0.9l4.7,0.8l1,1.6l2.6,3.8l3.5,5.6l0.6,1l1.8,2.8l1.2,1.7l2.6-1.1l3.3-2.5l4.1-1l2.9,7.8l1.7,4.8l1.7,3.3
			l4.3,6.2l2.3,3.6l1.7,4.7l0.1,6.6v2.4v1.2l-0.1,3.7v2.5l1.1,6.1l5.9,0.3l2.4-0.6l6.7-1.9l7.9-2.2l7.2-2l7.1-2.1l2.7-0.7l2-0.5
			l2-0.6l4-1.1l3.8-1l2.1-0.6l2.5-0.6l2.8-0.8l4.7-1.1l0.8-0.4l0.8-0.2l4.3-1.1l0,0l2.2-0.6l3.5-0.6h0.2l1.5-0.8l-2.3-0.6h-0.2h-0.1
			l0,0l0,0v0.1l0,0l0,0l0,0l0,0L671,413l0,0l0,0l0,0l0,0l0,0l0,0l0,0l-0.2-0.1l0,0h-0.1l0,0h-0.1l0,0l-2.3,1.3l-0.6,1.1l0,0
			l-0.4,0.1l0,0l0,0l-1.5,0.3l-1.4,0.3l-3.8,1.3l-0.8,0.4l-0.1,0.1l-1.4,0.4l-3,0.7l0,0l0,0l0,0l0,0l0,0h-0.9l0,0l0,0l0,0l-0.4,0.2
			l0,0h-0.1l0,0l-1.2,0.4v0.1v0.4l0,0l0,0v0.1l0,0l0,0l0,0v0.1l0,0h-0.2H652v-0.1h-0.2h-0.4l-0.6,0.2l-0.3,0.1h-0.2l0,0v0.1h0.1l0,0
			h-0.1l0,0v-0.1h-0.2l-0.1-0.1l0,0l0,0v-0.1v-0.1l0,0l-2.1,0.5l-5.3,1.3L642,422h-0.2l-3.8,1l-0.3,0.1l0,0l0,0l0,0l0,0l0,0l0,0
			l-0.2,0.1l-0.5,0.1l-4.6,1.2l-1.2,0.3l-1.6,0.5l-1.7,0.4l-0.4,0.1l-0.9,0.2l-0.4,0.1h-0.1l-0.3,0.1l-0.5,0.2l-1.6,0.5l-2.6,0.6
			l-3.9,1l-1,0.3l-2.3,0.7l-2,0.6l-2.1,0.6l-3.1,0.7l-2.1,0.4l-1.7,0.6l-1.5,0.4h-1l-0.7-0.2l-1.4-0.4l-0.3-0.1l-0.8-0.8v-2.8
			l0.1-6.9l0.1-2.8l0.1-3.9l-0.2-3.1l0.1-4l-0.9-4l-3.9-4.5l-3-8.1l-1.7-4.7l-1.2-3.3l-0.5-1.5l-0.3-0.8l-0.5-1.2L584,378l-1.2-0.7
			l-3.4-0.4l-7.9-1l-5.5-5.5l-7.6-4.9l-9.1,4.7l-7.9-6.1l-7-9.7l-5.8-11l-6.2-10.3l-5.3-10.7l-1-12.4l1.2-12.7l1.3-12.1l1.7-11.5
			l-1.5-11.1l-7.4-10.4l-7.8-9.9l-10.3-7.3l-9.9-6.8l-9.8-6.7l-8.7-8l-8.6-8.5l-8.9-8.8l-8.6-8.5l-8.5-8l-10.9-4.4l-11.3,0.3
			l-10,1.8l-10.8,3.1l-7.6,3.8l-3.9,0.9l-6-0.4l-2.7-0.2l-6.1-0.3l-10,2.1l-10.5,2.9l-9.9,2.6l-0.5,0.2l-5.9,1.7l-2.8,0.8l-6.5,2
			l-3.1,1l-4,1.4l-6.9,2.1l-3.1,1.1l-7.2,2.3l-10,3.1l-9.2,3l-9.4,3.2l-6.1,3.3l-4.3,2.3l-3.9,2.4l-7,3.9l-3.4,1.9l-3.6,2l-0.8,0.5
			l-5.5,3.1l-2.4,1.4l-2.3,1.3l-2.4,1.4l-7.4,4.3l-8.3,5l-3.5,4.8l-0.9,6.8l-0.4,0.6l0,0l0,0l-0.3,1l3.1,1.9l-2.9,1.4l-3.6-0.5
			l-4.1,0.7l-4-3.2l-5.7-5.3l-0.9-0.9l-1.5-1.5l-1.9-1.7l-2.5-5.5l-0.5-2.8l-1.8-7.2l-3.3-8.6l-0.4-3.1l-1.3-0.3l-2.1,1l-1.4-3.4
			l-2-0.2l-3.6-0.3l-2.9,1.8l-2.2,1.8l-1.8,0.7l-0.6-1.7l1.3-2.3l-2.3-2.8l-1.2-1.9l-1.1-2.9l-0.6-4.8l-2.3,1.4l-2.9,0.6l-3.8,1.2
			l-2,1.9l-2.3-0.9l-1.7-2.4l-1.9-2.7l-1.5-2.1l-3.5-5l-1.9-2.6l-2.1-4.5l3.1-4.1l1.7-2l1.5-1.8l3.3-1.7l2.8-1.3l2.1,0.8l1.6,2
			l2.7-2.4l4.3-0.9l2.8,3.6l2.2,2.5l2.1,0.2l2.6-2.4l1.6,1.3l0,0l0,0l0,0l0,0l0,0l0,0l0,0l0,0l0,0l0,0l0,0l0,0l0,0l0,0l0,0l0,0l0,0
			l0,0l0,0l0,0l0,0l0,0l0,0l0,0l0,0l0,0l0,0l0,0l0,0l0,0l0,0l0,0l0,0l0,0l0,0l0,0l0,0l0,0l0,0l0,0l0,0l0,0l0,0l0.1,0.1l0,0l0,0l0,0
			l0,0l0,0l0,0l0,0l0,0l0,0l0,0l0,0l0,0l0,0l0,0l0,0l0,0l0,0l0,0l0,0l0,0l0,0l0,0l0,0l0,0l0,0l0,0l0,0l0,0l0,0l0,0l0.4-0.3l1.1-3.3
			l1-1h3.1l2.7,3.5l3,5.3l3.5,4.8l1.9,1.2l3.9,2.2l2.7,6.9l0.8,5.7l4.5,1.2h0.9l0.9-3.6l0.7-6.1l-0.3-6l0.2-4l0.4-2.9l0.9-4.4
			l1.1-3.7l-0.9-5.4l-0.3-3.6h3.1l1-3.1l-0.4-1.3l0,0l0,0l0,0l0,0l0,0l-0.1-0.3l-4.2-0.8l-0.4-0.8l0,0l0,0l-0.2-0.2l0,0l0,0l0,0l0,0
			l0,0l0,0l0,0l0,0l0,0l0,0l-0.2-0.3l0,0l0,0l0,0l0,0l0,0l0,0l0,0l0,0l0,0l0,0l0,0l0,0l0,0l0,0l0,0l0,0l0,0l0,0l0,0l-0.2-0.3l0,0
			l0,0l0,0l0,0l0,0l0,0l0,0l0,0l0,0l0,0l-0.1-0.2v-0.1l0,0l0,0l0,0l0,0l0,0l0,0l0,0l0,0l0,0l0,0l0,0l0,0l0,0l0,0l0,0l0,0l-0.6-0.4
			l-0.1-0.7l0,0v-0.1l-0.5-0.4l-1.9-2.5l-0.1-0.4l0.3,0.4l0.4,0.6l0,0v-0.1v-0.1l0,0l0,0l-0.3-0.2l0,0l0,0l0,0l0,0l0.1,0.3H184l0,0
			v-0.1l0,0l0,0l0,0l0,0l0,0"/>
	</g>
	<g id="XMLID_173_" transform="matrix(0.999873,0,0,0.999873,0,0)">
	</g>
	<g id="XMLID_172_" transform="matrix(11.8095,0,0,11.8095,0,0)">
	</g>
	<g id="XMLID_171_" transform="matrix(11.8095,0,0,11.8095,0,0)">
	</g>
	<g id="XMLID_170_" transform="matrix(11.8095,0,0,11.8095,0,0)">
	</g>
	<g id="XMLID_169_" transform="matrix(1,0,0,1,0,0)">
	</g>
	<g id="XMLID_168_" transform="matrix(11.8095,0,0,11.8095,0,0)">
	</g>
	<g id="XMLID_167_" transform="matrix(11.8095,0,0,11.8095,0,0)">
	</g>
	<g id="XMLID_166_" transform="matrix(1,0,0,1,0,0)">
	</g>
</g>
</svg>